<svg width="14" height="12" viewBox="0 0 14 12" fill="none" xmlns="http://www.w3.org/2000/svg">
<g id="Danger">
<path id="Danger_2" fill-rule="evenodd" clip-rule="evenodd" d="M8.65118 0.961394L13.497 9.37148C13.6037 9.62251 13.6503 9.82663 13.6637 10.0387C13.6903 10.5341 13.517 11.0157 13.1771 11.3863C12.8371 11.7556 12.3772 11.9736 11.8773 12H2.11894C1.91231 11.9874 1.70568 11.9405 1.51238 11.8679C0.545875 11.4781 0.0792874 10.3815 0.472555 9.43093L5.35173 0.955449C5.51837 0.657519 5.77166 0.400546 6.08494 0.235396C6.99146 -0.26732 8.1446 0.0629796 8.65118 0.961394ZM7.57802 6.50382C7.57802 6.82091 7.31807 7.08581 6.99812 7.08581C6.67817 7.08581 6.41155 6.82091 6.41155 6.50382V4.63498C6.41155 4.31724 6.67817 4.06026 6.99812 4.06026C7.31807 4.06026 7.57802 4.31724 7.57802 4.63498V6.50382ZM6.99812 9.34505C6.67817 9.34505 6.41155 9.08015 6.41155 8.76373C6.41155 8.44598 6.67817 8.18174 6.99812 8.18174C7.31807 8.18174 7.57802 8.44003 7.57802 8.75646C7.57802 9.08015 7.31807 9.34505 6.99812 9.34505Z" fill="#DF473C"/>
</g>
</svg>
