<svg width="451" height="188" viewBox="0 0 451 188" fill="none" xmlns="http://www.w3.org/2000/svg">
<path d="M187.044 14.4522C199.203 15.3207 234.813 45.9362 251.098 61.1354C248.564 61.8589 240.241 63.5231 227.213 64.3916C210.928 65.4773 69.793 49.1924 68.7074 45.9355C67.6217 42.6785 61.1078 26.3941 76.307 18.7945C91.5062 11.195 171.845 13.3665 187.044 14.4522Z" stroke="#F7941D" stroke-width="4" stroke-linecap="round"/>
<path d="M362.919 60.0469C390.06 62.942 444.777 78.2859 446.514 116.501C448.251 146.031 448.686 159.927 448.686 163.184L314.064 169.698C313.34 148.347 304.076 106.296 272.809 108.901C241.542 111.507 240.963 150.518 244.582 169.698" stroke="#F7941D" stroke-width="4"/>
<path d="M362.918 60.0485C341.567 62.2199 288.008 64.174 257.609 58.9629" stroke="#F7941D" stroke-width="4"/>
<path d="M244.584 168.61L82.8209 161.01C81.3734 142.192 71.9643 104.556 45.9086 104.556C19.8528 104.556 14.0627 133.507 14.4245 147.982C11.8913 147.259 6.17356 145.16 3.56798 142.554C0.311013 139.297 2.48233 112.156 6.82495 99.1278C11.1676 86.0999 4.65364 65.4724 26.3668 48.1019C48.0799 30.7314 52.4225 12.2752 87.1635 9.01828C121.905 5.76131 166.416 2.50434 188.13 6.84697C205.5 10.3211 242.412 43.0354 258.697 58.9583" stroke="#F7941D" stroke-width="4"/>
<path d="M249.841 151.245C249.841 170.397 262.001 185.071 276.068 185.071C290.135 185.071 302.295 170.397 302.295 151.245C302.295 132.092 290.135 117.418 276.068 117.418C262.001 117.418 249.841 132.092 249.841 151.245Z" stroke="#F7941D" stroke-width="4"/>
<path d="M28.3634 145.816C28.3634 153.82 30.7989 160.988 34.641 166.111C38.4826 171.233 43.6371 174.215 49.1622 174.215C54.6872 174.215 59.8417 171.233 63.6833 166.111C67.5254 160.988 69.9609 153.82 69.9609 145.816C69.9609 137.813 67.5254 130.644 63.6833 125.521C59.8417 120.399 54.6872 117.418 49.1622 117.418C43.6371 117.418 38.4826 120.399 34.641 125.521C30.7989 130.644 28.3634 137.813 28.3634 145.816Z" stroke="#F7941D" stroke-width="4"/>
<path d="M436.746 92.6166C417.928 96.2354 318.41 118.672 259.784 60.0469" stroke="#F7941D" stroke-width="4" stroke-linecap="round"/>
<path d="M394.404 120.847L431.316 119.762V131.704L394.404 132.79V120.847Z" stroke="#F7941D" stroke-width="4" stroke-linecap="round"/>
<path d="M364.004 58.9618C349.528 46.2958 316.018 20.0953 297.779 16.6212C274.98 12.2786 212.012 12.2812 202.241 12.2812" stroke="#F7941D" stroke-width="4" stroke-linecap="round"/>
<path d="M297.779 15.5365C278.961 7.21318 226.126 -2.91938 138.188 4.68" stroke="#F7941D" stroke-width="4" stroke-linecap="round"/>
</svg>
