<svg width="319" height="260" viewBox="0 0 319 260" fill="none" xmlns="http://www.w3.org/2000/svg">
<path d="M163.438 14.3984C132.393 14.3984 91.9988 17.798 74.9233 19.5715C74.438 19.6219 74.0105 19.8383 73.688 20.2045C59.5084 36.305 49.25 74.8342 49.25 80.0234C49.25 85.2734 263.188 86.5859 269.75 80.0234C274.903 74.8705 260.247 38.95 251.843 20.6627C251.55 20.0251 250.963 19.6036 250.265 19.5297C233.41 17.7452 194.24 14.3984 163.438 14.3984Z" stroke="#F7941D" stroke-width="4" stroke-linecap="round"/>
<path d="M74.1875 19.6458C75.9375 14.3958 82.85 3.63333 96.5 2.58333C113.562 1.27083 225.125 2.58333 226.438 2.58333C227.75 2.58333 238.25 1.26969 250.062 19.6458" stroke="#F7941D" stroke-width="4" stroke-linecap="round"/>
<path d="M23.6845 207.334C22.4891 218.689 22.011 254.788 29.6619 255.836C39.2256 257.146 53.5706 259.767 57.157 250.596C60.0261 243.259 59.9464 226.576 59.5479 220.461" stroke="#F7941D" stroke-width="4" stroke-linecap="round"/>
<path d="M262.56 220.459C261.364 231.814 260.886 254.786 268.537 255.834C278.1 257.144 292.446 259.764 296.032 250.593C298.901 243.256 300.336 214.761 299.938 208.646" stroke="#F7941D" stroke-width="4" stroke-linecap="round"/>
<path d="M91.25 3.89628C82.9438 0.398924 61.6198 10.4436 42.7304 78.554C42.7025 78.6546 42.6677 78.7522 42.6246 78.8472C36.0415 93.3456 23 124.416 23 133.835C23 143.285 23 180.21 23 204.71C23 211.273 53.45 219.148 70.25 219.148C91.25 219.148 286.812 229.648 299.938 208.648C302.157 205.096 301.69 162.509 299.952 134.072C299.942 133.913 299.916 133.764 299.868 133.612C294.668 116.835 283.989 85.1647 278.951 79.5655C278.319 78.8624 277.492 78.0825 277.28 77.1607C274.825 66.4591 259.293 3.89628 231.688 3.89628" stroke="#F7941D" stroke-width="4" stroke-linecap="round"/>
<path d="M25.625 119.396C74.1875 133.834 121.7 132.784 154.25 133.834C194.938 135.146 276.312 125.959 294.688 119.396" stroke="#F7941D" stroke-width="4" stroke-linecap="round"/>
<path d="M276.312 72.1465H281.569C282.888 72.1465 283.849 70.8876 283.68 69.5797C283.032 64.5489 284.096 57.709 292.062 57.709C303.875 57.709 317 56.3965 317 64.2715C317 72.1465 317 77.3965 309.125 81.334C302.825 84.484 288.125 84.3965 281.562 83.959" stroke="#F7941D" stroke-width="4" stroke-linecap="round"/>
<path d="M42.6875 72.1465H37.431C36.1123 72.1465 35.1509 70.8876 35.3195 69.5797C35.968 64.5489 34.9038 57.709 26.9375 57.709C15.125 57.709 2 56.3965 2 64.2715C2 72.1465 2 77.3965 9.875 81.334C16.175 84.484 30.875 84.3965 37.4375 83.959" stroke="#F7941D" stroke-width="4" stroke-linecap="round"/>
<rect x="122.125" y="164.711" width="80" height="14.375" stroke="#F7941D" stroke-width="4"/>
</svg>
