<svg width="451" height="188" viewBox="0 0 451 188" fill="none" xmlns="http://www.w3.org/2000/svg">
<path d="M263.642 14.4531C251.482 15.3217 215.873 45.9372 199.588 61.1364C202.121 61.8599 210.444 63.5241 223.472 64.3926C239.757 65.4782 380.893 49.1934 381.978 45.9364C383.064 42.6795 389.578 26.3951 374.379 18.7955C359.179 11.1959 278.841 13.3675 263.642 14.4531Z" stroke="#F7941D" stroke-width="4" stroke-linecap="round"/>
<path d="M87.7668 60.0469C60.6254 62.942 5.90836 78.2859 4.17131 116.501C2.43426 146.031 2 159.927 2 163.184L136.621 169.698C137.345 148.347 146.609 106.296 177.876 108.901C209.143 111.507 209.722 150.518 206.103 169.698" stroke="#F7941D" stroke-width="4"/>
<path d="M87.7656 60.0485C109.117 62.2199 162.676 64.174 193.074 58.9629" stroke="#F7941D" stroke-width="4"/>
<path d="M206.102 168.611L367.865 161.011C369.312 142.193 378.721 104.557 404.777 104.557C430.833 104.557 436.623 133.508 436.261 147.983C438.794 147.259 444.512 145.161 447.118 142.555C450.375 139.298 448.203 112.157 443.861 99.1287C439.518 86.1009 446.032 65.4734 424.319 48.1029C402.606 30.7324 398.263 12.2762 363.522 9.01926C328.781 5.76229 284.269 2.50532 262.556 6.84794C245.185 10.322 208.273 43.0364 191.988 58.9592" stroke="#F7941D" stroke-width="4"/>
<path d="M200.845 151.245C200.845 170.397 188.684 185.071 174.618 185.071C160.551 185.071 148.391 170.397 148.391 151.245C148.391 132.092 160.551 117.418 174.618 117.418C188.684 117.418 200.845 132.092 200.845 151.245Z" stroke="#F7941D" stroke-width="4"/>
<path d="M422.322 145.816C422.322 153.82 419.887 160.988 416.045 166.111C412.203 171.233 407.048 174.215 401.523 174.215C395.998 174.215 390.844 171.233 387.002 166.111C383.16 160.988 380.725 153.82 380.725 145.816C380.725 137.813 383.16 130.644 387.002 125.521C390.844 120.399 395.998 117.418 401.523 117.418C407.048 117.418 412.203 120.399 416.045 125.521C419.887 130.644 422.322 137.813 422.322 145.816Z" stroke="#F7941D" stroke-width="4"/>
<path d="M13.9414 92.6166C32.7595 96.2354 132.278 118.672 190.903 60.0469" stroke="#F7941D" stroke-width="4" stroke-linecap="round"/>
<path d="M56.2815 120.847L19.3691 119.762V131.704L56.2815 132.79V120.847Z" stroke="#F7941D" stroke-width="4" stroke-linecap="round"/>
<path d="M86.6816 58.9608C101.157 46.2948 134.668 20.0943 152.907 16.6202C175.705 12.2776 238.674 12.2803 248.444 12.2803" stroke="#F7941D" stroke-width="4" stroke-linecap="round"/>
<path d="M152.906 15.5365C171.724 7.21318 224.56 -2.91938 312.498 4.68" stroke="#F7941D" stroke-width="4" stroke-linecap="round"/>
</svg>
