<svg width="261" height="260" viewBox="0 0 261 260" fill="none" xmlns="http://www.w3.org/2000/svg">
<path d="M239.233 141.72C239.233 168.03 228.486 191.747 211.255 208.793C194.394 225.654 171.048 235.845 145.294 235.845C119.724 235.845 96.3786 225.469 79.3324 208.793C62.101 191.747 51.3545 168.03 51.3545 141.72C51.3545 89.6552 93.414 47.5957 145.294 47.5957C197.173 47.5957 239.233 89.8405 239.233 141.72Z" fill="#CBD4E1"/>
<path d="M231.079 80.0214C235.275 80.0214 238.676 76.6203 238.676 72.4248C238.676 68.2293 235.275 64.8281 231.079 64.8281C226.884 64.8281 223.482 68.2293 223.482 72.4248C223.482 76.6203 226.884 80.0214 231.079 80.0214Z" fill="#CBD4E1"/>
<path d="M242.198 50.3759C245.063 50.3759 247.386 48.0532 247.386 45.188C247.386 42.3227 245.063 40 242.198 40C239.332 40 237.01 42.3227 237.01 45.188C237.01 48.0532 239.332 50.3759 242.198 50.3759Z" fill="#CBD4E1"/>
<path d="M54.3188 79.8369C57.184 79.8369 59.5068 77.5141 59.5068 74.6489C59.5068 71.7837 57.184 69.4609 54.3188 69.4609C51.4536 69.4609 49.1309 71.7837 49.1309 74.6489C49.1309 77.5141 51.4536 79.8369 54.3188 79.8369Z" fill="#CBD4E1"/>
<path d="M22.6348 179.889C27.9559 179.889 32.2696 175.575 32.2696 170.254C32.2696 164.933 27.9559 160.619 22.6348 160.619C17.3136 160.619 13 164.933 13 170.254C13 175.575 17.3136 179.889 22.6348 179.889Z" fill="#CBD4E1"/>
<path d="M212.235 98.5684L213.717 217.891C213.717 221.968 210.382 225.118 206.306 225.118H89.9475C85.8712 225.118 82.5361 221.782 82.5361 217.891V64.4761C82.5361 60.3998 85.8712 57.25 89.9475 57.25H174.252L212.235 98.5684Z" fill="#F1F4F9"/>
<path d="M143.123 82.2647H102.175C100.878 82.2647 99.7666 81.1529 99.7666 79.856C99.7666 78.559 100.878 77.4473 102.175 77.4473H143.123C144.42 77.4473 145.532 78.559 145.532 79.856C145.532 81.1529 144.42 82.2647 143.123 82.2647Z" fill="#D5DDEA"/>
<path d="M123.668 95.6045H102.175C100.878 95.6045 99.7666 94.4928 99.7666 93.1958C99.7666 91.8988 100.878 90.7871 102.175 90.7871H123.483C124.78 90.7871 125.892 91.8988 125.892 93.1958C125.892 94.4928 124.78 95.6045 123.668 95.6045Z" fill="#D5DDEA"/>
<path d="M174.252 57.25V90.2306C174.252 94.8627 178.328 98.5684 182.96 98.5684H212.235" fill="#D5DDEA"/>
<path d="M118.172 81.829L126.976 50.7754L163.137 54.9407L150.512 75.1781L160.291 82.991L139.237 129.041L140.41 93.3893L118.172 81.829Z" fill="#CBD4E1"/>
<path d="M123.376 179.849C122.598 179.849 121.975 179.538 121.352 179.071C120.263 177.981 120.263 176.113 121.352 175.023C128.513 168.019 138.008 164.127 148.126 164.127C158.244 164.127 167.74 168.019 174.9 175.023C175.99 176.113 175.99 177.981 174.9 179.071C173.811 180.16 171.943 180.16 170.853 179.071C164.782 173 156.688 169.731 148.126 169.731C139.565 169.731 131.47 173 125.4 179.071C124.777 179.538 124.154 179.849 123.376 179.849Z" fill="#64748B"/>
<path d="M133.183 138.132L136.919 134.396C138.008 133.306 138.008 131.438 136.919 130.348C135.829 129.259 133.961 129.259 132.871 130.348L129.136 134.084L125.4 130.348C124.31 129.259 122.442 129.259 121.352 130.348C120.263 131.438 120.263 133.306 121.352 134.396L125.088 138.132L121.352 141.868C120.263 142.957 120.263 144.825 121.352 145.915C121.975 146.537 122.598 146.693 123.376 146.693C124.154 146.693 124.777 146.382 125.4 145.915L129.136 142.179L132.871 145.915C133.494 146.537 134.117 146.693 134.895 146.693C135.673 146.693 136.296 146.382 136.919 145.915C138.008 144.825 138.008 142.957 136.919 141.868L133.183 138.132Z" fill="#64748B"/>
<path d="M171.009 138.132L174.745 134.396C175.834 133.306 175.834 131.438 174.745 130.348C173.655 129.259 171.787 129.259 170.698 130.348L166.962 134.084L163.226 130.348C162.136 129.259 160.268 129.259 159.179 130.348C158.089 131.438 158.089 133.306 159.179 134.396L162.914 138.132L159.179 141.868C158.089 142.957 158.089 144.825 159.179 145.915C159.801 146.537 160.424 146.693 161.202 146.693C161.98 146.693 162.603 146.382 163.226 145.915L166.962 142.179L170.698 145.915C171.32 146.537 171.943 146.693 172.721 146.693C173.499 146.693 174.122 146.382 174.745 145.915C175.834 144.825 175.834 142.957 174.745 141.868L171.009 138.132Z" fill="#64748B"/>
</svg>
