<svg width="17" height="16" viewBox="0 0 17 16" fill="none" xmlns="http://www.w3.org/2000/svg">
<path d="M8.49967 1.33398C4.82634 1.33398 1.83301 4.32732 1.83301 8.00065C1.83301 11.674 4.82634 14.6673 8.49967 14.6673C12.173 14.6673 15.1663 11.674 15.1663 8.00065C15.1663 4.32732 12.173 1.33398 8.49967 1.33398ZM7.99967 5.33398C7.99967 5.06065 8.22634 4.83398 8.49967 4.83398C8.77301 4.83398 8.99967 5.06065 8.99967 5.33398V8.66732C8.99967 8.94065 8.77301 9.16732 8.49967 9.16732C8.22634 9.16732 7.99967 8.94065 7.99967 8.66732V5.33398ZM9.11301 10.9207C9.07967 11.0073 9.03301 11.074 8.97301 11.1407C8.90634 11.2007 8.83301 11.2473 8.75301 11.2807C8.67301 11.314 8.58634 11.334 8.49967 11.334C8.41301 11.334 8.32634 11.314 8.24634 11.2807C8.16634 11.2473 8.09301 11.2007 8.02634 11.1407C7.96634 11.074 7.91967 11.0073 7.88634 10.9207C7.85301 10.8407 7.83301 10.754 7.83301 10.6673C7.83301 10.5807 7.85301 10.494 7.88634 10.414C7.91967 10.334 7.96634 10.2607 8.02634 10.194C8.09301 10.134 8.16634 10.0873 8.24634 10.054C8.40634 9.98732 8.59301 9.98732 8.75301 10.054C8.83301 10.0873 8.90634 10.134 8.97301 10.194C9.03301 10.2607 9.07967 10.334 9.11301 10.414C9.14634 10.494 9.16634 10.5807 9.16634 10.6673C9.16634 10.754 9.14634 10.8407 9.11301 10.9207Z" fill="#F68632"/>
</svg>
