<svg width="181" height="54" viewBox="0 0 181 54" fill="none" xmlns="http://www.w3.org/2000/svg">
<g clip-path="url(#clip0_3542_50369)">
<path d="M80.302 25.0025C79.6663 24.6739 79.1761 24.2133 78.83 23.6221C78.4839 23.0309 78.3115 22.3454 78.3115 21.5643V17.4325C78.3115 16.6528 78.4839 15.9659 78.83 15.3747C79.1761 14.7835 79.6663 14.327 80.302 14.0024C80.9376 13.6792 81.6743 13.5176 82.5093 13.5176C83.3443 13.5176 84.0648 13.6738 84.7004 13.9862C85.3361 14.2987 85.8263 14.7391 86.1724 15.3074C86.5172 15.8757 86.6909 16.5343 86.6909 17.2817C86.6909 17.3383 86.6707 17.3854 86.6316 17.4245C86.5926 17.4635 86.5454 17.4824 86.4889 17.4824L84.9496 17.5659C84.8162 17.5659 84.7489 17.5039 84.7489 17.3814C84.7489 16.7242 84.5455 16.1935 84.1388 15.7922C83.7321 15.3909 83.188 15.1902 82.5079 15.1902C81.8278 15.1902 81.2811 15.3909 80.869 15.7922C80.4569 16.1935 80.2495 16.7228 80.2495 17.3814V21.6465C80.2495 22.2929 80.4555 22.8168 80.869 23.2181C81.2811 23.6194 81.8278 23.8201 82.5079 23.8201C83.188 23.8201 83.7321 23.6221 84.1388 23.2262C84.5455 22.8302 84.7489 22.3037 84.7489 21.6451C84.7489 21.5226 84.8162 21.4606 84.9496 21.4606L86.4889 21.528C86.5441 21.528 86.5912 21.5441 86.6316 21.5778C86.6707 21.6114 86.6909 21.6505 86.6909 21.6949C86.6909 22.4532 86.5172 23.1198 86.1724 23.6935C85.8263 24.2686 85.3361 24.7116 84.7004 25.0227C84.0648 25.3352 83.3348 25.4914 82.5093 25.4914C81.6837 25.4914 80.9376 25.3271 80.302 24.9985V25.0025Z" fill="#0E4E96"/>
<path d="M93.633 17.0478C94.1676 17.2929 94.5811 17.631 94.8706 18.0592C95.1602 18.4888 95.3056 18.9763 95.3056 19.5231V25.1605C95.3056 25.2158 95.2854 25.2642 95.2477 25.3033C95.2087 25.3424 95.1615 25.3612 95.105 25.3612H93.5656C93.5091 25.3612 93.4619 25.3424 93.4229 25.3033C93.3838 25.2642 93.365 25.2171 93.365 25.1605V24.6259C93.365 24.5922 93.3542 24.5734 93.3313 24.568C93.3084 24.5626 93.2869 24.5707 93.264 24.5936C92.7172 25.1956 91.9253 25.4972 90.8883 25.4972C90.052 25.4972 89.3638 25.2858 88.8225 24.8616C88.2811 24.4373 88.0117 23.8084 88.0117 22.9721C88.0117 22.1358 88.3161 21.4247 88.9235 20.9399C89.5308 20.4551 90.3874 20.2126 91.4903 20.2126H93.2801C93.3354 20.2126 93.3636 20.1844 93.3636 20.1291V19.7278C93.3636 19.2928 93.2357 18.9561 92.9785 18.7164C92.7212 18.4767 92.3374 18.3568 91.8243 18.3568C91.4001 18.3568 91.0567 18.4323 90.7954 18.5831C90.5328 18.7339 90.3685 18.9427 90.3025 19.2107C90.2688 19.344 90.1907 19.4006 90.0682 19.3777L88.4454 19.177C88.3888 19.1662 88.3417 19.146 88.3026 19.1191C88.2636 19.0908 88.2487 19.0545 88.2609 19.01C88.3497 18.3299 88.7147 17.7724 89.3558 17.3374C89.9968 16.9024 90.8022 16.6855 91.7731 16.6855C92.4761 16.6855 93.0943 16.8081 93.6303 17.0532L93.633 17.0478ZM92.7805 23.5216C93.1711 23.232 93.3663 22.8644 93.3663 22.4172V21.6308C93.3663 21.5755 93.3381 21.5473 93.2828 21.5473H91.8782C91.287 21.5473 90.8224 21.659 90.4816 21.8812C90.1409 22.1048 89.9712 22.4226 89.9712 22.8347C89.9712 23.1916 90.1019 23.4677 90.3645 23.663C90.6257 23.8583 90.9638 23.9552 91.3759 23.9552C91.9226 23.9552 92.3899 23.8111 92.7805 23.5202V23.5216Z" fill="#0E4E96"/>
<path d="M102.164 16.9311C102.253 16.9755 102.286 17.059 102.263 17.1816L101.979 18.6872C101.968 18.8205 101.89 18.8596 101.745 18.8044C101.578 18.7491 101.383 18.7209 101.159 18.7209C101.014 18.7209 100.902 18.7263 100.825 18.737C100.356 18.7599 99.9659 18.9242 99.6534 19.2299C99.341 19.537 99.1848 19.9356 99.1848 20.4258V25.1596C99.1848 25.2148 99.1646 25.2633 99.1269 25.3024C99.0878 25.3414 99.0407 25.3603 98.9841 25.3603H97.4448C97.3896 25.3603 97.3425 25.3414 97.302 25.3024C97.263 25.2633 97.2441 25.2162 97.2441 25.1596V17.0132C97.2441 16.958 97.263 16.9109 97.302 16.8705C97.3411 16.8314 97.3882 16.8125 97.4448 16.8125H98.9841C99.0393 16.8125 99.0865 16.8327 99.1269 16.8705C99.1659 16.9095 99.1848 16.9566 99.1848 17.0132V17.766C99.1848 17.8105 99.1929 17.8361 99.2104 17.8415C99.2279 17.8468 99.2467 17.8334 99.2696 17.7997C99.7383 17.0752 100.39 16.7129 101.226 16.7129C101.583 16.7129 101.896 16.7856 102.162 16.9297L102.164 16.9311Z" fill="#0E4E96"/>
<path d="M103.786 15.3085C103.563 15.0863 103.452 14.8008 103.452 14.456C103.452 14.1112 103.564 13.8257 103.786 13.6035C104.008 13.38 104.294 13.2695 104.639 13.2695C104.983 13.2695 105.269 13.3813 105.491 13.6035C105.713 13.8271 105.825 14.1112 105.825 14.456C105.825 14.8008 105.713 15.0863 105.491 15.3085C105.268 15.532 104.983 15.6425 104.639 15.6425C104.294 15.6425 104.008 15.5307 103.786 15.3085ZM103.693 25.3026C103.654 25.2635 103.634 25.2164 103.634 25.1598V16.9973C103.634 16.9421 103.653 16.8949 103.693 16.8545C103.732 16.8155 103.779 16.7966 103.836 16.7966H105.375C105.43 16.7966 105.478 16.8168 105.518 16.8545C105.557 16.8936 105.576 16.9407 105.576 16.9973V25.1598C105.576 25.2151 105.556 25.2635 105.518 25.3026C105.479 25.3417 105.432 25.3605 105.375 25.3605H103.836C103.779 25.3605 103.732 25.3417 103.693 25.3026Z" fill="#0E4E96"/>
<path d="M114.065 17.4837C114.605 18.0183 114.875 18.7496 114.875 19.6748V25.1614C114.875 25.2166 114.855 25.2651 114.816 25.3042C114.777 25.3432 114.73 25.3621 114.673 25.3621H113.134C113.077 25.3621 113.03 25.3432 112.991 25.3042C112.952 25.2651 112.932 25.218 112.932 25.1614V20.0761C112.932 19.563 112.787 19.1482 112.497 18.8304C112.207 18.5126 111.822 18.3537 111.343 18.3537C110.863 18.3537 110.476 18.5099 110.181 18.8223C109.884 19.1348 109.738 19.5469 109.738 20.06V25.1614C109.738 25.2166 109.717 25.2651 109.68 25.3042C109.641 25.3432 109.593 25.3621 109.537 25.3621H107.998C107.942 25.3621 107.895 25.3432 107.855 25.3042C107.816 25.2651 107.797 25.218 107.797 25.1614V17.015C107.797 16.9598 107.816 16.9127 107.855 16.8723C107.894 16.8332 107.941 16.8144 107.998 16.8144H109.537C109.592 16.8144 109.639 16.8346 109.68 16.8723C109.719 16.9113 109.738 16.9585 109.738 17.015V17.5497C109.738 17.5833 109.748 17.6049 109.771 17.617C109.794 17.6278 109.81 17.617 109.821 17.5833C110.278 16.9814 110.97 16.6797 111.895 16.6797C112.82 16.6797 113.52 16.9477 114.062 17.4823L114.065 17.4837Z" fill="#0E4E96"/>
<path d="M122.194 16.8729C122.233 16.8338 122.28 16.815 122.337 16.815H123.876C123.931 16.815 123.978 16.8352 124.019 16.8729C124.058 16.9119 124.078 16.9591 124.078 17.0156V24.793C124.078 26.1869 123.679 27.1821 122.882 27.7787C122.085 28.3753 121.04 28.673 119.745 28.673C119.399 28.673 119.06 28.6568 118.725 28.6231C118.602 28.6124 118.54 28.5396 118.54 28.4063L118.59 27.034C118.59 26.9114 118.668 26.8495 118.824 26.8495C119.148 26.8831 119.437 26.8993 119.694 26.8993C120.531 26.8993 121.146 26.735 121.542 26.4064C121.938 26.0778 122.136 25.5229 122.136 24.7418V24.6085C122.136 24.5748 122.125 24.556 122.102 24.5506C122.079 24.5452 122.058 24.5533 122.035 24.5762C121.577 25.0664 120.931 25.3115 120.094 25.3115C119.37 25.3115 118.706 25.127 118.104 24.7593C117.502 24.3917 117.083 23.8288 116.849 23.0705C116.703 22.5467 116.632 21.872 116.632 21.0464C116.632 20.1212 116.721 19.4128 116.9 18.9226C117.122 18.2425 117.507 17.6984 118.054 17.2917C118.601 16.885 119.242 16.6816 119.977 16.6816C120.858 16.6816 121.543 16.9389 122.035 17.4506C122.058 17.4843 122.079 17.4951 122.102 17.4843C122.125 17.4735 122.136 17.4506 122.136 17.417V17.0156C122.136 16.9604 122.155 16.9133 122.194 16.8729ZM122.11 21.9743C122.128 21.779 122.136 21.4639 122.136 21.0289C122.136 20.5939 122.128 20.3017 122.11 20.1172C122.094 19.9327 122.058 19.7522 122.001 19.5731C121.912 19.2054 121.731 18.9091 121.457 18.6869C121.184 18.4634 120.835 18.3529 120.412 18.3529C120.011 18.3529 119.67 18.4647 119.391 18.6869C119.113 18.9105 118.912 19.2054 118.789 19.5731C118.656 19.8855 118.589 20.3757 118.589 21.0451C118.589 21.7144 118.644 22.2221 118.756 22.4995C118.867 22.8564 119.071 23.15 119.366 23.3776C119.661 23.6065 120.015 23.721 120.428 23.721C120.863 23.721 121.215 23.6092 121.481 23.387C121.749 23.1648 121.927 22.8739 122.017 22.517C122.062 22.35 122.093 22.1682 122.109 21.973L122.11 21.9743Z" fill="#0E4E96"/>
<path d="M136.921 21.0621C136.921 21.8539 136.815 22.5502 136.603 23.1522C136.358 23.8875 135.962 24.4626 135.416 24.8747C134.869 25.2868 134.199 25.4942 133.409 25.4942C132.618 25.4942 131.987 25.1992 131.486 24.608C131.463 24.5744 131.441 24.5636 131.418 24.5744C131.396 24.5851 131.385 24.608 131.385 24.6417V25.1602C131.385 25.2154 131.365 25.2639 131.325 25.3029C131.286 25.342 131.239 25.3608 131.183 25.3608H129.643C129.587 25.3608 129.54 25.342 129.501 25.3029C129.462 25.2639 129.441 25.2167 129.441 25.1602V13.853C129.441 13.7978 129.462 13.7507 129.501 13.7103C129.54 13.6712 129.587 13.6523 129.643 13.6523H131.183C131.238 13.6523 131.285 13.6725 131.325 13.7103C131.365 13.7493 131.385 13.7964 131.385 13.853V17.4825C131.385 17.5161 131.396 17.539 131.418 17.5498C131.44 17.5606 131.463 17.5552 131.486 17.5323C131.965 16.964 132.601 16.6798 133.393 16.6798C134.185 16.6798 134.901 16.8859 135.441 17.2993C135.982 17.7114 136.381 18.2865 136.637 19.0218C136.827 19.6467 136.921 20.3268 136.921 21.0621ZM134.931 21.0957C134.931 20.2257 134.764 19.5456 134.428 19.0554C134.127 18.5868 133.681 18.3524 133.09 18.3524C132.543 18.3524 132.125 18.5975 131.835 19.0878C131.556 19.5456 131.417 20.2082 131.417 21.0782C131.417 21.9482 131.545 22.5839 131.802 23.0189C132.092 23.5535 132.527 23.8215 133.107 23.8215C133.42 23.8215 133.698 23.7515 133.944 23.6128C134.189 23.4741 134.384 23.2761 134.529 23.0189C134.797 22.5502 134.931 21.9092 134.931 21.0957Z" fill="#0E4E96"/>
<path d="M145.987 21.062L145.971 21.5804C145.971 21.7138 145.904 21.7811 145.77 21.7811H140.534C140.479 21.7811 140.451 21.8094 140.451 21.8646C140.484 22.2323 140.534 22.4841 140.602 22.6174C140.87 23.4201 141.521 23.8281 142.558 23.8389C143.317 23.8389 143.919 23.5265 144.364 22.9016C144.409 22.8343 144.464 22.8006 144.531 22.8006C144.576 22.8006 144.615 22.8167 144.649 22.8504L145.686 23.7029C145.787 23.781 145.803 23.8699 145.735 23.9709C145.389 24.4611 144.93 24.8409 144.355 25.1089C143.781 25.3769 143.143 25.5102 142.44 25.5102C141.57 25.5102 140.832 25.3149 140.223 24.9244C139.616 24.5338 139.171 23.9871 138.894 23.2854C138.637 22.6834 138.509 21.8471 138.509 20.7765C138.509 20.13 138.576 19.6061 138.709 19.2048C138.932 18.4237 139.353 17.8083 139.973 17.3571C140.592 16.9059 141.336 16.6797 142.206 16.6797C144.402 16.6797 145.64 17.8285 145.919 20.126C145.963 20.4048 145.986 20.7172 145.986 21.0633L145.987 21.062ZM141.178 18.6621C140.905 18.8681 140.712 19.155 140.6 19.524C140.533 19.7139 140.488 19.959 140.467 20.2593C140.444 20.3159 140.467 20.3428 140.534 20.3428H143.929C143.985 20.3428 144.013 20.3145 144.013 20.2593C143.99 19.9805 143.956 19.7691 143.912 19.6236C143.812 19.2223 143.613 18.9099 143.318 18.6863C143.022 18.4628 142.651 18.3523 142.206 18.3523C141.792 18.3523 141.45 18.456 141.177 18.6621H141.178Z" fill="#0E4E96"/>
<path d="M147.142 28.632C147.119 28.5929 147.108 28.5458 147.108 28.4892V27.2852C147.108 27.23 147.127 27.1815 147.166 27.1425C147.205 27.1034 147.252 27.0846 147.309 27.0846H147.327C147.783 27.0738 148.14 27.0267 148.397 26.9418C148.653 26.8583 148.866 26.6994 149.033 26.4651C149.2 26.2307 149.351 25.8792 149.484 25.4106C149.495 25.3877 149.495 25.3554 149.484 25.3109L146.725 17.0312C146.714 17.0083 146.707 16.9814 146.707 16.9477C146.707 16.8481 146.762 16.7969 146.874 16.7969H148.513C148.636 16.7969 148.714 16.8534 148.747 16.9639L150.42 22.8518C150.431 22.8855 150.448 22.9016 150.47 22.9016C150.491 22.9016 150.509 22.8855 150.52 22.8518L152.192 16.9639C152.226 16.8521 152.304 16.7969 152.427 16.7969H154.016C154.083 16.7969 154.13 16.8171 154.158 16.8548C154.187 16.8938 154.189 16.9531 154.167 17.0299L151.223 25.8281C150.944 26.6199 150.67 27.2112 150.402 27.6004C150.134 27.9909 149.769 28.2697 149.308 28.4367C148.844 28.6037 148.19 28.6872 147.343 28.6872H147.226C147.192 28.6872 147.164 28.667 147.142 28.6293V28.632Z" fill="#0E4E96"/>
<path d="M156.483 24.8261C155.852 24.3803 155.409 23.7608 155.153 22.9689C154.963 22.3669 154.869 21.7313 154.869 21.062C154.869 20.3482 154.958 19.7125 155.137 19.155C155.394 18.3752 155.84 17.7665 156.476 17.3315C157.111 16.8965 157.875 16.6797 158.768 16.6797C159.661 16.6797 160.349 16.8965 160.967 17.3315C161.587 17.7665 162.023 18.3685 162.28 19.1375C162.481 19.6721 162.582 20.3078 162.582 21.0445C162.582 21.7811 162.488 22.3831 162.298 22.9514C162.04 23.7433 161.6 24.3641 160.977 24.8167C160.352 25.2678 159.611 25.4941 158.752 25.4941C157.893 25.4941 157.115 25.2705 156.485 24.8247L156.483 24.8261ZM159.812 23.4713C160.107 23.2369 160.322 22.9083 160.455 22.4841C160.567 22.1165 160.622 21.6478 160.622 21.0795C160.622 20.4775 160.567 20.0088 160.455 19.6748C160.333 19.2506 160.121 18.9247 159.82 18.6957C159.518 18.4668 159.15 18.3523 158.715 18.3523C158.28 18.3523 157.946 18.4668 157.645 18.6957C157.343 18.9247 157.126 19.2506 156.993 19.6748C156.881 20.0654 156.826 20.534 156.826 21.0795C156.826 21.6249 156.881 22.0949 156.993 22.4841C157.115 22.9083 157.33 23.2369 157.637 23.4713C157.944 23.7056 158.314 23.8228 158.749 23.8228C159.184 23.8228 159.515 23.7056 159.812 23.4713Z" fill="#0E4E96"/>
<path d="M170.684 17.4837C171.224 18.0183 171.494 18.7496 171.494 19.6748V25.1614C171.494 25.2166 171.474 25.2651 171.435 25.3042C171.396 25.3432 171.349 25.3621 171.292 25.3621H169.753C169.697 25.3621 169.649 25.3432 169.61 25.3042C169.571 25.2651 169.551 25.218 169.551 25.1614V20.0761C169.551 19.563 169.406 19.1482 169.116 18.8304C168.827 18.5126 168.441 18.3537 167.962 18.3537C167.483 18.3537 167.095 18.5099 166.8 18.8223C166.503 19.1348 166.357 19.5469 166.357 20.06V25.1614C166.357 25.2166 166.336 25.2651 166.299 25.3042C166.26 25.3432 166.213 25.3621 166.156 25.3621H164.617C164.561 25.3621 164.514 25.3432 164.474 25.3042C164.435 25.2651 164.416 25.218 164.416 25.1614V17.015C164.416 16.9598 164.435 16.9127 164.474 16.8723C164.513 16.8332 164.56 16.8144 164.617 16.8144H166.156C166.211 16.8144 166.258 16.8346 166.299 16.8723C166.338 16.9113 166.357 16.9585 166.357 17.015V17.5497C166.357 17.5833 166.367 17.6049 166.39 17.617C166.413 17.6278 166.429 17.617 166.44 17.5833C166.897 16.9814 167.589 16.6797 168.514 16.6797C169.439 16.6797 170.14 16.9477 170.681 17.4823L170.684 17.4837Z" fill="#0E4E96"/>
<path d="M178.813 13.7103C178.852 13.6712 178.899 13.6523 178.956 13.6523H180.495C180.55 13.6523 180.597 13.6725 180.638 13.7103C180.677 13.7493 180.696 13.7964 180.696 13.853V25.1602C180.696 25.2154 180.675 25.2639 180.638 25.3029C180.599 25.342 180.552 25.3608 180.495 25.3608H178.956C178.9 25.3608 178.852 25.342 178.813 25.3029C178.774 25.2639 178.755 25.2167 178.755 25.1602V24.6578C178.755 24.6242 178.744 24.6026 178.721 24.5905C178.698 24.5797 178.677 24.5905 178.654 24.6242C178.164 25.2046 177.523 25.4942 176.731 25.4942C175.939 25.4942 175.27 25.2881 174.723 24.8747C174.176 24.4626 173.78 23.8875 173.535 23.1522C173.334 22.5273 173.233 21.8311 173.233 21.0621C173.233 20.2931 173.328 19.5901 173.518 19.0218C173.763 18.2865 174.159 17.7114 174.705 17.2993C175.252 16.8872 175.938 16.6798 176.763 16.6798C177.532 16.6798 178.162 16.9586 178.653 17.5161C178.676 17.539 178.697 17.5471 178.72 17.5417C178.742 17.5363 178.754 17.5161 178.754 17.4838V13.8544C178.754 13.7991 178.773 13.752 178.812 13.7116L178.813 13.7103ZM178.737 21.0782C178.737 20.2082 178.597 19.5456 178.32 19.0878C178.018 18.5975 177.595 18.3524 177.049 18.3524C176.502 18.3524 176.033 18.5868 175.71 19.0554C175.376 19.5456 175.208 20.2257 175.208 21.0957C175.208 21.8768 175.341 22.5179 175.609 23.0189C175.921 23.5535 176.396 23.8215 177.031 23.8215C177.6 23.8215 178.04 23.5535 178.352 23.0189C178.608 22.5623 178.737 21.9146 178.737 21.0782Z" fill="#0E4E96"/>
<path d="M78.6546 41.717C78.6155 41.6779 78.5967 41.6308 78.5967 41.5742V30.2671C78.5967 30.2119 78.6155 30.1647 78.6546 30.1243C78.6936 30.0853 78.7408 30.0664 78.7973 30.0664H80.3367C80.3919 30.0664 80.439 30.0866 80.4794 30.1243C80.5185 30.1634 80.5373 30.2105 80.5373 30.2671V41.5742C80.5373 41.6295 80.5171 41.6779 80.4794 41.717C80.4404 41.7561 80.3932 41.7749 80.3367 41.7749H78.7973C78.7421 41.7749 78.695 41.7561 78.6546 41.717Z" fill="#0E4E96"/>
<path d="M89.0587 33.8978C89.5988 34.4324 89.8694 35.1637 89.8694 36.0889V41.5755C89.8694 41.6307 89.8492 41.6792 89.8102 41.7182C89.7711 41.7573 89.724 41.7761 89.6674 41.7761H88.1281C88.0716 41.7761 88.0244 41.7573 87.9854 41.7182C87.9463 41.6792 87.9261 41.632 87.9261 41.5755V36.4902C87.9261 35.9771 87.7807 35.5623 87.4911 35.2445C87.2016 34.9267 86.8164 34.7677 86.337 34.7677C85.8575 34.7677 85.4697 34.924 85.1747 35.2364C84.8785 35.5488 84.7317 35.9609 84.7317 36.4741V41.5755C84.7317 41.6307 84.7115 41.6792 84.6738 41.7182C84.6347 41.7573 84.5876 41.7761 84.531 41.7761H82.9917C82.9365 41.7761 82.8893 41.7573 82.8489 41.7182C82.8099 41.6792 82.791 41.632 82.791 41.5755V33.4291C82.791 33.3739 82.8099 33.3267 82.8489 33.2863C82.888 33.2473 82.9351 33.2284 82.9917 33.2284H84.531C84.5862 33.2284 84.6334 33.2486 84.6738 33.2863C84.7128 33.3254 84.7317 33.3725 84.7317 33.4291V33.9637C84.7317 33.9974 84.7424 34.019 84.7653 34.0311C84.7882 34.0419 84.8044 34.0311 84.8152 33.9974C85.2717 33.3954 85.9639 33.0938 86.8891 33.0938C87.8143 33.0938 88.5146 33.3618 89.056 33.8964L89.0587 33.8978Z" fill="#0E4E96"/>
<path d="M93.2241 41.5662C92.6935 41.3601 92.2841 41.076 91.9946 40.7137C91.705 40.3514 91.5596 39.9474 91.5596 39.5017V39.3508C91.5596 39.2956 91.5784 39.2485 91.6175 39.2081C91.6565 39.169 91.7037 39.1502 91.7602 39.1502H93.2322C93.2874 39.1502 93.3346 39.1704 93.375 39.2081C93.414 39.2471 93.4329 39.2943 93.4329 39.3508V39.3845C93.4329 39.6633 93.5864 39.9057 93.8935 40.1117C94.2005 40.3178 94.587 40.4215 95.0557 40.4215C95.5243 40.4215 95.8637 40.3299 96.1425 40.1454C96.4213 39.9609 96.5613 39.7306 96.5613 39.4505C96.5613 39.1946 96.4469 39.002 96.2179 38.8741C95.989 38.7461 95.6186 38.6088 95.1055 38.4647L94.4699 38.264C93.9015 38.097 93.4221 37.9179 93.0315 37.7293C92.641 37.5395 92.3124 37.2809 92.0444 36.9509C91.7764 36.6223 91.6431 36.2008 91.6431 35.6877C91.6431 34.9079 91.9501 34.2857 92.5629 33.8225C93.1756 33.3605 93.985 33.1289 94.9883 33.1289C95.6684 33.1289 96.2651 33.238 96.7782 33.4548C97.2913 33.6716 97.6872 33.9733 97.966 34.3585C98.2447 34.7436 98.3835 35.1813 98.3835 35.6715C98.3835 35.7268 98.3633 35.7752 98.3256 35.8143C98.2865 35.8533 98.2394 35.8722 98.1828 35.8722H96.7607C96.7041 35.8722 96.657 35.8533 96.6179 35.8143C96.5788 35.7752 96.56 35.7281 96.56 35.6715C96.56 35.382 96.4172 35.1396 96.1331 34.9443C95.8489 34.749 95.4611 34.6521 94.9708 34.6521C94.5358 34.6521 94.1817 34.7329 93.9083 34.8945C93.6349 35.0561 93.4989 35.2823 93.4989 35.5719C93.4989 35.8399 93.6295 36.0432 93.8921 36.182C94.1534 36.322 94.5911 36.4742 95.2052 36.6425L95.5728 36.7435C96.164 36.9213 96.6596 37.1031 97.061 37.2876C97.4623 37.4721 97.803 37.728 98.0818 38.0566C98.3606 38.3852 98.4993 38.8121 98.4993 39.336C98.4993 40.1279 98.1868 40.7487 97.5633 41.2012C96.9384 41.6524 96.1075 41.8786 95.0705 41.8786C94.3688 41.8786 93.752 41.7763 93.2228 41.5689L93.2241 41.5662Z" fill="#0E4E96"/>
<path d="M105.25 33.2864C105.289 33.2474 105.336 33.2285 105.393 33.2285H106.914C106.97 33.2285 107.017 33.2487 107.057 33.2864C107.096 33.3255 107.115 33.3726 107.115 33.4292V41.5756C107.115 41.6308 107.095 41.6793 107.057 41.7183C107.018 41.7574 106.971 41.7762 106.914 41.7762H105.393C105.336 41.7762 105.289 41.7574 105.25 41.7183C105.211 41.6793 105.192 41.6321 105.192 41.5756V41.0409C105.192 41.0072 105.181 40.9857 105.158 40.9736C105.135 40.9628 105.114 40.9736 105.091 41.0072C104.633 41.5985 103.948 41.8934 103.033 41.8934C102.186 41.8934 101.475 41.6483 100.9 41.1581C100.325 40.6679 100.038 39.9703 100.038 39.0666V33.4292C100.038 33.374 100.057 33.3268 100.096 33.2864C100.135 33.2474 100.182 33.2285 100.239 33.2285H101.778C101.833 33.2285 101.88 33.2487 101.921 33.2864C101.96 33.3255 101.98 33.3726 101.98 33.4292V38.5144C101.98 39.0383 102.116 39.4572 102.389 39.7696C102.663 40.082 103.044 40.2383 103.536 40.2383C104.027 40.2383 104.439 40.082 104.74 39.7696C105.041 39.4572 105.191 39.0397 105.191 38.5144V33.4292C105.191 33.374 105.21 33.3268 105.249 33.2864H105.25Z" fill="#0E4E96"/>
<path d="M114.106 33.3451C114.195 33.3896 114.229 33.4731 114.206 33.5956L113.922 35.1013C113.911 35.2346 113.833 35.2736 113.687 35.2184C113.52 35.1632 113.325 35.1349 113.101 35.1349C112.956 35.1349 112.844 35.1403 112.767 35.1511C112.299 35.174 111.908 35.3383 111.596 35.644C111.283 35.9511 111.127 36.3497 111.127 36.8399V41.5737C111.127 41.6289 111.107 41.6774 111.069 41.7164C111.03 41.7555 110.983 41.7743 110.927 41.7743H109.387C109.332 41.7743 109.285 41.7555 109.244 41.7164C109.205 41.6774 109.187 41.6302 109.187 41.5737V33.4273C109.187 33.3721 109.205 33.3249 109.244 33.2845C109.283 33.2455 109.331 33.2266 109.387 33.2266H110.927C110.982 33.2266 111.029 33.2468 111.069 33.2845C111.108 33.3236 111.127 33.3707 111.127 33.4273V34.1801C111.127 34.2245 111.135 34.2501 111.153 34.2555C111.17 34.2609 111.189 34.2474 111.212 34.2138C111.681 33.4892 112.332 33.127 113.169 33.127C113.526 33.127 113.838 33.1997 114.105 33.3438L114.106 33.3451Z" fill="#0E4E96"/>
<path d="M120.513 33.4619C121.048 33.707 121.461 34.045 121.751 34.4733C122.04 34.9029 122.186 35.3904 122.186 35.9372V41.5746C122.186 41.6298 122.165 41.6783 122.128 41.7174C122.089 41.7564 122.041 41.7753 121.985 41.7753H120.446C120.389 41.7753 120.342 41.7564 120.303 41.7174C120.264 41.6783 120.245 41.6312 120.245 41.5746V41.04C120.245 41.0063 120.234 40.9874 120.211 40.982C120.188 40.9767 120.167 40.9847 120.144 41.0076C119.597 41.6096 118.805 41.9113 117.768 41.9113C116.932 41.9113 116.244 41.6999 115.702 41.2756C115.161 40.8514 114.892 40.2225 114.892 39.3862C114.892 38.5498 115.196 37.8388 115.803 37.3539C116.411 36.8691 117.267 36.6267 118.37 36.6267H120.16C120.215 36.6267 120.244 36.5984 120.244 36.5432V36.1419C120.244 35.7069 120.116 35.3702 119.858 35.1305C119.601 34.8908 119.217 34.7709 118.704 34.7709C118.28 34.7709 117.937 34.8463 117.675 34.9972C117.413 35.148 117.248 35.3567 117.182 35.6247C117.149 35.7581 117.071 35.8146 116.948 35.7917L115.325 35.5911C115.269 35.5803 115.222 35.5601 115.182 35.5332C115.143 35.5049 115.129 35.4685 115.141 35.4241C115.23 34.744 115.595 34.1864 116.236 33.7514C116.877 33.3164 117.682 33.0996 118.653 33.0996C119.356 33.0996 119.974 33.2222 120.51 33.4673L120.513 33.4619ZM119.66 39.9356C120.051 39.6461 120.246 39.2784 120.246 38.8313V38.0448C120.246 37.9896 120.218 37.9613 120.163 37.9613H118.758C118.167 37.9613 117.702 38.0731 117.362 38.2953C117.021 38.5189 116.851 38.8367 116.851 39.2488C116.851 39.6057 116.982 39.8818 117.244 40.077C117.506 40.2723 117.844 40.3693 118.256 40.3693C118.803 40.3693 119.27 40.2252 119.66 39.9343V39.9356Z" fill="#0E4E96"/>
<path d="M130.39 33.8978C130.93 34.4324 131.2 35.1637 131.2 36.0889V41.5755C131.2 41.6307 131.18 41.6792 131.141 41.7182C131.102 41.7573 131.055 41.7761 130.998 41.7761H129.459C129.403 41.7761 129.355 41.7573 129.316 41.7182C129.277 41.6792 129.257 41.632 129.257 41.5755V36.4902C129.257 35.9771 129.112 35.5623 128.822 35.2445C128.533 34.9267 128.147 34.7677 127.668 34.7677C127.189 34.7677 126.801 34.924 126.506 35.2364C126.21 35.5488 126.063 35.9609 126.063 36.4741V41.5755C126.063 41.6307 126.043 41.6792 126.005 41.7182C125.966 41.7573 125.919 41.7761 125.862 41.7761H124.323C124.268 41.7761 124.22 41.7573 124.18 41.7182C124.141 41.6792 124.122 41.632 124.122 41.5755V33.4291C124.122 33.3739 124.141 33.3267 124.18 33.2863C124.219 33.2473 124.266 33.2284 124.323 33.2284H125.862C125.917 33.2284 125.964 33.2486 126.005 33.2863C126.044 33.3254 126.063 33.3725 126.063 33.4291V33.9637C126.063 33.9974 126.073 34.019 126.096 34.0311C126.119 34.0419 126.135 34.0311 126.146 33.9974C126.603 33.3954 127.295 33.0938 128.22 33.0938C129.145 33.0938 129.846 33.3618 130.387 33.8964L130.39 33.8978Z" fill="#0E4E96"/>
<path d="M134.496 41.2482C133.871 40.8078 133.436 40.2139 133.191 39.4665C133.012 38.9642 132.923 38.2962 132.923 37.4599C132.923 36.6235 133.012 35.9987 133.191 35.4855C133.425 34.7502 133.857 34.1671 134.488 33.7375C135.118 33.3079 135.861 33.0938 136.721 33.0938C137.58 33.0938 138.349 33.3106 138.995 33.7456C139.642 34.1806 140.071 34.7273 140.283 35.3845C140.338 35.5637 140.377 35.7414 140.4 35.9192V35.9529C140.4 36.0646 140.338 36.132 140.215 36.1535L138.71 36.3717H138.676C138.576 36.3717 138.509 36.3165 138.475 36.2047C138.475 36.1495 138.47 36.1037 138.459 36.0714C138.436 35.9825 138.415 35.9044 138.392 35.837C138.291 35.5246 138.09 35.2687 137.79 35.0681C137.488 34.8674 137.131 34.7664 136.719 34.7664C136.307 34.7664 135.935 34.8755 135.641 35.0923C135.346 35.3091 135.148 35.6081 135.047 35.9879C134.935 36.3448 134.88 36.8404 134.88 37.476C134.88 38.1117 134.929 38.5857 135.03 38.9642C135.142 39.3547 135.343 39.6645 135.632 39.8921C135.922 40.121 136.284 40.2355 136.719 40.2355C137.154 40.2355 137.508 40.1264 137.814 39.9096C138.121 39.6927 138.319 39.3992 138.408 39.0315C138.419 39.01 138.426 38.9817 138.426 38.948C138.436 38.9372 138.442 38.9197 138.442 38.8982C138.475 38.7648 138.554 38.7083 138.676 38.7312L140.182 38.9655C140.237 38.9763 140.284 39.0019 140.325 39.0409C140.364 39.08 140.377 39.1325 140.366 39.1998C140.333 39.379 140.304 39.5069 140.283 39.585C140.071 40.2988 139.642 40.8644 138.995 41.2832C138.349 41.7007 137.591 41.9108 136.721 41.9108C135.851 41.9108 135.121 41.6913 134.496 41.2496V41.2482Z" fill="#0E4E96"/>
<path d="M149.231 37.476L149.215 37.9945C149.215 38.1278 149.148 38.1952 149.015 38.1952H143.778C143.723 38.1952 143.695 38.2235 143.695 38.2787C143.729 38.6463 143.778 38.8982 143.846 39.0315C144.114 39.8342 144.766 40.2422 145.803 40.253C146.561 40.253 147.163 39.9405 147.609 39.3157C147.653 39.2483 147.708 39.2147 147.776 39.2147C147.82 39.2147 147.859 39.2308 147.893 39.2645L148.93 40.117C149.031 40.1951 149.047 40.284 148.98 40.385C148.633 40.8752 148.174 41.255 147.599 41.523C147.025 41.791 146.387 41.9243 145.684 41.9243C144.814 41.9243 144.076 41.729 143.467 41.3385C142.86 40.9479 142.416 40.4011 142.138 39.6995C141.881 39.0975 141.753 38.2612 141.753 37.1905C141.753 36.5441 141.82 36.0202 141.954 35.6189C142.176 34.8378 142.597 34.2223 143.217 33.7712C143.836 33.32 144.58 33.0938 145.45 33.0938C147.646 33.0938 148.884 34.2425 149.163 36.54C149.207 36.8188 149.23 37.1313 149.23 37.4774L149.231 37.476ZM144.423 35.0761C144.15 35.2822 143.958 35.569 143.846 35.9381C143.778 36.1279 143.734 36.373 143.712 36.6734C143.69 36.7299 143.712 36.7569 143.78 36.7569H147.175C147.23 36.7569 147.258 36.7286 147.258 36.6734C147.235 36.3946 147.202 36.1832 147.157 36.0377C147.058 35.6364 146.858 35.3239 146.563 35.1004C146.267 34.8768 145.897 34.7664 145.451 34.7664C145.038 34.7664 144.696 34.8701 144.422 35.0761H144.423Z" fill="#0E4E96"/>
<path d="M69.065 13.5938H68.4482V41.9627H69.065V13.5938Z" fill="#0E4E96"/>
<path d="M33.107 13.5297H37.0542V9.85855C37.0542 9.39527 37.43 9.01953 37.8933 9.01953H42.7253C43.1886 9.01953 43.5643 9.39527 43.5643 9.85855V13.5297H48.422C48.8853 13.5297 49.261 13.9055 49.261 14.3688V18.7968C49.261 19.2601 48.8853 19.6358 48.422 19.6358H43.5643V30.2252C43.5643 31.4386 43.6276 32.4204 43.7556 33.1692C43.8822 33.9193 44.1461 34.4943 44.5461 34.893C44.9447 35.2929 45.5198 35.5556 46.2699 35.6835C46.8531 35.7832 47.7177 35.8438 48.659 35.8653C49.1142 35.8761 49.4765 36.2491 49.4765 36.7043V41.1149C49.4765 41.5782 49.1008 41.9539 48.6375 41.9539H48.352C46.181 41.9539 44.3697 41.7627 42.9179 41.3788C41.4648 40.9964 40.3093 40.3499 39.4474 39.4395C38.5855 38.5305 37.9714 37.3333 37.6037 35.8492C37.236 34.3651 37.0529 32.5066 37.0529 30.2723V19.6358H33.1056C32.6423 19.6358 32.2666 19.2601 32.2666 18.7968V14.3688C32.2666 13.9055 32.6423 13.5297 33.1056 13.5297H33.107Z" fill="#095091"/>
<path d="M53.6974 13.5234H58.5295C58.9928 13.5234 59.3685 13.9046 59.3685 14.3759V41.1072C59.3685 41.5772 58.9928 41.9597 58.5295 41.9597H53.6974C53.2341 41.9597 52.8584 41.5786 52.8584 41.1072V14.3759C52.8584 13.9059 53.2341 13.5234 53.6974 13.5234Z" fill="#095091"/>
<path d="M40.8727 3.9567C48.0333 3.9567 54.5447 6.73636 59.3889 11.2735C55.7904 4.75262 48.848 0.333984 40.8727 0.333984C32.8973 0.333984 25.9549 4.75262 22.3564 11.2735C27.2006 6.73636 33.7121 3.9567 40.8727 3.9567Z" fill="#EE8022"/>
<path d="M15.8542 32.5385C18.3712 32.5385 20.4116 30.4981 20.4116 27.9812C20.4116 25.4642 18.3712 23.4238 15.8542 23.4238C13.3373 23.4238 11.2969 25.4642 11.2969 27.9812C11.2969 30.4981 13.3373 32.5385 15.8542 32.5385Z" fill="#EE8022"/>
<path d="M27.0522 17.1372C29.8049 20.0624 31.1813 23.6177 31.1813 27.8613C31.1813 32.1048 29.8049 35.7181 27.0522 38.6419C24.3574 41.567 21.0309 42.9999 17.1887 42.9999C13.3465 42.9999 10.078 41.6236 7.89895 38.8143V52.827C7.89895 53.2903 7.52321 53.666 7.05994 53.666H1.33901C0.875739 53.666 0.5 53.2903 0.5 52.827V14.3643C0.5 13.901 0.875739 13.5253 1.33901 13.5253H7.05859C7.52187 13.5253 7.8976 13.901 7.8976 14.3643V16.9083C10.0766 14.0977 13.1741 12.7227 17.1874 12.7227C21.2006 12.7227 24.356 14.2135 27.0508 17.1386L27.0522 17.1372ZM15.811 35.9471C18.1058 35.9471 19.998 35.201 21.4888 33.7101C23.0376 32.1614 23.7823 30.2127 23.7823 27.8613C23.7823 25.5099 23.0376 23.5598 21.4888 22.069C19.998 20.5202 18.1058 19.7755 15.811 19.7755C13.5162 19.7755 11.6254 20.5216 10.1345 22.069C8.6437 23.5598 7.8976 25.5099 7.8976 27.8613C7.8976 30.2127 8.6437 32.1628 10.1345 33.7101C11.6254 35.201 13.5175 35.9471 15.811 35.9471Z" fill="#095091"/>
</g>
<defs>
<clipPath id="clip0_3542_50369">
<rect width="180.196" height="53.3333" fill="white" transform="translate(0.5 0.333984)"/>
</clipPath>
</defs>
</svg>
