<svg width="65" height="60" viewBox="0 0 65 60" fill="none" xmlns="http://www.w3.org/2000/svg">
<g id="logo PTI" clip-path="url(#clip0_6594_40008)">
<path id="Vector" d="M17.095 44.9951H15.9385V50.882H17.095V44.9951Z" fill="#F38020"/>
<g id="Group">
<g id="Clip path group">
<mask id="mask0_6594_40008" style="mask-type:luminance" maskUnits="userSpaceOnUse" x="0" y="0" width="65" height="60">
<g id="SVGID_2_">
<path id="Vector_2" d="M65 0H0V60H65V0Z" fill="white"/>
</g>
</mask>
<g mask="url(#mask0_6594_40008)">
<path id="Vector_3" d="M21.5584 46.952C21.8656 47.2571 22.0102 47.6699 22.0102 48.2084V50.8826H20.926V48.3519C20.926 47.7956 20.6007 47.4904 20.0947 47.4904C19.5345 47.4904 19.1731 47.8314 19.1731 48.5135V50.8826H18.0889V46.611H19.1731V47.0776C19.4261 46.6828 19.8417 46.5033 20.42 46.5033C20.8898 46.4854 21.2693 46.6469 21.5584 46.952Z" fill="#F38020"/>
</g>
</g>
<g id="Clip path group_2">
<mask id="mask1_6594_40008" style="mask-type:luminance" maskUnits="userSpaceOnUse" x="0" y="0" width="65" height="60">
<g id="SVGID_2__2">
<path id="Vector_4" d="M65 0H0V60H65V0Z" fill="white"/>
</g>
</mask>
<g mask="url(#mask1_6594_40008)">
<path id="Vector_5" d="M24.6846 48.2439C25.299 48.3695 26.0941 48.6567 26.076 49.5541C26.076 49.9848 25.9134 50.3079 25.5881 50.5412C25.2628 50.7566 24.8653 50.8822 24.3954 50.8822C23.528 50.8822 22.9498 50.5592 22.6426 49.8951L23.5822 49.3746C23.7087 49.7336 23.9798 49.913 24.3954 49.913C24.7749 49.913 24.9737 49.8054 24.9737 49.5541C24.9737 49.3387 24.6484 49.2131 24.2147 49.1054C23.6003 48.9439 22.8233 48.6926 22.8233 47.8311C22.8233 47.4183 22.9678 47.0952 23.275 46.8619C23.5822 46.6286 23.9617 46.5029 24.4135 46.5029C25.0821 46.5029 25.6784 46.826 26.0037 47.3824L25.0821 47.8849C24.9556 47.5978 24.7207 47.4542 24.4135 47.4542C24.1424 47.4542 23.9256 47.5798 23.9256 47.7952C23.9256 48.0106 24.2689 48.1362 24.6846 48.2439Z" fill="#F38020"/>
</g>
</g>
<g id="Clip path group_3">
<mask id="mask2_6594_40008" style="mask-type:luminance" maskUnits="userSpaceOnUse" x="0" y="0" width="65" height="60">
<g id="SVGID_2__3">
<path id="Vector_6" d="M65 0H0V60H65V0Z" fill="white"/>
</g>
</mask>
<g mask="url(#mask2_6594_40008)">
<path id="Vector_7" d="M29.527 46.6104H30.6113V50.882H29.527V50.2897C29.274 50.6845 28.8584 50.864 28.2802 50.864C27.8284 50.864 27.4489 50.7204 27.1417 50.4153C26.8526 50.1102 26.708 49.6974 26.708 49.159V46.6104H27.7922V49.0154C27.7922 49.5718 28.1175 49.8769 28.6235 49.8769C29.1837 49.8769 29.5451 49.5359 29.5451 48.8538V46.6104H29.527Z" fill="#F38020"/>
</g>
</g>
<g id="Clip path group_4">
<mask id="mask3_6594_40008" style="mask-type:luminance" maskUnits="userSpaceOnUse" x="0" y="0" width="65" height="60">
<g id="SVGID_2__4">
<path id="Vector_8" d="M65 0H0V60H65V0Z" fill="white"/>
</g>
</mask>
<g mask="url(#mask3_6594_40008)">
<path id="Vector_9" d="M32.6721 47.3288C32.8709 46.7903 33.3769 46.5391 33.9371 46.5391V47.7416C33.6118 47.7057 33.3046 47.7595 33.0516 47.939C32.7986 48.1185 32.6721 48.3877 32.6721 48.8005V50.9004H31.5879V46.6288H32.6721V47.3288Z" fill="#F38020"/>
</g>
</g>
<g id="Clip path group_5">
<mask id="mask4_6594_40008" style="mask-type:luminance" maskUnits="userSpaceOnUse" x="0" y="0" width="65" height="60">
<g id="SVGID_2__5">
<path id="Vector_10" d="M65 0H0V60H65V0Z" fill="white"/>
</g>
</mask>
<g mask="url(#mask4_6594_40008)">
<path id="Vector_11" d="M37.5687 46.6106H38.6529V50.8822H37.5687V50.272C37.2434 50.6848 36.7916 50.8822 36.2134 50.8822C35.6532 50.8822 35.1833 50.6669 34.7858 50.254C34.3882 49.8233 34.1895 49.3028 34.1895 48.6926C34.1895 48.0823 34.3882 47.5619 34.7858 47.1491C35.1833 46.7183 35.6532 46.5029 36.2134 46.5029C36.7916 46.5029 37.2434 46.7004 37.5687 47.1132V46.6106ZM36.4121 49.8592C36.7374 49.8592 37.0265 49.7515 37.2434 49.5361C37.4602 49.3208 37.5687 49.0336 37.5687 48.6926C37.5687 48.3516 37.4602 48.0644 37.2434 47.849C37.0265 47.6337 36.7555 47.526 36.4121 47.526C36.0869 47.526 35.7977 47.6337 35.5809 47.849C35.364 48.0644 35.2556 48.3516 35.2556 48.6926C35.2556 49.0336 35.364 49.3208 35.5809 49.5361C35.8158 49.7515 36.0869 49.8592 36.4121 49.8592Z" fill="#F38020"/>
</g>
</g>
<g id="Clip path group_6">
<mask id="mask5_6594_40008" style="mask-type:luminance" maskUnits="userSpaceOnUse" x="0" y="0" width="65" height="60">
<g id="SVGID_2__6">
<path id="Vector_12" d="M65 0H0V60H65V0Z" fill="white"/>
</g>
</mask>
<g mask="url(#mask5_6594_40008)">
<path id="Vector_13" d="M43.0799 46.952C43.3871 47.2571 43.5317 47.6699 43.5317 48.2084V50.8826H42.4474V48.3519C42.4474 47.7956 42.1222 47.4904 41.6162 47.4904C41.056 47.4904 40.6946 47.8314 40.6946 48.5135V50.8826H39.6104V46.611H40.6946V47.0776C40.9476 46.6828 41.3632 46.5033 41.9415 46.5033C42.4113 46.4854 42.7908 46.6469 43.0799 46.952Z" fill="#F38020"/>
</g>
</g>
<g id="Clip path group_7">
<mask id="mask6_6594_40008" style="mask-type:luminance" maskUnits="userSpaceOnUse" x="0" y="0" width="65" height="60">
<g id="SVGID_2__7">
<path id="Vector_14" d="M65 0H0V60H65V0Z" fill="white"/>
</g>
</mask>
<g mask="url(#mask6_6594_40008)">
<path id="Vector_15" d="M44.8512 50.2365C44.4356 49.8057 44.2188 49.3032 44.2188 48.675C44.2188 48.0468 44.4356 47.5443 44.8512 47.1135C45.2849 46.6828 45.809 46.4854 46.4234 46.4854C47.2365 46.4854 47.9594 46.8982 48.2846 47.5622L47.363 48.1007C47.2004 47.7597 46.839 47.5443 46.4053 47.5443C45.7548 47.5443 45.2849 48.0109 45.2849 48.675C45.2849 48.9981 45.3933 49.2673 45.6102 49.4827C45.827 49.698 46.08 49.8057 46.4053 49.8057C46.839 49.8057 47.2004 49.5903 47.363 49.2673L48.3027 49.8057C47.9413 50.4698 47.2185 50.8826 46.4234 50.8826C45.809 50.8647 45.2849 50.6672 44.8512 50.2365Z" fill="#F38020"/>
</g>
</g>
<g id="Clip path group_8">
<mask id="mask7_6594_40008" style="mask-type:luminance" maskUnits="userSpaceOnUse" x="0" y="0" width="65" height="60">
<g id="SVGID_2__8">
<path id="Vector_16" d="M65 0H0V60H65V0Z" fill="white"/>
</g>
</mask>
<g mask="url(#mask7_6594_40008)">
<path id="Vector_17" d="M49.8386 49.1237C49.9832 49.6442 50.3808 49.8955 51.0132 49.8955C51.4289 49.8955 51.7361 49.7519 51.9529 49.4827L52.8203 49.9852C52.4047 50.5775 51.8083 50.8646 50.9952 50.8646C50.3085 50.8646 49.7483 50.6493 49.3327 50.2365C48.917 49.8237 48.7002 49.3032 48.7002 48.675C48.7002 48.0468 48.917 47.5263 49.3146 47.1135C49.7302 46.6828 50.2543 46.4854 50.9048 46.4854C51.5192 46.4854 52.0252 46.7007 52.4227 47.1135C52.8203 47.5443 53.0191 48.0468 53.0191 48.675C53.0191 48.8186 53.001 48.9622 52.9829 49.1058H49.8386V49.1237ZM51.9529 48.2981C51.8264 47.7417 51.4108 47.4545 50.9229 47.4545C50.3446 47.4545 49.9471 47.7597 49.8206 48.2981H51.9529Z" fill="#F38020"/>
</g>
</g>
<g id="Clip path group_9">
<mask id="mask8_6594_40008" style="mask-type:luminance" maskUnits="userSpaceOnUse" x="0" y="0" width="65" height="60">
<g id="SVGID_2__9">
<path id="Vector_18" d="M65 0H0V60H65V0Z" fill="white"/>
</g>
</mask>
<g mask="url(#mask8_6594_40008)">
<path id="Vector_19" d="M31.9854 20.1913H35.6898V16.4043H40.7315V20.2093H45.1408V24.6783H40.7315V32.7549C40.7315 33.6882 40.7857 34.442 40.8761 35.0163C40.9664 35.5907 41.1833 36.0394 41.4905 36.3445C41.7977 36.6496 42.2495 36.847 42.8277 36.9547C43.406 37.0444 44.3457 37.0983 45.3215 37.0983V41.7827H44.4541C42.7735 41.7827 41.364 41.6391 40.2436 41.334C39.1232 41.0468 38.2197 40.5443 37.5511 39.8443C36.8825 39.1444 36.4127 38.229 36.1235 37.0803C35.8344 35.9317 35.6898 34.5138 35.6898 32.7908V24.6783H31.9854V20.1913Z" fill="#00377B"/>
</g>
</g>
<g id="Clip path group_10">
<mask id="mask9_6594_40008" style="mask-type:luminance" maskUnits="userSpaceOnUse" x="0" y="0" width="65" height="60">
<g id="SVGID_2__10">
<path id="Vector_20" d="M65 0H0V60H65V0Z" fill="white"/>
</g>
</mask>
<g mask="url(#mask9_6594_40008)">
<path id="Vector_21" d="M53.0007 20.209H47.959V41.7824H53.0007V20.209Z" fill="#00377B"/>
</g>
</g>
<g id="Clip path group_11">
<mask id="mask10_6594_40008" style="mask-type:luminance" maskUnits="userSpaceOnUse" x="0" y="0" width="65" height="60">
<g id="SVGID_2__11">
<path id="Vector_22" d="M65 0H0V60H65V0Z" fill="white"/>
</g>
</mask>
<g mask="url(#mask10_6594_40008)">
<path id="Vector_23" d="M20.3111 20.2451C14.3478 20.2451 9.50489 25.0372 9.46875 30.96V50.8823H14.4201V40.0417C16.1187 41.1365 18.1426 41.7647 20.3111 41.7647C26.2925 41.7647 31.1535 36.9367 31.1535 30.9959C31.1535 25.0552 26.2925 20.2451 20.3111 20.2451ZM20.3111 36.8649C17.0584 36.8649 14.4201 34.2445 14.4201 31.0139C14.4201 27.7833 17.0584 25.1629 20.3111 25.1629C23.5638 25.1629 26.2021 27.7833 26.2021 31.0139C26.2021 34.2445 23.5638 36.8649 20.3111 36.8649Z" fill="#00377B"/>
</g>
</g>
<g id="Clip path group_12">
<mask id="mask11_6594_40008" style="mask-type:luminance" maskUnits="userSpaceOnUse" x="0" y="0" width="65" height="60">
<g id="SVGID_2__12">
<path id="Vector_24" d="M65 0H0V60H65V0Z" fill="white"/>
</g>
</mask>
<g mask="url(#mask11_6594_40008)">
<path id="Vector_25" d="M38.6528 12.4023C45.1763 12.4023 51.1035 14.915 55.5127 19.0251C52.2419 13.1202 45.9172 9.13574 38.6528 9.13574C31.3885 9.13574 25.0637 13.1381 21.793 19.0251C26.2022 14.915 32.1294 12.4023 38.6528 12.4023Z" fill="#F38020"/>
</g>
</g>
<g id="Clip path group_13">
<mask id="mask12_6594_40008" style="mask-type:luminance" maskUnits="userSpaceOnUse" x="0" y="0" width="65" height="60">
<g id="SVGID_2__13">
<path id="Vector_26" d="M65 0H0V60H65V0Z" fill="white"/>
</g>
</mask>
<g mask="url(#mask12_6594_40008)">
<path id="Vector_27" d="M20.3114 34.5141C18.3597 34.5141 16.7695 32.9347 16.7695 30.9963C16.7695 29.0579 18.3597 27.4785 20.3114 27.4785C22.263 27.4785 23.8532 29.0759 23.8532 31.0143C23.8532 32.9526 22.263 34.5141 20.3114 34.5141Z" fill="#F38020"/>
</g>
</g>
</g>
</g>
<defs>
<clipPath id="clip0_6594_40008">
<rect width="65" height="60" fill="white"/>
</clipPath>
</defs>
</svg>
