<svg width="187" height="56" viewBox="0 0 187 56" fill="none" xmlns="http://www.w3.org/2000/svg">
<g clip-path="url(#clip0_3104_32223)">
<path d="M83.1355 26.0015C82.4998 25.6729 82.0096 25.2124 81.6635 24.6211C81.3174 24.0299 81.145 23.3444 81.145 22.5633V18.4316C81.145 17.6518 81.3174 16.965 81.6635 16.3737C82.0096 15.7825 82.4998 15.326 83.1355 15.0014C83.7711 14.6782 84.5078 14.5166 85.3428 14.5166C86.1778 14.5166 86.8983 14.6728 87.5339 14.9853C88.1696 15.2977 88.6598 15.7381 89.0059 16.3064C89.3507 16.8747 89.5244 17.5333 89.5244 18.2807C89.5244 18.3373 89.5042 18.3844 89.4651 18.4235C89.4261 18.4625 89.3789 18.4814 89.3224 18.4814L87.7831 18.5649C87.6497 18.5649 87.5824 18.5029 87.5824 18.3804C87.5824 17.7232 87.379 17.1926 86.9723 16.7912C86.5656 16.3899 86.0215 16.1892 85.3414 16.1892C84.6613 16.1892 84.1146 16.3899 83.7025 16.7912C83.2904 17.1926 83.083 17.7218 83.083 18.3804V22.6455C83.083 23.2919 83.289 23.8158 83.7025 24.2171C84.1146 24.6185 84.6613 24.8191 85.3414 24.8191C86.0215 24.8191 86.5656 24.6211 86.9723 24.2252C87.379 23.8293 87.5824 23.3027 87.5824 22.6441C87.5824 22.5216 87.6497 22.4596 87.7831 22.4596L89.3224 22.527C89.3776 22.527 89.4247 22.5431 89.4651 22.5768C89.5042 22.6105 89.5244 22.6495 89.5244 22.694C89.5244 23.4522 89.3507 24.1188 89.0059 24.6925C88.6598 25.2676 88.1696 25.7107 87.5339 26.0218C86.8983 26.3342 86.1683 26.4904 85.3428 26.4904C84.5172 26.4904 83.7711 26.3261 83.1355 25.9975V26.0015Z" fill="white"/>
<path d="M96.467 18.0478C97.0016 18.2929 97.4151 18.631 97.7046 19.0592C97.9942 19.4888 98.1396 19.9763 98.1396 20.5231V26.1605C98.1396 26.2158 98.1194 26.2642 98.0817 26.3033C98.0426 26.3424 97.9955 26.3612 97.9389 26.3612H96.3996C96.3431 26.3612 96.2959 26.3424 96.2569 26.3033C96.2178 26.2642 96.199 26.2171 96.199 26.1605V25.6259C96.199 25.5922 96.1882 25.5734 96.1653 25.568C96.1424 25.5626 96.1209 25.5707 96.098 25.5936C95.5512 26.1956 94.7593 26.4972 93.7223 26.4972C92.886 26.4972 92.1978 26.2858 91.6564 25.8616C91.1151 25.4373 90.8457 24.8084 90.8457 23.9721C90.8457 23.1358 91.1501 22.4247 91.7574 21.9399C92.3648 21.4551 93.2213 21.2126 94.3243 21.2126H96.1141C96.1693 21.2126 96.1976 21.1844 96.1976 21.1291V20.7278C96.1976 20.2928 96.0697 19.9561 95.8125 19.7164C95.5552 19.4767 95.1714 19.3568 94.6583 19.3568C94.2341 19.3568 93.8907 19.4323 93.6294 19.5831C93.3668 19.7339 93.2025 19.9427 93.1365 20.2107C93.1028 20.344 93.0247 20.4006 92.9022 20.3777L91.2794 20.177C91.2228 20.1662 91.1756 20.146 91.1366 20.1191C91.0975 20.0908 91.0827 20.0545 91.0948 20.01C91.1837 19.3299 91.5487 18.7724 92.1897 18.3374C92.8308 17.9024 93.6361 17.6855 94.6071 17.6855C95.3101 17.6855 95.9283 17.8081 96.4643 18.0532L96.467 18.0478ZM95.6145 24.5216C96.005 24.232 96.2003 23.8644 96.2003 23.4172V22.6308C96.2003 22.5755 96.172 22.5473 96.1168 22.5473H94.7122C94.121 22.5473 93.6563 22.659 93.3156 22.8812C92.9749 23.1048 92.8052 23.4226 92.8052 23.8347C92.8052 24.1916 92.9358 24.4677 93.1985 24.663C93.4597 24.8583 93.7977 24.9552 94.2098 24.9552C94.7566 24.9552 95.2239 24.8111 95.6145 24.5202V24.5216Z" fill="white"/>
<path d="M104.997 17.9306C105.086 17.975 105.12 18.0585 105.097 18.1811L104.813 19.6867C104.802 19.82 104.724 19.8591 104.578 19.8039C104.411 19.7487 104.216 19.7204 103.993 19.7204C103.847 19.7204 103.735 19.7258 103.659 19.7365C103.19 19.7594 102.799 19.9237 102.487 20.2294C102.175 20.5365 102.018 20.9351 102.018 21.4253V26.1591C102.018 26.2143 101.998 26.2628 101.96 26.3019C101.921 26.3409 101.874 26.3598 101.818 26.3598H100.278C100.223 26.3598 100.176 26.3409 100.136 26.3019C100.096 26.2628 100.078 26.2157 100.078 26.1591V18.0127C100.078 17.9575 100.096 17.9104 100.136 17.87C100.175 17.8309 100.222 17.8121 100.278 17.8121H101.818C101.873 17.8121 101.92 17.8323 101.96 17.87C101.999 17.909 102.018 17.9562 102.018 18.0127V18.7655C102.018 18.81 102.026 18.8356 102.044 18.841C102.061 18.8464 102.08 18.8329 102.103 18.7992C102.572 18.0747 103.224 17.7124 104.06 17.7124C104.417 17.7124 104.729 17.7851 104.996 17.9292L104.997 17.9306Z" fill="white"/>
<path d="M106.62 16.308C106.396 16.0858 106.286 15.8003 106.286 15.4555C106.286 15.1108 106.397 14.8252 106.62 14.603C106.842 14.3795 107.127 14.269 107.472 14.269C107.817 14.269 108.102 14.3808 108.325 14.603C108.547 14.8266 108.659 15.1108 108.659 15.4555C108.659 15.8003 108.547 16.0858 108.325 16.308C108.101 16.5316 107.817 16.642 107.472 16.642C107.127 16.642 106.842 16.5302 106.62 16.308ZM106.527 26.3021C106.488 26.2631 106.467 26.2159 106.467 26.1594V17.9968C106.467 17.9416 106.486 17.8944 106.527 17.854C106.566 17.815 106.613 17.7961 106.669 17.7961H108.209C108.264 17.7961 108.311 17.8163 108.352 17.854C108.391 17.8931 108.409 17.9402 108.409 17.9968V26.1594C108.409 26.2146 108.389 26.2631 108.352 26.3021C108.312 26.3412 108.265 26.36 108.209 26.36H106.669C106.613 26.36 106.566 26.3412 106.527 26.3021Z" fill="white"/>
<path d="M116.898 18.4827C117.438 19.0174 117.709 19.7486 117.709 20.6738V26.1604C117.709 26.2157 117.689 26.2641 117.65 26.3032C117.61 26.3422 117.563 26.3611 117.507 26.3611H115.967C115.911 26.3611 115.864 26.3422 115.825 26.3032C115.786 26.2641 115.765 26.217 115.765 26.1604V21.0752C115.765 20.5621 115.62 20.1473 115.33 19.8294C115.041 19.5116 114.656 19.3527 114.176 19.3527C113.697 19.3527 113.309 19.5089 113.014 19.8214C112.718 20.1338 112.571 20.5459 112.571 21.059V26.1604C112.571 26.2157 112.551 26.2641 112.513 26.3032C112.474 26.3422 112.427 26.3611 112.37 26.3611H110.831C110.776 26.3611 110.729 26.3422 110.688 26.3032C110.649 26.2641 110.63 26.217 110.63 26.1604V18.014C110.63 17.9588 110.649 17.9117 110.688 17.8713C110.727 17.8322 110.774 17.8134 110.831 17.8134H112.37C112.426 17.8134 112.473 17.8336 112.513 17.8713C112.552 17.9103 112.571 17.9575 112.571 18.014V18.5487C112.571 18.5824 112.582 18.6039 112.605 18.616C112.628 18.6268 112.644 18.616 112.655 18.5824C113.111 17.9804 113.803 17.6787 114.728 17.6787C115.654 17.6787 116.354 17.9467 116.895 18.4814L116.898 18.4827Z" fill="white"/>
<path d="M125.027 17.8729C125.066 17.8338 125.113 17.815 125.17 17.815H126.709C126.764 17.815 126.811 17.8352 126.852 17.8729C126.891 17.9119 126.911 17.9591 126.911 18.0156V25.793C126.911 27.1869 126.512 28.1821 125.715 28.7787C124.918 29.3753 123.873 29.673 122.578 29.673C122.232 29.673 121.893 29.6568 121.558 29.6231C121.435 29.6124 121.373 29.5396 121.373 29.4063L121.423 28.034C121.423 27.9114 121.501 27.8495 121.657 27.8495C121.981 27.8831 122.27 27.8993 122.527 27.8993C123.364 27.8993 123.979 27.735 124.375 27.4064C124.771 27.0778 124.969 26.5229 124.969 25.7418V25.6085C124.969 25.5748 124.958 25.556 124.935 25.5506C124.912 25.5452 124.891 25.5533 124.868 25.5762C124.41 26.0664 123.764 26.3115 122.927 26.3115C122.203 26.3115 121.539 26.127 120.937 25.7593C120.335 25.3917 119.916 24.8288 119.682 24.0705C119.536 23.5467 119.465 22.872 119.465 22.0464C119.465 21.1212 119.554 20.4128 119.733 19.9226C119.955 19.2425 120.34 18.6984 120.887 18.2917C121.434 17.885 122.075 17.6816 122.81 17.6816C123.691 17.6816 124.376 17.9389 124.868 18.4506C124.891 18.4843 124.912 18.4951 124.935 18.4843C124.958 18.4735 124.969 18.4506 124.969 18.417V18.0156C124.969 17.9604 124.988 17.9133 125.027 17.8729ZM124.943 22.9743C124.961 22.779 124.969 22.4639 124.969 22.0289C124.969 21.5939 124.961 21.3017 124.943 21.1172C124.927 20.9327 124.891 20.7522 124.834 20.5731C124.745 20.2054 124.564 19.9091 124.29 19.6869C124.017 19.4634 123.668 19.3529 123.245 19.3529C122.844 19.3529 122.503 19.4647 122.224 19.6869C121.946 19.9105 121.745 20.2054 121.622 20.5731C121.489 20.8855 121.422 21.3757 121.422 22.0451C121.422 22.7144 121.477 23.2221 121.589 23.4995C121.7 23.8564 121.904 24.15 122.199 24.3776C122.494 24.6065 122.848 24.721 123.261 24.721C123.696 24.721 124.048 24.6092 124.314 24.387C124.582 24.1648 124.76 23.8739 124.85 23.517C124.895 23.35 124.926 23.1682 124.942 22.973L124.943 22.9743Z" fill="white"/>
<path d="M139.755 22.0626C139.755 22.8544 139.648 23.5507 139.437 24.1527C139.192 24.888 138.796 25.4631 138.249 25.8752C137.702 26.2873 137.033 26.4947 136.242 26.4947C135.452 26.4947 134.82 26.1997 134.319 25.6085C134.296 25.5748 134.275 25.5641 134.252 25.5748C134.229 25.5856 134.218 25.6085 134.218 25.6422V26.1607C134.218 26.2159 134.198 26.2644 134.159 26.3034C134.12 26.3425 134.073 26.3613 134.016 26.3613H132.477C132.42 26.3613 132.373 26.3425 132.334 26.3034C132.295 26.2644 132.275 26.2172 132.275 26.1607V14.8535C132.275 14.7983 132.295 14.7511 132.334 14.7107C132.373 14.6717 132.42 14.6528 132.477 14.6528H134.016C134.071 14.6528 134.119 14.673 134.159 14.7107C134.198 14.7498 134.218 14.7969 134.218 14.8535V18.4829C134.218 18.5166 134.229 18.5395 134.252 18.5503C134.273 18.5611 134.296 18.5557 134.319 18.5328C134.799 17.9644 135.434 17.6803 136.226 17.6803C137.018 17.6803 137.735 17.8863 138.275 18.2998C138.816 18.7119 139.215 19.2869 139.47 20.0223C139.66 20.6471 139.755 21.3272 139.755 22.0626ZM137.764 22.0962C137.764 21.2262 137.597 20.5461 137.262 20.0559C136.96 19.5873 136.514 19.3529 135.923 19.3529C135.376 19.3529 134.959 19.598 134.668 20.0882C134.389 20.5461 134.251 21.2087 134.251 22.0787C134.251 22.9487 134.378 23.5844 134.636 24.0194C134.925 24.554 135.36 24.822 135.941 24.822C136.253 24.822 136.532 24.752 136.777 24.6133C137.022 24.4746 137.217 24.2766 137.363 24.0194C137.631 23.5507 137.764 22.9097 137.764 22.0962Z" fill="white"/>
<path d="M148.821 22.0624L148.805 22.5809C148.805 22.7143 148.738 22.7816 148.604 22.7816H143.368C143.313 22.7816 143.285 22.8099 143.285 22.8651C143.318 23.2328 143.368 23.4846 143.436 23.6179C143.704 24.4206 144.355 24.8286 145.392 24.8394C146.151 24.8394 146.753 24.527 147.198 23.9021C147.243 23.8347 147.298 23.8011 147.365 23.8011C147.41 23.8011 147.449 23.8172 147.483 23.8509L148.52 24.7034C148.621 24.7815 148.637 24.8704 148.569 24.9714C148.223 25.4616 147.764 25.8414 147.189 26.1094C146.615 26.3774 145.977 26.5107 145.274 26.5107C144.404 26.5107 143.666 26.3154 143.057 25.9249C142.45 25.5343 142.005 24.9875 141.728 24.2859C141.471 23.6839 141.343 22.8476 141.343 21.7769C141.343 21.1305 141.41 20.6066 141.543 20.2053C141.766 19.4242 142.187 18.8087 142.807 18.3576C143.426 17.9064 144.17 17.6802 145.04 17.6802C147.236 17.6802 148.474 18.8289 148.752 21.1265C148.797 21.4052 148.82 21.7177 148.82 22.0638L148.821 22.0624ZM144.012 19.6626C143.739 19.8686 143.546 20.1555 143.434 20.5245C143.367 20.7144 143.322 20.9595 143.301 21.2598C143.278 21.3164 143.301 21.3433 143.368 21.3433H146.763C146.819 21.3433 146.847 21.315 146.847 21.2598C146.824 20.981 146.79 20.7696 146.746 20.6241C146.646 20.2228 146.447 19.9104 146.152 19.6868C145.856 19.4633 145.485 19.3528 145.04 19.3528C144.626 19.3528 144.284 19.4565 144.011 19.6626H144.012Z" fill="white"/>
<path d="M149.975 29.631C149.952 29.5919 149.941 29.5448 149.941 29.4882V28.2843C149.941 28.229 149.96 28.1806 149.999 28.1415C150.038 28.1024 150.085 28.0836 150.142 28.0836H150.16C150.616 28.0728 150.973 28.0257 151.23 27.9408C151.486 27.8573 151.699 27.6984 151.866 27.4641C152.033 27.2298 152.184 26.8783 152.317 26.4096C152.328 26.3867 152.328 26.3544 152.317 26.3099L149.558 18.0302C149.547 18.0073 149.54 17.9804 149.54 17.9467C149.54 17.8471 149.595 17.7959 149.707 17.7959H151.346C151.469 17.7959 151.547 17.8525 151.58 17.9629L153.253 23.8508C153.264 23.8845 153.281 23.9006 153.303 23.9006C153.324 23.9006 153.342 23.8845 153.353 23.8508L155.025 17.9629C155.059 17.8511 155.137 17.7959 155.26 17.7959H156.849C156.916 17.7959 156.963 17.8161 156.992 17.8538C157.02 17.8929 157.023 17.9521 157 18.0289L154.056 26.8271C153.777 27.619 153.503 28.2102 153.235 28.5994C152.967 28.9899 152.603 29.2687 152.141 29.4357C151.677 29.6027 151.023 29.6862 150.176 29.6862H150.059C150.025 29.6862 149.997 29.666 149.975 29.6283V29.631Z" fill="white"/>
<path d="M159.316 25.8251C158.686 25.3793 158.243 24.7598 157.987 23.968C157.797 23.366 157.703 22.7303 157.703 22.061C157.703 21.3472 157.792 20.7116 157.971 20.154C158.228 19.3742 158.674 18.7655 159.309 18.3305C159.945 17.8955 160.709 17.6787 161.601 17.6787C162.494 17.6787 163.182 17.8955 163.801 18.3305C164.42 18.7655 164.856 19.3675 165.114 20.1365C165.314 20.6712 165.415 21.3068 165.415 22.0435C165.415 22.7801 165.321 23.3821 165.131 23.9504C164.874 24.7423 164.434 25.3632 163.81 25.8157C163.185 26.2668 162.444 26.4931 161.585 26.4931C160.726 26.4931 159.949 26.2695 159.319 25.8238L159.316 25.8251ZM162.645 24.4703C162.94 24.236 163.156 23.9074 163.289 23.4831C163.401 23.1155 163.456 22.6468 163.456 22.0785C163.456 21.4765 163.401 21.0078 163.289 20.6738C163.166 20.2496 162.955 19.9237 162.653 19.6948C162.352 19.4658 161.984 19.3514 161.549 19.3514C161.114 19.3514 160.78 19.4658 160.478 19.6948C160.177 19.9237 159.96 20.2496 159.826 20.6738C159.715 21.0644 159.659 21.5331 159.659 22.0785C159.659 22.6239 159.715 23.0939 159.826 23.4831C159.949 23.9074 160.163 24.236 160.47 24.4703C160.777 24.7046 161.148 24.8218 161.583 24.8218C162.018 24.8218 162.349 24.7046 162.645 24.4703Z" fill="white"/>
<path d="M173.518 18.4827C174.058 19.0174 174.328 19.7486 174.328 20.6738V26.1604C174.328 26.2157 174.308 26.2641 174.269 26.3032C174.23 26.3422 174.183 26.3611 174.126 26.3611H172.587C172.531 26.3611 172.483 26.3422 172.444 26.3032C172.405 26.2641 172.385 26.217 172.385 26.1604V21.0752C172.385 20.5621 172.24 20.1473 171.95 19.8294C171.661 19.5116 171.275 19.3527 170.796 19.3527C170.317 19.3527 169.929 19.5089 169.634 19.8214C169.337 20.1338 169.191 20.5459 169.191 21.059V26.1604C169.191 26.2157 169.17 26.2641 169.133 26.3032C169.094 26.3422 169.047 26.3611 168.99 26.3611H167.451C167.395 26.3611 167.348 26.3422 167.308 26.3032C167.269 26.2641 167.25 26.217 167.25 26.1604V18.014C167.25 17.9588 167.269 17.9117 167.308 17.8713C167.347 17.8322 167.394 17.8134 167.451 17.8134H168.99C169.045 17.8134 169.092 17.8336 169.133 17.8713C169.172 17.9103 169.191 17.9575 169.191 18.014V18.5487C169.191 18.5824 169.201 18.6039 169.224 18.616C169.247 18.6268 169.263 18.616 169.274 18.5824C169.731 17.9804 170.423 17.6787 171.348 17.6787C172.273 17.6787 172.974 17.9467 173.515 18.4814L173.518 18.4827Z" fill="white"/>
<path d="M181.646 14.7107C181.685 14.6717 181.733 14.6528 181.789 14.6528H183.328C183.384 14.6528 183.431 14.673 183.471 14.7107C183.51 14.7498 183.529 14.7969 183.529 14.8535V26.1607C183.529 26.2159 183.509 26.2644 183.471 26.3034C183.432 26.3425 183.385 26.3613 183.328 26.3613H181.789C181.734 26.3613 181.685 26.3425 181.646 26.3034C181.607 26.2644 181.588 26.2172 181.588 26.1607V25.6583C181.588 25.6247 181.578 25.6031 181.555 25.591C181.532 25.5802 181.51 25.591 181.487 25.6247C180.997 26.2051 180.356 26.4947 179.564 26.4947C178.772 26.4947 178.103 26.2886 177.556 25.8752C177.01 25.4631 176.614 24.888 176.369 24.1527C176.168 23.5278 176.067 22.8315 176.067 22.0626C176.067 21.2936 176.161 20.5906 176.351 20.0223C176.596 19.2869 176.992 18.7119 177.539 18.2998C178.086 17.8877 178.771 17.6803 179.597 17.6803C180.366 17.6803 180.996 17.9591 181.486 18.5166C181.509 18.5395 181.531 18.5476 181.553 18.5422C181.575 18.5368 181.587 18.5166 181.587 18.4843V14.8548C181.587 14.7996 181.606 14.7525 181.645 14.7121L181.646 14.7107ZM181.571 22.0787C181.571 21.2087 181.431 20.5461 181.154 20.0882C180.852 19.598 180.429 19.3529 179.882 19.3529C179.335 19.3529 178.867 19.5873 178.544 20.0559C178.21 20.5461 178.041 21.2262 178.041 22.0962C178.041 22.8773 178.175 23.5184 178.443 24.0194C178.755 24.554 179.229 24.822 179.865 24.822C180.433 24.822 180.873 24.554 181.186 24.0194C181.442 23.5628 181.571 22.915 181.571 22.0787Z" fill="white"/>
<path d="M81.4886 42.7175C81.4495 42.6784 81.4307 42.6313 81.4307 42.5747V31.2676C81.4307 31.2123 81.4495 31.1652 81.4886 31.1248C81.5276 31.0857 81.5748 31.0669 81.6313 31.0669H83.1706C83.2259 31.0669 83.273 31.0871 83.3134 31.1248C83.3524 31.1639 83.3713 31.211 83.3713 31.2676V42.5747C83.3713 42.63 83.3511 42.6784 83.3134 42.7175C83.2743 42.7565 83.2272 42.7754 83.1706 42.7754H81.6313C81.5761 42.7754 81.529 42.7565 81.4886 42.7175Z" fill="white"/>
<path d="M91.8917 34.8968C92.4318 35.4314 92.7025 36.1627 92.7025 37.0879V42.5745C92.7025 42.6297 92.6823 42.6782 92.6432 42.7173C92.6041 42.7563 92.557 42.7752 92.5004 42.7752H90.9611C90.9046 42.7752 90.8574 42.7563 90.8184 42.7173C90.7793 42.6782 90.7591 42.6311 90.7591 42.5745V37.4892C90.7591 36.9761 90.6137 36.5613 90.3241 36.2435C90.0346 35.9257 89.6494 35.7668 89.17 35.7668C88.6905 35.7668 88.3027 35.923 88.0077 36.2354C87.7115 36.5479 87.5647 36.96 87.5647 37.4731V42.5745C87.5647 42.6297 87.5445 42.6782 87.5068 42.7173C87.4677 42.7563 87.4206 42.7752 87.364 42.7752H85.8247C85.7695 42.7752 85.7223 42.7563 85.6819 42.7173C85.6429 42.6782 85.624 42.6311 85.624 42.5745V34.4281C85.624 34.3729 85.6429 34.3258 85.6819 34.2854C85.721 34.2463 85.7681 34.2274 85.8247 34.2274H87.364C87.4192 34.2274 87.4664 34.2476 87.5068 34.2854C87.5458 34.3244 87.5647 34.3715 87.5647 34.4281V34.9628C87.5647 34.9964 87.5754 35.018 87.5983 35.0301C87.6212 35.0409 87.6374 35.0301 87.6482 34.9964C88.1047 34.3944 88.7969 34.0928 89.7221 34.0928C90.6473 34.0928 91.3476 34.3608 91.889 34.8954L91.8917 34.8968Z" fill="white"/>
<path d="M96.0576 42.5667C95.527 42.3606 95.1176 42.0765 94.8281 41.7142C94.5385 41.3519 94.3931 40.9479 94.3931 40.5021V40.3513C94.3931 40.2961 94.4119 40.249 94.451 40.2086C94.49 40.1695 94.5372 40.1506 94.5937 40.1506H96.0657C96.1209 40.1506 96.1681 40.1708 96.2085 40.2086C96.2475 40.2476 96.2664 40.2947 96.2664 40.3513V40.385C96.2664 40.6637 96.4199 40.9062 96.7269 41.1122C97.034 41.3183 97.4205 41.422 97.8892 41.422C98.3578 41.422 98.6972 41.3304 98.976 41.1459C99.2548 40.9614 99.3948 40.7311 99.3948 40.451C99.3948 40.1951 99.2804 40.0025 99.0514 39.8746C98.8225 39.7466 98.4521 39.6093 97.939 39.4652L97.3034 39.2645C96.735 39.0975 96.2556 38.9184 95.865 38.7298C95.4745 38.5399 95.1459 38.2814 94.8779 37.9514C94.6099 37.6228 94.4766 37.2013 94.4766 36.6882C94.4766 35.9084 94.7836 35.2862 95.3964 34.823C96.0091 34.361 96.8185 34.1294 97.8218 34.1294C98.5019 34.1294 99.0986 34.2385 99.6117 34.4553C100.125 34.6721 100.521 34.9738 100.799 35.359C101.078 35.7441 101.217 36.1818 101.217 36.672C101.217 36.7272 101.197 36.7757 101.159 36.8148C101.12 36.8538 101.073 36.8727 101.016 36.8727H99.5941C99.5376 36.8727 99.4905 36.8538 99.4514 36.8148C99.4123 36.7757 99.3935 36.7286 99.3935 36.672C99.3935 36.3825 99.2507 36.1401 98.9666 35.9448C98.6824 35.7495 98.2945 35.6526 97.8043 35.6526C97.3693 35.6526 97.0152 35.7334 96.7418 35.895C96.4684 36.0566 96.3324 36.2828 96.3324 36.5724C96.3324 36.8404 96.463 37.0437 96.7256 37.1824C96.9869 37.3225 97.4246 37.4747 98.0387 37.643L98.4063 37.744C98.9975 37.9218 99.4931 38.1036 99.8945 38.2881C100.296 38.4726 100.637 38.7285 100.915 39.0571C101.194 39.3857 101.333 39.8126 101.333 40.3365C101.333 41.1284 101.02 41.7492 100.397 42.2017C99.7719 42.6529 98.941 42.8791 97.904 42.8791C97.2023 42.8791 96.5855 42.7768 96.0563 42.5694L96.0576 42.5667Z" fill="white"/>
<path d="M108.084 34.2869C108.123 34.2479 108.17 34.229 108.227 34.229H109.748C109.804 34.229 109.851 34.2492 109.891 34.2869C109.93 34.326 109.949 34.3731 109.949 34.4297V42.5761C109.949 42.6313 109.929 42.6798 109.891 42.7188C109.852 42.7579 109.805 42.7767 109.748 42.7767H108.227C108.17 42.7767 108.123 42.7579 108.084 42.7188C108.045 42.6798 108.026 42.6326 108.026 42.5761V42.0414C108.026 42.0077 108.015 41.9862 107.992 41.9741C107.969 41.9633 107.948 41.9741 107.925 42.0077C107.467 42.599 106.782 42.8939 105.867 42.8939C105.02 42.8939 104.309 42.6488 103.734 42.1586C103.159 41.6684 102.872 40.9708 102.872 40.0671V34.4297C102.872 34.3745 102.891 34.3273 102.93 34.2869C102.969 34.2479 103.016 34.229 103.073 34.229H104.612C104.667 34.229 104.714 34.2492 104.755 34.2869C104.794 34.326 104.814 34.3731 104.814 34.4297V39.5149C104.814 40.0388 104.95 40.4576 105.223 40.7701C105.497 41.0825 105.878 41.2388 106.37 41.2388C106.861 41.2388 107.273 41.0825 107.574 40.7701C107.875 40.4576 108.025 40.0402 108.025 39.5149V34.4297C108.025 34.3745 108.044 34.3273 108.083 34.2869H108.084Z" fill="white"/>
<path d="M116.94 34.3446C117.029 34.3891 117.062 34.4726 117.039 34.5951L116.755 36.1008C116.744 36.2341 116.666 36.2732 116.521 36.2179C116.354 36.1627 116.159 36.1344 115.935 36.1344C115.79 36.1344 115.678 36.1398 115.601 36.1506C115.132 36.1735 114.742 36.3378 114.429 36.6435C114.117 36.9506 113.961 37.3492 113.961 37.8394V42.5732C113.961 42.6284 113.94 42.6769 113.903 42.7159C113.864 42.755 113.817 42.7738 113.76 42.7738H112.221C112.165 42.7738 112.118 42.755 112.078 42.7159C112.039 42.6769 112.02 42.6297 112.02 42.5732V34.4268C112.02 34.3716 112.039 34.3244 112.078 34.284C112.117 34.245 112.164 34.2261 112.221 34.2261H113.76C113.815 34.2261 113.862 34.2463 113.903 34.284C113.942 34.3231 113.961 34.3702 113.961 34.4268V35.1796C113.961 35.2241 113.969 35.2496 113.986 35.255C114.004 35.2604 114.023 35.2469 114.046 35.2133C114.514 34.4887 115.166 34.1265 116.002 34.1265C116.359 34.1265 116.672 34.1992 116.938 34.3433L116.94 34.3446Z" fill="white"/>
<path d="M123.346 34.4619C123.881 34.707 124.294 35.045 124.584 35.4733C124.874 35.9029 125.019 36.3904 125.019 36.9372V42.5746C125.019 42.6298 124.999 42.6783 124.961 42.7174C124.922 42.7564 124.875 42.7753 124.818 42.7753H123.279C123.222 42.7753 123.175 42.7564 123.136 42.7174C123.097 42.6783 123.078 42.6312 123.078 42.5746V42.04C123.078 42.0063 123.068 41.9874 123.045 41.982C123.022 41.9767 123 41.9847 122.977 42.0076C122.431 42.6096 121.639 42.9113 120.602 42.9113C119.765 42.9113 119.077 42.6999 118.536 42.2756C117.994 41.8514 117.725 41.2225 117.725 40.3862C117.725 39.5498 118.029 38.8388 118.637 38.3539C119.244 37.8691 120.101 37.6267 121.204 37.6267H122.994C123.049 37.6267 123.077 37.5984 123.077 37.5432V37.1419C123.077 36.7069 122.949 36.3702 122.692 36.1305C122.435 35.8908 122.051 35.7709 121.538 35.7709C121.113 35.7709 120.77 35.8463 120.509 35.9972C120.246 36.148 120.082 36.3567 120.016 36.6247C119.982 36.7581 119.904 36.8146 119.782 36.7917L118.159 36.5911C118.102 36.5803 118.055 36.5601 118.016 36.5332C117.977 36.5049 117.962 36.4685 117.974 36.4241C118.063 35.744 118.428 35.1864 119.069 34.7514C119.71 34.3164 120.516 34.0996 121.487 34.0996C122.19 34.0996 122.808 34.2222 123.344 34.4673L123.346 34.4619ZM122.494 40.9356C122.884 40.6461 123.08 40.2784 123.08 39.8313V39.0448C123.08 38.9896 123.051 38.9613 122.996 38.9613H121.592C121 38.9613 120.536 39.0731 120.195 39.2953C119.854 39.5189 119.685 39.8367 119.685 40.2488C119.685 40.6057 119.815 40.8818 120.078 41.077C120.339 41.2723 120.677 41.3693 121.089 41.3693C121.636 41.3693 122.103 41.2252 122.494 40.9343V40.9356Z" fill="white"/>
<path d="M133.223 34.8968C133.763 35.4314 134.034 36.1627 134.034 37.0879V42.5745C134.034 42.6297 134.014 42.6782 133.975 42.7173C133.936 42.7563 133.889 42.7752 133.832 42.7752H132.293C132.236 42.7752 132.189 42.7563 132.15 42.7173C132.111 42.6782 132.091 42.6311 132.091 42.5745V37.4892C132.091 36.9761 131.945 36.5613 131.656 36.2435C131.366 35.9257 130.981 35.7668 130.502 35.7668C130.022 35.7668 129.634 35.923 129.339 36.2354C129.043 36.5479 128.896 36.96 128.896 37.4731V42.5745C128.896 42.6297 128.876 42.6782 128.838 42.7173C128.799 42.7563 128.752 42.7752 128.696 42.7752H127.156C127.101 42.7752 127.054 42.7563 127.013 42.7173C126.974 42.6782 126.956 42.6311 126.956 42.5745V34.4281C126.956 34.3729 126.974 34.3258 127.013 34.2854C127.053 34.2463 127.1 34.2274 127.156 34.2274H128.696C128.751 34.2274 128.798 34.2476 128.838 34.2854C128.877 34.3244 128.896 34.3715 128.896 34.4281V34.9628C128.896 34.9964 128.907 35.018 128.93 35.0301C128.953 35.0409 128.969 35.0301 128.98 34.9964C129.436 34.3944 130.128 34.0928 131.054 34.0928C131.979 34.0928 132.679 34.3608 133.221 34.8954L133.223 34.8968Z" fill="white"/>
<path d="M137.329 42.2487C136.704 41.8083 136.269 41.2144 136.024 40.467C135.845 39.9647 135.756 39.2967 135.756 38.4603C135.756 37.624 135.845 36.9991 136.024 36.486C136.259 35.7507 136.691 35.1676 137.321 34.738C137.952 34.3084 138.695 34.0942 139.554 34.0942C140.413 34.0942 141.182 34.3111 141.829 34.7461C142.475 35.1811 142.905 35.7278 143.116 36.385C143.171 36.5641 143.211 36.7419 143.233 36.9197V36.9534C143.233 37.0651 143.171 37.1325 143.049 37.154L141.543 37.3722H141.51C141.41 37.3722 141.343 37.317 141.309 37.2052C141.309 37.15 141.304 37.1042 141.293 37.0719C141.27 36.983 141.248 36.9049 141.225 36.8375C141.124 36.5251 140.924 36.2692 140.623 36.0686C140.322 35.8679 139.965 35.7669 139.553 35.7669C139.141 35.7669 138.769 35.876 138.474 36.0928C138.179 36.3096 137.981 36.6086 137.88 36.9884C137.768 37.3453 137.713 37.8409 137.713 38.4765C137.713 39.1122 137.763 39.5862 137.864 39.9647C137.976 40.3552 138.176 40.665 138.466 40.8926C138.756 41.1215 139.118 41.236 139.553 41.236C139.988 41.236 140.342 41.1269 140.648 40.9101C140.955 40.6932 141.153 40.3996 141.242 40.032C141.252 40.0104 141.259 39.9822 141.259 39.9485C141.27 39.9377 141.275 39.9202 141.275 39.8987C141.309 39.7653 141.387 39.7088 141.51 39.7317L143.015 39.966C143.07 39.9768 143.118 40.0024 143.158 40.0414C143.197 40.0805 143.211 40.133 143.2 40.2003C143.166 40.3794 143.138 40.5074 143.116 40.5855C142.905 41.2993 142.475 41.8649 141.829 42.2837C141.182 42.7012 140.424 42.9113 139.554 42.9113C138.684 42.9113 137.954 42.6918 137.329 42.2501V42.2487Z" fill="white"/>
<path d="M152.065 38.4765L152.049 38.995C152.049 39.1283 151.982 39.1957 151.849 39.1957H146.612C146.557 39.1957 146.529 39.2239 146.529 39.2792C146.563 39.6468 146.612 39.8987 146.68 40.032C146.948 40.8346 147.6 41.2427 148.637 41.2535C149.395 41.2535 149.997 40.941 150.443 40.3161C150.487 40.2488 150.542 40.2151 150.609 40.2151C150.654 40.2151 150.693 40.2313 150.727 40.265L151.764 41.1175C151.865 41.1956 151.881 41.2844 151.813 41.3855C151.467 41.8757 151.008 42.2554 150.433 42.5234C149.859 42.7914 149.221 42.9248 148.518 42.9248C147.648 42.9248 146.91 42.7295 146.301 42.3389C145.694 41.9484 145.25 41.4016 144.972 40.7C144.715 40.098 144.587 39.2617 144.587 38.191C144.587 37.5446 144.654 37.0207 144.788 36.6194C145.01 35.8383 145.431 35.2228 146.051 34.7716C146.67 34.3205 147.414 34.0942 148.284 34.0942C150.48 34.0942 151.718 35.243 151.997 37.5405C152.041 37.8193 152.064 38.1317 152.064 38.4779L152.065 38.4765ZM147.257 36.0766C146.984 36.2827 146.792 36.5695 146.68 36.9385C146.612 37.1284 146.568 37.3735 146.546 37.6739C146.524 37.7304 146.546 37.7574 146.614 37.7574H150.009C150.064 37.7574 150.092 37.7291 150.092 37.6739C150.069 37.3951 150.036 37.1836 149.991 37.0382C149.892 36.6369 149.692 36.3244 149.397 36.1009C149.101 35.8773 148.731 35.7669 148.285 35.7669C147.872 35.7669 147.53 35.8706 147.256 36.0766H147.257Z" fill="white"/>
<path d="M71.8985 14.5933H71.2817V42.9622H71.8985V14.5933Z" fill="white"/>
<path d="M35.9405 14.5302H39.8877V10.859C39.8877 10.3958 40.2635 10.02 40.7267 10.02H45.5588C46.0221 10.02 46.3978 10.3958 46.3978 10.859V14.5302H51.2555C51.7188 14.5302 52.0945 14.906 52.0945 15.3692V19.7973C52.0945 20.2606 51.7188 20.6363 51.2555 20.6363H46.3978V31.2257C46.3978 32.4391 46.4611 33.4209 46.5891 34.1696C46.7157 34.9198 46.9796 35.4948 47.3796 35.8935C47.7782 36.2934 48.3533 36.5561 49.1034 36.684C49.6866 36.7836 50.5512 36.8443 51.4925 36.8658C51.9477 36.8766 52.31 37.2496 52.31 37.7048V42.1154C52.31 42.5786 51.9343 42.9544 51.471 42.9544H51.1855C49.0145 42.9544 47.2032 42.7631 45.7514 42.3793C44.2983 41.9969 43.1428 41.3504 42.2809 40.44C41.419 39.531 40.8049 38.3337 40.4372 36.8496C40.0695 35.3655 39.8864 33.507 39.8864 31.2728V20.6363H35.9391C35.4758 20.6363 35.1001 20.2606 35.1001 19.7973V15.3692C35.1001 14.906 35.4758 14.5302 35.9391 14.5302H35.9405Z" fill="white"/>
<path d="M56.5309 14.5234H61.363C61.8263 14.5234 62.202 14.9046 62.202 15.3759V42.1072C62.202 42.5772 61.8263 42.9597 61.363 42.9597H56.5309C56.0676 42.9597 55.6919 42.5786 55.6919 42.1072V15.3759C55.6919 14.9059 56.0676 14.5234 56.5309 14.5234Z" fill="white"/>
<path d="M43.7057 4.95621C50.8663 4.95621 57.3777 7.73587 62.2219 12.273C58.6235 5.75213 51.681 1.3335 43.7057 1.3335C35.7303 1.3335 28.7879 5.75213 25.1895 12.273C30.0337 7.73587 36.5451 4.95621 43.7057 4.95621Z" fill="#F68632"/>
<path d="M18.6877 33.538C21.2047 33.538 23.2451 31.4976 23.2451 28.9807C23.2451 26.4637 21.2047 24.4233 18.6877 24.4233C16.1708 24.4233 14.1304 26.4637 14.1304 28.9807C14.1304 31.4976 16.1708 33.538 18.6877 33.538Z" fill="#F68632"/>
<path d="M29.8857 18.1368C32.6384 21.0619 34.0148 24.6172 34.0148 28.8608C34.0148 33.1044 32.6384 36.7176 29.8857 39.6414C27.1909 42.5665 23.8644 43.9994 20.0222 43.9994C16.18 43.9994 12.9115 42.6231 10.7324 39.8138V53.8265C10.7324 54.2898 10.3567 54.6656 9.89343 54.6656H4.17251C3.70923 54.6656 3.3335 54.2898 3.3335 53.8265V15.3638C3.3335 14.9006 3.70923 14.5248 4.17251 14.5248H9.89209C10.3554 14.5248 10.7311 14.9006 10.7311 15.3638V17.9078C12.9101 15.0972 16.0076 13.7222 20.0209 13.7222C24.0341 13.7222 27.1895 15.213 29.8843 18.1381L29.8857 18.1368ZM18.6445 36.9466C20.9393 36.9466 22.8315 36.2005 24.3223 34.7097C25.8711 33.1609 26.6158 31.2122 26.6158 28.8608C26.6158 26.5094 25.8711 24.5593 24.3223 23.0685C22.8315 21.5198 20.9393 20.775 18.6445 20.775C16.3497 20.775 14.4589 21.5211 12.968 23.0685C11.4772 24.5593 10.7311 26.5094 10.7311 28.8608C10.7311 31.2122 11.4772 33.1623 12.968 34.7097C14.4589 36.2005 16.351 36.9466 18.6445 36.9466Z" fill="white"/>
</g>
<defs>
<clipPath id="clip0_3104_32223">
<rect width="180.196" height="53.3333" fill="white" transform="translate(3.3335 1.3335)"/>
</clipPath>
</defs>
</svg>
