<svg width="41" height="40" viewBox="0 0 41 40" fill="none" xmlns="http://www.w3.org/2000/svg">
<path d="M20.9998 9.88914C23.4544 9.88914 25.4444 7.89924 25.4444 5.44457C25.4444 2.9899 23.4544 1 20.9998 1C18.5451 1 16.5552 2.9899 16.5552 5.44457C16.5552 7.89924 18.5451 9.88914 20.9998 9.88914Z" fill="#64748B"/>
<path d="M20.9996 39.0001C22.4723 39.0001 23.6661 37.8063 23.6661 36.3337C23.6661 34.861 22.4723 33.6672 20.9996 33.6672C19.527 33.6672 18.3332 34.861 18.3332 36.3337C18.3332 37.8063 19.527 39.0001 20.9996 39.0001Z" fill="#64748B"/>
<path d="M10.0785 13.9685C12.2879 13.9685 14.0789 12.1774 14.0789 9.96805C14.0789 7.75869 12.2879 5.96765 10.0785 5.96765C7.86914 5.96765 6.07809 7.75869 6.07809 9.96805C6.07809 12.1774 7.86914 13.9685 10.0785 13.9685Z" fill="#64748B"/>
<path d="M31.921 34.0309C33.1483 34.0309 34.1433 33.0359 34.1433 31.8086C34.1433 30.5813 33.1483 29.5863 31.921 29.5863C30.6937 29.5863 29.6987 30.5813 29.6987 31.8086C29.6987 33.0359 30.6937 34.0309 31.921 34.0309Z" fill="#64748B"/>
<path d="M5.55485 24.4448C7.51811 24.4448 9.10965 22.8533 9.10965 20.89C9.10965 18.9267 7.51811 17.3352 5.55485 17.3352C3.5916 17.3352 2.00006 18.9267 2.00006 20.89C2.00006 22.8533 3.5916 24.4448 5.55485 24.4448Z" fill="#64748B"/>
<path d="M36.4433 22.6647C37.4245 22.6647 38.2199 21.8692 38.2199 20.888C38.2199 19.9068 37.4245 19.1113 36.4433 19.1113C35.462 19.1113 34.6666 19.9068 34.6666 20.888C34.6666 21.8692 35.462 22.6647 36.4433 22.6647Z" fill="#64748B"/>
<path d="M7.87948 29.6118C6.66379 30.8275 6.66379 32.7945 7.87948 34.0102C9.09374 35.2259 11.0637 35.2259 12.2779 34.0102C13.4936 32.7945 13.4936 30.8275 12.2779 29.6118C11.0637 28.3946 9.09518 28.3831 7.87948 29.6118Z" fill="#64748B"/>
<path d="M31.9196 11.2995C32.6555 11.2995 33.2521 10.703 33.2521 9.96703C33.2521 9.2311 32.6555 8.63452 31.9196 8.63452C31.1836 8.63452 30.5871 9.2311 30.5871 9.96703C30.5871 10.703 31.1836 11.2995 31.9196 11.2995Z" fill="#64748B"/>
</svg>
