<svg width="375" height="812" viewBox="0 0 375 812" fill="none" xmlns="http://www.w3.org/2000/svg">
<g clip-path="url(#clip0_8801_10988)">
<rect width="375" height="812" fill="white"/>
<path d="M140.454 439.76V443.62H144.354V445.66H140.454V449.96H142.914C143.86 449.96 144.654 449.833 145.294 449.58C145.947 449.327 146.44 448.96 146.774 448.48C147.107 447.987 147.34 447.453 147.474 446.88C147.607 446.307 147.674 445.633 147.674 444.86C147.674 444.087 147.607 443.413 147.474 442.84C147.34 442.267 147.107 441.74 146.774 441.26C146.44 440.767 145.947 440.393 145.294 440.14C144.654 439.887 143.86 439.76 142.914 439.76H140.454ZM137.954 452V445.66H136.614V443.62H137.954V437.72H143.874C145.967 437.72 147.54 438.387 148.594 439.72C149.647 441.04 150.174 442.753 150.174 444.86C150.174 446.967 149.647 448.687 148.594 450.02C147.54 451.34 145.967 452 143.874 452H137.954ZM162.127 441.84L163.847 440.86L165.147 443.12L163.607 444C162.887 444.427 162.241 444.64 161.667 444.64C161.907 445.307 162.027 446.033 162.027 446.82C162.027 448.447 161.561 449.767 160.627 450.78C159.694 451.78 158.421 452.28 156.807 452.28C155.194 452.28 153.921 451.78 152.987 450.78C152.054 449.767 151.587 448.447 151.587 446.82C151.587 445.22 152.054 443.913 152.987 442.9C153.921 441.887 155.194 441.38 156.807 441.38C158.754 441.38 160.181 442.087 161.087 443.5C161.554 443.5 162.121 443.32 162.787 442.96L162.127 441.84ZM154.607 449.4C155.114 450.12 155.847 450.48 156.807 450.48C157.767 450.48 158.494 450.12 158.987 449.4C159.494 448.68 159.747 447.82 159.747 446.82C159.747 445.833 159.494 444.98 158.987 444.26C158.494 443.54 157.767 443.18 156.807 443.18C155.847 443.18 155.114 443.54 154.607 444.26C154.114 444.98 153.867 445.833 153.867 446.82C153.867 447.82 154.114 448.68 154.607 449.4ZM165.759 452V441.66H167.919V443.18L167.959 443.22C168.319 442.647 168.779 442.2 169.339 441.88C169.899 441.547 170.512 441.38 171.179 441.38C172.325 441.38 173.219 441.68 173.859 442.28C174.512 442.88 174.839 443.753 174.839 444.9V452H172.559V445.5C172.532 444.687 172.359 444.1 172.039 443.74C171.719 443.367 171.219 443.18 170.539 443.18C169.792 443.18 169.185 443.44 168.719 443.96C168.265 444.48 168.039 445.127 168.039 445.9V452H165.759ZM182.869 452V437.72H185.149V443H185.189C185.509 442.507 185.949 442.113 186.509 441.82C187.083 441.527 187.669 441.38 188.269 441.38C189.829 441.38 191.023 441.9 191.849 442.94C192.689 443.967 193.109 445.28 193.109 446.88C193.109 448.387 192.723 449.667 191.949 450.72C191.189 451.76 190.089 452.28 188.649 452.28C186.836 452.28 185.643 451.713 185.069 450.58H185.029V452H182.869ZM190.829 446.84C190.829 445.84 190.576 444.98 190.069 444.26C189.563 443.54 188.863 443.18 187.969 443.18C187.023 443.18 186.303 443.507 185.809 444.16C185.316 444.813 185.069 445.707 185.069 446.84C185.069 447.907 185.329 448.78 185.849 449.46C186.369 450.14 187.076 450.48 187.969 450.48C188.929 450.48 189.643 450.127 190.109 449.42C190.589 448.713 190.829 447.853 190.829 446.84ZM195.096 439.88V437.72H197.376V439.88H195.096ZM195.096 452V441.66H197.376V452H195.096ZM197.396 455.14H195.116V452.98H197.396V455.14ZM205.427 452V437.72H207.707V443.02H207.747C208.04 442.54 208.46 442.147 209.007 441.84C209.567 441.533 210.18 441.38 210.847 441.38C211.993 441.38 212.887 441.68 213.527 442.28C214.18 442.88 214.507 443.753 214.507 444.9V452H212.227V445.5C212.2 444.687 212.027 444.1 211.707 443.74C211.387 443.367 210.887 443.18 210.207 443.18C209.46 443.18 208.853 443.44 208.387 443.96C207.933 444.48 207.707 445.127 207.707 445.9V452H205.427ZM225.991 441.66V452H223.751V450.56H223.711C223.431 451.067 223.011 451.48 222.451 451.8C221.904 452.12 221.344 452.28 220.771 452.28C219.424 452.28 218.444 451.947 217.831 451.28C217.218 450.613 216.911 449.593 216.911 448.22V441.66H219.191V448C219.191 448.88 219.358 449.513 219.691 449.9C220.024 450.287 220.518 450.48 221.171 450.48C222.864 450.48 223.711 449.54 223.711 447.66V441.66H225.991ZM231.175 451.96L227.255 441.66H229.755L232.455 449.38H232.495L235.115 441.66H237.495L233.475 452.56C233.009 453.733 232.649 454.5 232.395 454.86C231.809 455.687 230.949 456.1 229.815 456.1C229.282 456.1 228.755 456.06 228.235 455.98V454.06C228.822 454.153 229.182 454.2 229.315 454.2C229.795 454.2 230.142 454.08 230.355 453.84C230.582 453.613 230.769 453.253 230.915 452.76L231.175 451.96ZM231.475 437.28L231.435 436.3C231.795 436.26 232.102 436.24 232.355 436.24C232.875 436.24 233.349 436.373 233.775 436.64C234.215 436.907 234.435 437.327 234.435 437.9C234.435 438.633 233.975 439.1 233.055 439.3L233.015 439.74H231.915V438.88C232.755 438.813 233.175 438.533 233.175 438.04C233.175 437.733 233.095 437.52 232.935 437.4C232.789 437.267 232.535 437.2 232.175 437.2C231.909 437.2 231.675 437.227 231.475 437.28Z" fill="#262628"/>
<path d="M45.3381 478.004H46.6681V482.302H51.9321V478.004H53.2621V488H51.9321V483.422H46.6681V488H45.3381V478.004ZM61.5736 484.192C61.5736 485.368 61.2796 486.348 60.7056 487.118C60.1316 487.888 59.2496 488.266 58.0456 488.266C57.0376 488.266 56.2396 487.93 55.6376 487.244C55.0496 486.558 54.7556 485.648 54.7556 484.5C54.7556 483.268 55.0636 482.288 55.6936 481.56C56.3236 480.832 57.1496 480.468 58.1996 480.468C59.1376 480.468 59.9356 480.776 60.5936 481.406C60.7056 481.504 60.8036 481.616 60.8876 481.742C60.9576 481.742 61.0276 481.728 61.1116 481.714C61.3216 481.7 61.5176 481.658 61.6996 481.588L61.7836 481.546L61.8536 481.49L61.5736 480.804L62.9456 480.23L63.5056 481.588L62.2176 482.12C61.8956 482.26 61.5736 482.344 61.2516 482.386C61.4616 482.89 61.5736 483.492 61.5736 484.192ZM60.2856 484.22C60.2856 483.534 60.1736 482.988 59.9636 482.554C59.6136 481.882 59.0256 481.546 58.1716 481.546C57.4156 481.546 56.8696 481.84 56.5196 482.414C56.1836 482.988 56.0156 483.674 56.0156 484.486C56.0156 485.256 56.1836 485.914 56.5196 486.432C56.8696 486.95 57.4156 487.202 58.1576 487.202C58.9696 487.202 59.5296 486.894 59.8236 486.278C60.1316 485.662 60.2856 484.976 60.2856 484.22ZM57.4576 490.31V488.882H58.7316V490.31H57.4576ZM64.7485 480.762H65.9385V481.742H65.9665C66.3585 480.944 67.2685 480.594 68.2765 480.594C70.5025 480.594 71.6085 482.358 71.6085 484.402C71.6085 486.474 70.5165 488.154 68.3045 488.154C67.5765 488.154 66.4845 487.888 65.9665 487.034H65.9385V490.758H64.7485V480.762ZM70.3485 484.318C70.3485 482.96 69.6485 481.644 68.1085 481.644C66.4985 481.644 65.8965 483.03 65.8965 484.374C65.8965 485.788 66.5405 487.118 68.1785 487.118C69.8025 487.118 70.3485 485.732 70.3485 484.318ZM79.7999 479.838V479.096H82.1799V478.004H83.3699V479.096H84.5739V479.838H83.3699V488H82.1799V487.02H82.1519C81.7599 487.818 80.8499 488.168 79.8419 488.168C77.6159 488.168 76.5099 486.404 76.5099 484.36C76.5099 482.316 77.6019 480.594 79.8139 480.594C80.5419 480.594 81.6339 480.874 82.1519 481.728H82.1799V479.838H79.7999ZM77.7699 484.444C77.7699 485.802 78.4699 487.118 80.0099 487.118C81.6199 487.118 82.2219 485.732 82.2219 484.388C82.2219 482.974 81.5779 481.644 79.9399 481.644C78.3159 481.644 77.7699 483.03 77.7699 484.444ZM90.309 484.22C90.309 483.534 90.197 482.988 89.987 482.554C89.637 481.882 89.049 481.546 88.195 481.546C87.439 481.546 86.893 481.84 86.543 482.414C86.207 482.988 86.039 483.674 86.039 484.486C86.039 485.256 86.207 485.914 86.543 486.432C86.893 486.95 87.439 487.202 88.181 487.202C88.993 487.202 89.553 486.894 89.847 486.278C90.155 485.662 90.309 484.976 90.309 484.22ZM91.597 484.192C91.597 485.368 91.303 486.348 90.729 487.118C90.155 487.888 89.273 488.266 88.069 488.266C87.061 488.266 86.263 487.93 85.661 487.244C85.073 486.558 84.779 485.648 84.779 484.5C84.779 483.268 85.087 482.288 85.717 481.56C86.347 480.832 87.173 480.468 88.223 480.468C89.161 480.468 89.959 480.79 90.617 481.42C91.275 482.05 91.597 482.974 91.597 484.192ZM87.551 477.85H88.853L90.239 479.824H89.119L88.195 478.508L87.285 479.824H86.165L87.551 477.85ZM85.619 476.534L86.865 478.508H85.927L84.093 476.534H85.619ZM93.0483 480.762H94.1683V481.91H94.1963C94.6863 481.028 95.4703 480.594 96.5483 480.594C98.4523 480.594 99.0403 481.686 99.0403 483.24V488H97.8503V483.1C97.8503 482.204 97.2903 481.644 96.3803 481.644C94.9383 481.644 94.2383 482.61 94.2383 483.912V488H93.0483V480.762ZM107.072 487.384C107.072 489.75 106.022 490.926 103.712 490.926C102.354 490.926 100.786 490.366 100.716 488.798H101.906C101.948 489.652 103.012 489.974 103.782 489.974C105.336 489.974 105.952 488.854 105.952 487.244V486.768H105.924C105.518 487.664 104.608 488.07 103.67 488.07C101.514 488.07 100.436 486.39 100.436 484.416C100.436 482.694 101.262 480.594 103.782 480.594C104.692 480.594 105.504 481 105.938 481.798H105.952V480.762H107.072V487.384ZM103.74 487.034C105.308 487.034 105.896 485.592 105.896 484.234C105.896 482.96 105.336 481.644 103.838 481.644C102.312 481.644 101.696 482.89 101.696 484.276C101.696 485.578 102.172 487.034 103.74 487.034ZM115.661 479.838V479.096H118.041V478.004H119.231V479.096H120.435V479.838H119.231V488H118.041V487.02H118.013C117.621 487.818 116.711 488.168 115.703 488.168C113.477 488.168 112.371 486.404 112.371 484.36C112.371 482.316 113.463 480.594 115.675 480.594C116.403 480.594 117.495 480.874 118.013 481.728H118.041V479.838H115.661ZM113.631 484.444C113.631 485.802 114.331 487.118 115.871 487.118C117.481 487.118 118.083 485.732 118.083 484.388C118.083 482.974 117.439 481.644 115.801 481.644C114.177 481.644 113.631 483.03 113.631 484.444ZM126.436 478.046C126.38 478.466 126.24 478.844 126.002 479.166C125.764 479.432 125.442 479.6 124.896 479.6C124.658 479.6 124.308 479.474 123.972 479.32C123.636 479.194 123.3 479.054 123.034 479.054C122.74 479.054 122.32 479.292 122.362 479.642H121.634C121.858 478.816 122.222 478.102 123.104 478.102C123.86 478.102 124.462 478.662 125.064 478.662C125.442 478.662 125.61 478.326 125.708 478.046H126.436ZM127.542 487.972C127.332 488.098 127.052 488.154 126.688 488.154C126.072 488.154 125.68 487.832 125.68 487.048C125.022 487.832 124.14 488.154 123.132 488.154C121.83 488.154 120.738 487.608 120.738 486.138C120.738 484.5 121.956 484.136 123.188 483.912C124.49 483.646 125.624 483.758 125.624 482.848C125.624 481.798 124.756 481.644 124.014 481.644C123.006 481.644 122.264 481.952 122.208 483.016H121.018C121.088 481.224 122.46 480.594 124.084 480.594C125.386 480.594 126.8 480.888 126.8 482.582V486.306C126.8 486.866 126.8 487.118 127.178 487.118C127.276 487.118 127.402 487.09 127.542 487.048V487.972ZM125.61 484.262C124.686 484.962 121.998 484.262 121.998 486.054C121.998 486.838 122.67 487.118 123.398 487.118C124.966 487.118 125.61 486.152 125.61 485.48V484.262ZM132.588 478.004H133.778V481.742H133.806C134.198 480.944 135.108 480.594 136.116 480.594C138.342 480.594 139.448 482.358 139.448 484.402C139.448 486.474 138.356 488.154 136.144 488.154C135.416 488.154 134.324 487.888 133.806 487.034H133.778V488H132.588V478.004ZM138.188 484.318C138.188 482.96 137.488 481.644 135.948 481.644C134.338 481.644 133.736 483.03 133.736 484.374C133.736 485.788 134.38 487.118 136.018 487.118C137.642 487.118 138.188 485.732 138.188 484.318ZM140.845 488V480.706H142.105V488H140.845ZM140.845 479.348V477.962H142.105V479.348H140.845ZM140.873 490.044V488.616H142.161V490.044H140.873ZM147.845 478.004H149.035V481.826H149.063C149.427 480.944 150.491 480.594 151.345 480.594C153.249 480.594 153.837 481.686 153.837 483.24V488H152.647V483.1C152.647 482.204 152.087 481.644 151.177 481.644C149.735 481.644 149.035 482.61 149.035 483.912V488H147.845V478.004ZM155.597 480.678H156.857V485.536C156.857 485.914 156.913 486.222 157.039 486.46C157.249 486.894 157.655 487.118 158.257 487.118C159.111 487.118 159.699 486.726 160.007 485.956C160.189 485.55 160.273 484.99 160.273 484.276V480.678H161.491V488H160.329L160.343 486.922C160.189 487.202 159.993 487.44 159.755 487.622C159.293 488 158.719 488.196 158.047 488.196C156.997 488.196 156.283 487.846 155.905 487.146C155.695 486.768 155.597 486.278 155.597 485.662V480.678ZM158.621 478.088C158.495 478.018 158.369 477.962 158.159 477.962C158.047 477.962 157.893 477.976 157.711 478.004L157.683 477.472C157.893 477.43 158.089 477.416 158.257 477.416C158.719 477.416 159.125 477.528 159.419 477.962C159.517 478.088 159.573 478.284 159.573 478.508C159.573 478.886 159.391 479.278 158.677 479.432L158.649 479.726H158.047V479.208C158.607 479.152 158.901 478.83 158.901 478.536C158.901 478.368 158.831 478.214 158.621 478.088ZM166.246 488.952C165.686 490.352 165.21 490.884 164.146 490.884C163.866 490.884 163.586 490.856 163.32 490.758V489.666C163.544 489.736 163.782 489.834 164.02 489.834C164.51 489.834 164.776 489.61 165 489.176L165.49 487.958L162.62 480.762H163.964L166.078 486.684H166.106L168.136 480.762H169.396L166.246 488.952ZM175.168 484.444C175.168 485.802 175.868 487.118 177.408 487.118C179.018 487.118 179.62 485.732 179.62 484.388C179.62 482.974 178.976 481.644 177.338 481.644C175.714 481.644 175.168 483.03 175.168 484.444ZM180.768 488H179.578V487.02H179.55C179.158 487.818 178.248 488.154 177.24 488.154C175.014 488.154 173.908 486.404 173.908 484.36C173.908 482.302 175 480.594 177.212 480.594C177.94 480.594 179.032 480.874 179.55 481.728H179.578V478.004H180.768V488ZM183.467 484.388C183.467 486.138 184.475 487.118 185.721 487.118C186.967 487.118 187.975 486.138 187.975 484.388C187.975 482.638 186.967 481.644 185.721 481.644C184.475 481.644 183.467 482.638 183.467 484.388ZM182.207 484.388C182.207 482.26 183.425 480.594 185.721 480.594C188.017 480.594 189.235 482.26 189.235 484.388C189.235 486.516 188.017 488.154 185.721 488.154C183.425 488.154 182.207 486.516 182.207 484.388ZM194.577 478.004H195.767V481.742H195.795C196.187 480.944 197.097 480.594 198.105 480.594C200.331 480.594 201.437 482.358 201.437 484.402C201.437 486.474 200.345 488.154 198.133 488.154C197.405 488.154 196.313 487.888 195.795 487.034H195.767V488H194.577V478.004ZM200.177 484.318C200.177 482.96 199.477 481.644 197.937 481.644C196.327 481.644 195.725 483.03 195.725 484.374C195.725 485.788 196.369 487.118 198.007 487.118C199.631 487.118 200.177 485.732 200.177 484.318ZM205.102 487.202C205.535 487.202 205.942 487.104 206.348 486.894C207.034 486.572 207.384 486.026 207.384 485.27V484.276C207.09 484.458 206.558 484.598 206.096 484.654L205.354 484.752C204.906 484.808 204.57 484.906 204.346 485.032C203.968 485.242 203.785 485.592 203.785 486.054C203.785 486.768 204.374 487.202 205.102 487.202ZM204.808 483.814L206.768 483.562C207.048 483.52 207.23 483.408 207.328 483.212C207.384 483.1 207.412 482.946 207.412 482.736C207.412 481.896 206.796 481.546 205.69 481.546C205.046 481.546 204.584 481.714 204.318 482.064C204.164 482.246 204.066 482.54 204.024 482.918H202.876C202.89 482.008 203.184 481.378 203.744 481.028C204.318 480.678 204.976 480.496 205.718 480.496C206.572 480.496 207.272 480.664 207.804 481C208.35 481.322 208.616 481.84 208.616 482.526V486.74C208.616 487.006 208.686 487.16 209.022 487.16C209.133 487.16 209.26 487.146 209.428 487.132V488.028C209.036 488.14 208.924 488.154 208.574 488.154C208.154 488.154 207.846 488 207.65 487.706C207.552 487.552 207.482 487.328 207.44 487.034C206.936 487.692 205.942 488.252 204.808 488.252C204.122 488.252 203.576 488.042 203.142 487.636C202.708 487.216 202.498 486.698 202.498 486.082C202.498 484.724 203.422 483.982 204.808 483.814ZM205.48 490.296V488.868H206.768V490.296H205.48ZM210.613 480.762H211.733V481.91H211.761C212.251 481.028 213.035 480.594 214.113 480.594C216.017 480.594 216.605 481.686 216.605 483.24V488H215.415V483.1C215.415 482.204 214.855 481.644 213.945 481.644C212.503 481.644 211.803 482.61 211.803 483.912V488H210.613V480.762ZM223.941 480.762H225.383V481.812H223.941V486.306C223.941 486.866 224.095 486.95 224.837 486.95H225.383V488H224.473C223.241 488 222.751 487.748 222.751 486.418V481.812H221.519V480.762H222.751V478.592H223.941V480.762ZM226.677 480.678H227.937V485.536C227.937 485.914 227.993 486.222 228.119 486.46C228.329 486.894 228.735 487.118 229.337 487.118C230.191 487.118 230.779 486.726 231.087 485.956C231.269 485.55 231.353 484.99 231.353 484.276V480.678H232.571V481.742C232.669 481.742 232.767 481.728 232.879 481.714C233.089 481.7 233.285 481.658 233.467 481.588L233.551 481.546L233.621 481.49L233.341 480.804L234.713 480.23L235.273 481.588L233.985 482.12C233.495 482.33 233.033 482.414 232.571 482.4V488H231.409L231.423 486.922C231.269 487.202 231.073 487.44 230.835 487.622C230.373 488 229.799 488.196 229.127 488.196C228.077 488.196 227.363 487.846 226.985 487.146C226.775 486.768 226.677 486.278 226.677 485.662V480.678ZM229.659 477.906L230.905 479.88H229.967L228.133 477.906H229.659ZM245.29 483.086C245.108 482.176 244.506 481.644 243.498 481.644C241.776 481.644 241.244 483.016 241.244 484.472C241.244 485.816 241.846 487.118 243.358 487.118C244.534 487.118 245.192 486.474 245.346 485.354H246.564C246.298 487.146 245.22 488.154 243.372 488.154C241.16 488.154 239.984 486.656 239.984 484.472C239.984 482.302 241.104 480.594 243.4 480.594C245.038 480.594 246.34 481.364 246.522 483.086H245.29ZM247.896 478.004H249.086V481.826H249.114C249.478 480.944 250.542 480.594 251.396 480.594C253.3 480.594 253.888 481.686 253.888 483.24V488H252.698V483.1C252.698 482.204 252.138 481.644 251.228 481.644C249.786 481.644 249.086 482.61 249.086 483.912V488H247.896V478.004ZM260.715 484.22C260.715 483.534 260.603 482.988 260.393 482.554C260.043 481.882 259.455 481.546 258.601 481.546C257.845 481.546 257.299 481.84 256.949 482.414C256.613 482.988 256.445 483.674 256.445 484.486C256.445 485.256 256.613 485.914 256.949 486.432C257.299 486.95 257.845 487.202 258.587 487.202C259.399 487.202 259.959 486.894 260.253 486.278C260.561 485.662 260.715 484.976 260.715 484.22ZM262.003 484.192C262.003 485.368 261.709 486.348 261.135 487.118C260.561 487.888 259.679 488.266 258.475 488.266C257.467 488.266 256.669 487.93 256.067 487.244C255.479 486.558 255.185 485.648 255.185 484.5C255.185 483.268 255.493 482.288 256.123 481.56C256.753 480.832 257.579 480.468 258.629 480.468C259.567 480.468 260.365 480.79 261.023 481.42C261.681 482.05 262.003 482.974 262.003 484.192ZM258.069 477.85H259.371L260.771 479.824H259.651L258.727 478.508L257.803 479.824H256.683L258.069 477.85ZM261.023 476.534H262.549L260.715 478.508H259.777L261.023 476.534ZM264.715 479.46H263.525V478.004H264.715V479.46ZM263.525 480.762H264.715V488H263.525V480.762ZM272.401 484.192L269.881 480.762H271.407L273.143 483.296L274.949 480.762H276.377L273.885 484.094L276.685 488H275.159L273.143 485.004L271.127 488H269.685L272.401 484.192ZM280.921 477.766H282.447L280.613 479.768H279.717L280.921 477.766ZM284.113 487.972C283.903 488.098 283.623 488.154 283.259 488.154C282.643 488.154 282.251 487.832 282.251 487.048C281.593 487.832 280.711 488.154 279.703 488.154C278.401 488.154 277.309 487.608 277.309 486.138C277.309 484.5 278.527 484.136 279.759 483.912C281.061 483.646 282.195 483.758 282.195 482.848C282.195 481.798 281.327 481.644 280.585 481.644C279.577 481.644 278.835 481.952 278.779 483.016H277.589C277.659 481.224 279.031 480.594 280.655 480.594C281.957 480.594 283.371 480.888 283.371 482.582V486.306C283.371 486.866 283.371 487.118 283.749 487.118C283.847 487.118 283.973 487.09 284.113 487.048V487.972ZM282.181 484.262C281.257 484.962 278.569 484.262 278.569 486.054C278.569 486.838 279.241 487.118 279.969 487.118C281.537 487.118 282.181 486.152 282.181 485.48V484.262ZM290.134 483.086C289.952 482.176 289.35 481.644 288.342 481.644C286.62 481.644 286.088 483.016 286.088 484.472C286.088 485.816 286.69 487.118 288.202 487.118C289.378 487.118 290.036 486.474 290.19 485.354H291.408C291.142 487.146 290.064 488.154 288.216 488.154C286.004 488.154 284.828 486.656 284.828 484.472C284.828 482.302 285.948 480.594 288.244 480.594C289.882 480.594 291.184 481.364 291.366 483.086H290.134ZM296.636 480.762H297.756V481.91H297.784C298.274 481.028 299.058 480.594 300.136 480.594C302.04 480.594 302.628 481.686 302.628 483.24V488H301.438V483.1C301.438 482.204 300.878 481.644 299.968 481.644C298.526 481.644 297.826 482.61 297.826 483.912V488H296.636V480.762ZM304.416 478.004H305.606V481.826H305.634C305.998 480.944 307.062 480.594 307.916 480.594C309.82 480.594 310.408 481.686 310.408 483.24V488H309.218V483.1C309.218 482.204 308.658 481.644 307.748 481.644C306.306 481.644 305.606 482.61 305.606 483.912V488H304.416V478.004ZM314.463 487.202C314.897 487.202 315.303 487.104 315.709 486.894C316.395 486.572 316.745 486.026 316.745 485.27V484.276C316.451 484.458 315.919 484.598 315.457 484.654L314.715 484.752C314.267 484.808 313.931 484.906 313.707 485.032C313.329 485.242 313.147 485.592 313.147 486.054C313.147 486.768 313.735 487.202 314.463 487.202ZM314.169 483.814L316.129 483.562C316.409 483.52 316.591 483.408 316.689 483.212C316.745 483.1 316.773 482.946 316.773 482.736C316.773 481.896 316.157 481.546 315.051 481.546C314.407 481.546 313.945 481.714 313.679 482.064C313.525 482.246 313.427 482.54 313.385 482.918H312.237C312.251 482.008 312.545 481.378 313.105 481.028C313.679 480.678 314.337 480.496 315.079 480.496C315.933 480.496 316.633 480.664 317.165 481C317.711 481.322 317.977 481.84 317.977 482.526V486.74C317.977 487.006 318.047 487.16 318.383 487.16C318.495 487.16 318.621 487.146 318.789 487.132V488.028C318.397 488.14 318.285 488.154 317.935 488.154C317.515 488.154 317.207 488 317.011 487.706C316.913 487.552 316.843 487.328 316.801 487.034C316.297 487.692 315.303 488.252 314.169 488.252C313.483 488.252 312.937 488.042 312.503 487.636C312.069 487.216 311.859 486.698 311.859 486.082C311.859 484.724 312.783 483.982 314.169 483.814ZM314.575 477.808H315.877L317.263 479.782H316.143L315.219 478.466L314.295 479.782H313.189L314.575 477.808ZM314.645 490.296V488.868H315.933V490.296H314.645ZM319.974 480.762H321.094V481.91H321.122C321.612 481.028 322.396 480.594 323.474 480.594C325.378 480.594 325.966 481.686 325.966 483.24V488H324.776V483.1C324.776 482.204 324.216 481.644 323.306 481.644C321.864 481.644 321.164 482.61 321.164 483.912V488H319.974V480.762ZM328.019 486.446H329.573V488H328.019V486.446Z" fill="#64748B"/>
<path d="M279.233 311.476C279.233 337.786 268.486 361.503 251.255 378.549C234.394 395.41 211.048 405.6 185.294 405.6C159.724 405.6 136.379 395.224 119.332 378.549C102.101 361.503 91.3545 337.786 91.3545 311.476C91.3545 259.411 133.414 217.352 185.294 217.352C237.173 217.352 279.233 259.596 279.233 311.476Z" fill="#CBD4E1"/>
<path d="M271.079 249.778C275.275 249.778 278.676 246.377 278.676 242.182C278.676 237.986 275.275 234.585 271.079 234.585C266.884 234.585 263.482 237.986 263.482 242.182C263.482 246.377 266.884 249.778 271.079 249.778Z" fill="#CBD4E1"/>
<path d="M282.198 220.132C285.063 220.132 287.386 217.809 287.386 214.944C287.386 212.079 285.063 209.756 282.198 209.756C279.332 209.756 277.01 212.079 277.01 214.944C277.01 217.809 279.332 220.132 282.198 220.132Z" fill="#CBD4E1"/>
<path d="M94.3188 249.593C97.184 249.593 99.5068 247.27 99.5068 244.405C99.5068 241.54 97.184 239.217 94.3188 239.217C91.4536 239.217 89.1309 241.54 89.1309 244.405C89.1309 247.27 91.4536 249.593 94.3188 249.593Z" fill="#CBD4E1"/>
<path d="M62.6348 349.645C67.9559 349.645 72.2696 345.331 72.2696 340.01C72.2696 334.689 67.9559 330.375 62.6348 330.375C57.3136 330.375 53 334.689 53 340.01C53 345.331 57.3136 349.645 62.6348 349.645Z" fill="#CBD4E1"/>
<path d="M252.235 268.324L253.717 387.647C253.717 391.724 250.382 394.873 246.306 394.873H129.948C125.871 394.873 122.536 391.538 122.536 387.647V234.232C122.536 230.156 125.871 227.006 129.948 227.006H214.252L252.235 268.324Z" fill="#F1F4F9"/>
<path d="M183.123 252.021H142.175C140.878 252.021 139.767 250.909 139.767 249.612C139.767 248.315 140.878 247.203 142.175 247.203H183.123C184.42 247.203 185.532 248.315 185.532 249.612C185.532 250.909 184.42 252.021 183.123 252.021Z" fill="#D5DDEA"/>
<path d="M163.668 265.359H142.175C140.878 265.359 139.767 264.248 139.767 262.951C139.767 261.654 140.878 260.542 142.175 260.542H163.483C164.78 260.542 165.892 261.654 165.892 262.951C165.892 264.248 164.78 265.359 163.668 265.359Z" fill="#D5DDEA"/>
<path d="M214.252 227.006V259.986C214.252 264.619 218.328 268.324 222.96 268.324H252.235" fill="#D5DDEA"/>
<path d="M158.172 251.584L166.976 220.53L203.137 224.696L190.512 244.933L200.291 252.746L179.237 298.796L180.41 263.144L158.172 251.584Z" fill="#CBD4E1"/>
<path d="M165.986 215.991L158.979 205.443" stroke="#CBD4E1" stroke-width="2"/>
<path d="M184.673 210.717L185.496 184" stroke="#CBD4E1" stroke-width="2"/>
<path d="M201.425 216.239L212.61 191.962" stroke="#CBD4E1" stroke-width="2"/>
<path d="M163.376 349.605C162.598 349.605 161.975 349.293 161.352 348.826C160.263 347.737 160.263 345.869 161.352 344.779C168.513 337.774 178.008 333.883 188.126 333.883C198.244 333.883 207.74 337.774 214.9 344.779C215.99 345.869 215.99 347.737 214.9 348.826C213.811 349.916 211.943 349.916 210.853 348.826C204.782 342.756 196.688 339.487 188.126 339.487C179.565 339.487 171.47 342.756 165.4 348.826C164.777 349.293 164.154 349.605 163.376 349.605Z" fill="#64748B"/>
<path d="M173.183 307.887L176.919 304.152C178.008 303.062 178.008 301.194 176.919 300.104C175.829 299.015 173.961 299.015 172.871 300.104L169.136 303.84L165.4 300.104C164.31 299.015 162.442 299.015 161.352 300.104C160.263 301.194 160.263 303.062 161.352 304.152L165.088 307.887L161.352 311.623C160.263 312.713 160.263 314.581 161.352 315.671C161.975 316.293 162.598 316.449 163.376 316.449C164.154 316.449 164.777 316.138 165.4 315.671L169.136 311.935L172.871 315.671C173.494 316.293 174.117 316.449 174.895 316.449C175.673 316.449 176.296 316.138 176.919 315.671C178.008 314.581 178.008 312.713 176.919 311.623L173.183 307.887Z" fill="#64748B"/>
<path d="M211.009 307.887L214.745 304.152C215.834 303.062 215.834 301.194 214.745 300.104C213.655 299.015 211.787 299.015 210.698 300.104L206.962 303.84L203.226 300.104C202.136 299.015 200.268 299.015 199.179 300.104C198.089 301.194 198.089 303.062 199.179 304.152L202.914 307.887L199.179 311.623C198.089 312.713 198.089 314.581 199.179 315.671C199.801 316.293 200.424 316.449 201.202 316.449C201.98 316.449 202.603 316.138 203.226 315.671L206.962 311.935L210.698 315.671C211.32 316.293 211.943 316.449 212.721 316.449C213.499 316.449 214.122 316.138 214.745 315.671C215.834 314.581 215.834 312.713 214.745 311.623L211.009 307.887Z" fill="#64748B"/>
</g>
<defs>
<clipPath id="clip0_8801_10988">
<rect width="375" height="812" fill="white"/>
</clipPath>
</defs>
</svg>
