<svg width="15" height="14" viewBox="0 0 15 14" fill="none" xmlns="http://www.w3.org/2000/svg">
<path d="M7.49967 0.333984C3.82634 0.333984 0.833008 3.32732 0.833008 7.00065C0.833008 10.674 3.82634 13.6673 7.49967 13.6673C11.173 13.6673 14.1663 10.674 14.1663 7.00065C14.1663 3.32732 11.173 0.333984 7.49967 0.333984ZM6.99967 4.33398C6.99967 4.06065 7.22634 3.83398 7.49967 3.83398C7.77301 3.83398 7.99967 4.06065 7.99967 4.33398V7.66732C7.99967 7.94065 7.77301 8.16732 7.49967 8.16732C7.22634 8.16732 6.99967 7.94065 6.99967 7.66732V4.33398ZM8.11301 9.92065C8.07967 10.0073 8.03301 10.074 7.97301 10.1407C7.90634 10.2007 7.83301 10.2473 7.75301 10.2807C7.67301 10.314 7.58634 10.334 7.49967 10.334C7.41301 10.334 7.32634 10.314 7.24634 10.2807C7.16634 10.2473 7.09301 10.2007 7.02634 10.1407C6.96634 10.074 6.91967 10.0073 6.88634 9.92065C6.85301 9.84065 6.83301 9.75398 6.83301 9.66732C6.83301 9.58065 6.85301 9.49398 6.88634 9.41398C6.91967 9.33398 6.96634 9.26065 7.02634 9.19398C7.09301 9.13398 7.16634 9.08732 7.24634 9.05398C7.40634 8.98732 7.59301 8.98732 7.75301 9.05398C7.83301 9.08732 7.90634 9.13398 7.97301 9.19398C8.03301 9.26065 8.07967 9.33398 8.11301 9.41398C8.14634 9.49398 8.16634 9.58065 8.16634 9.66732C8.16634 9.75398 8.14634 9.84065 8.11301 9.92065Z" fill="#F68632"/>
</svg>
