<svg width="260" height="260" viewBox="0 0 260 260" fill="none" xmlns="http://www.w3.org/2000/svg">
<g clip-path="url(#clip0_6594_40726)">
<g opacity="0.6">
<path d="M221 74.4278C221 75.2192 221.646 75.8657 222.438 75.8657C223.229 75.8657 223.876 75.2192 223.876 74.4278C223.876 73.6365 223.229 73.0011 222.438 73.0011C221.646 72.99 221 73.6365 221 74.4278Z" fill="#F54A5E"/>
<path d="M231.705 130.781C231.705 131.572 232.352 132.218 233.143 132.218C233.934 132.218 234.581 131.572 234.581 130.781C234.581 129.989 233.934 129.343 233.143 129.343C232.352 129.343 231.705 129.989 231.705 130.781Z" fill="#F54A5E"/>
<path d="M152.21 43.0477C151.352 43.8837 151.742 45.6671 153.08 47.0269C154.406 48.3867 156.19 48.7991 157.037 47.9632C157.895 47.1272 157.505 45.3438 156.179 43.9951C154.841 42.6241 153.069 42.2006 152.21 43.0477Z" fill="#F54A5E"/>
<path d="M111.482 38.1317C110.958 37.7639 110.055 38.1317 109.476 38.9677C108.885 39.7925 108.84 40.7622 109.364 41.13C109.888 41.4978 110.78 41.13 111.371 40.2941C111.95 39.4804 111.995 38.4995 111.482 38.1317Z" fill="#F54A5E"/>
<path d="M168.247 73.5547C168.916 74.5467 170.733 74.491 172.304 73.4321C173.887 72.3732 174.623 70.7013 173.954 69.7092C173.285 68.7172 171.468 68.773 169.886 69.8318C168.314 70.9019 167.578 72.5627 168.247 73.5547Z" fill="#45B8D3"/>
<path d="M137.575 59.0215C136.282 61.5294 134.198 63.5357 131.646 64.7283C132.27 66.077 132.905 67.4146 133.529 68.7633C136.985 67.1582 139.805 64.4385 141.543 61.0501C140.217 60.3702 138.902 59.7014 137.575 59.0215Z" fill="#45B8D3"/>
<path d="M171.749 110.426C170.456 112.934 168.372 114.94 165.819 116.133C166.455 117.481 167.068 118.819 167.703 120.168C171.158 118.563 173.978 115.843 175.717 112.454C174.391 111.786 173.064 111.106 171.749 110.426Z" fill="#FFA256"/>
<path d="M185 91.363C186.204 93.3136 187.118 95.4091 187.72 97.6272C189.347 97.0364 190.974 96.4457 192.602 95.8549C191.944 93.4362 190.952 91.1401 189.637 89C188.087 89.7914 186.538 90.5828 185 91.363Z" fill="#45B8D3"/>
<path d="M110.301 94.4202C109.22 92.3916 108.439 90.2404 107.982 88C106.322 88.4904 104.661 88.9697 103 89.4602C103.502 91.9235 104.349 94.2642 105.53 96.4823C107.124 95.7912 108.718 95.1001 110.301 94.4202Z" fill="#F54267"/>
<path d="M234.787 91C234.162 93.207 233.226 95.2913 232 97.2307C233.527 98.0333 235.065 98.8358 236.603 99.6383C237.941 97.5205 238.966 95.2356 239.646 92.828C238.03 92.2149 236.414 91.6019 234.787 91Z" fill="#FFA256"/>
<path d="M196.895 135.361C196.271 137.568 195.334 139.653 194.108 141.592C195.647 142.395 197.174 143.197 198.712 144C200.06 141.882 201.075 139.597 201.766 137.189C200.139 136.587 198.522 135.974 196.895 135.361Z" fill="#45B8D3"/>
<path d="M128.097 74.9996L125 75.5977L125.987 80.7087L129.084 80.1107L128.097 74.9996Z" fill="#FFC263"/>
<path d="M208.087 50.7278C206.994 51.5638 205.289 52.4555 203.996 53.2692C204.609 52.9125 203.45 53.8599 203.327 54.0048C202.948 54.4507 202.647 54.9634 202.436 55.5096C201.967 56.7245 201.867 58.0955 201.566 59.355C201.41 59.9903 201.221 60.6145 200.964 61.2276C200.407 61.1718 199.861 61.0381 199.337 60.8375C198.233 60.425 197.241 59.7786 196.294 59.0763C195.915 58.7977 194.6 57.3933 194.154 57.4713C193.675 57.5605 193.206 58.0063 192.828 58.285C192.527 58.519 190.476 60.425 190.097 60.1129C192.181 61.8183 195.269 64.4823 198.178 63.7132C199.426 63.3899 200.541 62.5874 201.633 61.9075C202.87 61.1384 204.074 60.3024 204.877 59.0541C205.757 57.6719 205.958 56.1226 206.225 54.551C206.348 53.793 206.504 53.0351 206.827 52.3329C207.574 52.2326 208.332 52.1991 209.079 52.1768C210.394 52.1323 211.888 52.2214 213.013 51.43C213.972 50.7501 214.83 49.5463 216.056 49.3457C213.247 49.825 210.695 49.2788 208.087 50.7278Z" fill="#F54267"/>
<path d="M206.782 52.4424C205.813 52.5316 204.943 52.8102 204.051 53.2226C204.029 53.2338 204.007 53.2449 203.996 53.2561C204.609 52.8994 203.45 53.8468 203.327 53.9917C202.948 54.4376 202.647 54.9503 202.435 55.4964C201.967 56.7114 201.867 58.0824 201.566 59.3419C201.41 59.9772 201.22 60.6014 200.964 61.2145C200.886 61.2033 200.808 61.1922 200.719 61.181C200.786 61.2033 200.864 61.2256 200.942 61.2256C201.298 61.2479 201.666 61.2256 202.012 61.1587C202.513 61.0473 202.97 60.8689 203.427 60.646C203.985 60.189 204.475 59.6763 204.876 59.0521C205.757 57.67 205.957 56.1206 206.225 54.549C206.336 53.8468 206.492 53.1223 206.782 52.4424Z" fill="#D3344D"/>
<path d="M209.906 107.027C209.672 108.264 209.348 109.568 209.672 109.724C210.028 109.903 211.477 108.833 212.804 107.774C214.364 108.086 216.17 108.509 216.56 108.153C216.939 107.796 216.315 106.314 215.88 104.987C217.151 103.683 218.299 102.223 218.054 101.855C217.831 101.543 216.326 101.944 214.743 102.268C213.974 100.752 213.105 99.8266 212.681 100.027C212.202 100.25 211.533 101.521 210.931 103.282C208.657 103.995 207.108 104.943 207.008 105.389C206.896 105.834 208.011 106.436 209.906 107.027Z" fill="#FFC263"/>
<path d="M235.439 48.8549C235.383 50.1925 235.238 51.5635 235.573 51.831C235.941 52.1208 237.2 51.2737 238.337 50.4154C239.898 51.1511 241.703 52.0762 242.027 51.7752C242.35 51.4743 241.547 49.6575 240.945 48.0524C242.004 46.9043 242.929 45.5445 242.628 45.0764C242.372 44.6751 240.968 44.742 239.474 44.7197C238.538 42.8248 237.557 41.5653 237.178 41.6879C236.743 41.8217 236.275 43.0812 235.918 44.9092C233.801 45.1432 232.43 45.8232 232.396 46.3024C232.363 46.7594 233.533 47.718 235.439 48.8549Z" fill="#45B8D3"/>
</g>
<path d="M133.641 95.7159C123.488 87.2283 81.9827 122.448 77.7587 126.136C73.9909 129.408 70.5007 133.473 63.5005 141.604C61.4183 144.023 59.6137 146.185 58.3643 149.536C56.4408 154.653 56.9365 159.471 57.5116 162.386C58.8204 163.041 60.863 163.913 63.4807 164.35C69.5885 165.401 74.6255 163.438 77.2431 162.386C99.9492 153.225 111.312 148.644 113.989 146.443C132.313 131.252 140.979 101.863 133.641 95.7159Z" fill="#E5A25E"/>
<path d="M156.804 94.6699C173.62 97.5652 203.683 114.461 224.902 137.286C226.964 139.487 230.673 143.632 232.636 150.077C234.282 155.471 234.064 160.23 233.687 163.125C232.22 163.205 230.038 163.264 227.401 163.205C222.165 163.086 196.167 162.431 176.456 145.417C156.625 128.263 148.534 99.112 156.804 94.6699Z" fill="#E5A25E"/>
<path d="M93.761 212.38C93.761 212.38 87.6334 226.023 91.1236 335.588C92.7497 386.632 107.147 458.796 107.147 458.796L120.532 457.586L154.601 215.434L93.761 212.38Z" fill="#241D51"/>
<path opacity="0.15" d="M93.7618 212.38C93.7618 212.38 91.6995 216.961 90.6484 242.106C91.6201 242.959 92.5918 243.811 93.5635 244.644C98.898 249.245 104.47 253.826 108.575 259.617C110.578 262.452 112.185 265.526 113.176 268.877C114.763 274.172 114.485 279.844 114.049 285.297C113.474 292.654 112.066 300.408 113.83 307.706C115.357 313.972 117.955 319.882 119.958 326.01C121.882 331.919 123.072 338.027 122.318 344.254C121.862 348.081 121.168 351.869 120.791 355.696C120.414 359.404 120.176 363.113 119.998 366.841C119.343 382.309 120.375 397.777 121.346 413.225C121.743 419.452 122.298 425.698 122.477 431.945C122.635 437.616 122.358 443.427 120.593 448.86C119.443 452.39 117.618 455.524 115.1 458.082L120.494 457.586L154.563 215.434L93.7618 212.38Z" fill="#202234"/>
<path d="M183.573 211.17C183.573 211.17 193.132 247.936 187.321 333.922C184.783 371.64 184.228 457.486 184.228 457.486H172.726L118.767 211.785L183.573 211.17Z" fill="#241D51"/>
<path opacity="0.15" d="M173.083 448.445C173.797 446.204 173.619 443.507 173.361 441.187C172.786 435.991 171.16 430.994 169.891 425.957C168.522 420.563 168.106 415.07 167.511 409.537C166.143 397.024 164.675 384.511 163.029 372.017C159.797 347.507 155.851 323.095 150.794 298.902C149.683 293.547 148.374 288.193 147.661 282.779C147.125 278.694 147.601 274.788 150.12 271.397C150.239 271.218 150.377 271.059 150.516 270.881C150.635 270.583 150.734 270.544 150.794 270.742C150.853 270.663 150.873 270.425 150.952 270.306C151.091 270.088 151.29 269.949 151.508 269.85C151.984 269.632 152.559 269.612 153.054 269.572C154.819 269.413 156.723 269.374 158.369 268.64C160.293 267.787 160.332 265.903 160.431 264.039C160.531 262.175 160.61 260.113 161.859 258.626C165.25 254.58 170.763 254.818 175.384 255.929C177.982 256.563 180.52 257.416 183.177 257.694C185.002 257.892 186.846 257.951 188.71 257.931C187.342 225.687 183.574 211.111 183.574 211.111L118.787 211.726L171.437 451.399C172.072 450.527 172.726 449.535 173.083 448.445Z" fill="#202234"/>
<path d="M147.86 91.4334C132.412 90.6401 105.739 98.5327 100.603 135.953C95.4672 173.374 71.5118 203.338 82.3195 222.534C89.2602 234.849 105.68 235.007 138.738 225.965C171.795 216.922 180.204 228.027 189.782 219.44C200.272 210.04 188.532 177.379 187.184 163.141C183.833 128.1 186.272 93.4164 147.86 91.4334Z" fill="#F7C06B"/>
<path opacity="0.15" d="M154.701 97.5014C152.381 95.2804 148.356 92.7619 145.143 92.742C143.557 92.742 145.738 91.6712 144.132 91.9885C144.37 92.9403 142.565 93.4361 141.316 93.6939C139.015 94.2095 135.823 103.232 138.777 104.383C141.831 105.592 148.058 99.2068 148.891 123.757C153.63 124.967 163.744 106.148 154.701 97.5014Z" fill="#202234"/>
<path d="M149.267 98.4958C148.077 98.119 146.034 93.7166 144.844 93.3398C144.269 93.6968 139.53 97.2267 138.935 97.5638C139.133 98.4958 142.802 104.663 143 105.575C132.054 134.211 138.042 198.224 133.481 225.154C131.736 235.466 141.671 237.826 144.686 247.88C149.703 238.5 160.63 237.469 161.482 226.84C165.409 178.275 144.785 131.435 148.89 104.683C149.584 104.148 149.445 99.0709 149.267 98.4958Z" fill="#F15A29"/>
<path d="M150.794 90.4987L154.403 92.1446C154.403 92.1446 153.035 94.6433 144.825 94.1277C136.754 95.3572 133.66 92.3429 133.66 92.3429L138.657 91.3316L140.74 81.3369C143.833 81.3766 146.729 81.3567 149.822 81.3369L150.794 90.4987Z" fill="#E9AA8E"/>
<path opacity="0.15" d="M150.795 90.4987L149.843 81.3369C146.73 81.3567 143.854 81.3766 140.761 81.3369L140.384 83.7563C140.919 84.6486 141.514 85.4815 142.248 86.2153C142.783 86.7507 143.438 87.2861 144.171 87.5439C144.846 87.762 145.54 87.8414 146.234 87.9802C146.65 88.0595 147.087 88.1785 147.503 88.3371C147.285 88.4759 147.087 88.6346 146.948 88.8527C146.492 89.5666 147.662 90.1021 148.118 90.3797C148.832 90.816 149.922 91.6092 149.367 92.6007C148.911 93.4138 147.741 93.156 146.987 93.4336C146.373 93.6716 146.65 94.1475 146.849 94.6036C147.027 95.0399 147.166 95.4365 147.146 95.8728C153.056 94.564 154.404 92.1843 154.404 92.1843L150.795 90.4987Z" fill="#33133F"/>
<path d="M156.03 73.3882C155.792 73.071 155.633 72.7537 155.534 72.4165C155.534 72.4165 155.514 72.4959 155.474 72.6149C155.474 72.6743 155.435 72.7735 155.415 72.8726C155.395 72.9916 155.355 73.0908 155.336 73.2098C155.296 73.3486 155.256 73.5271 155.197 73.7055C155.157 73.8245 155.137 73.9633 155.078 74.1021C155.058 74.1616 155.038 74.2013 155.038 74.241C154.999 74.3599 154.979 74.4591 154.939 74.5583C153.789 78.0683 150.854 84.6124 145.044 84.4736C137.508 84.2951 134.375 73.765 134.057 72.714C134.057 72.6545 134.038 72.6347 134.038 72.6347C134.038 72.6347 134.038 72.6347 134.018 72.6545C133.859 72.8528 132.59 74.3401 130.944 70.9094C129.199 67.2606 133.462 68.153 133.462 68.153C133.462 68.153 131.4 53.8749 140.046 53.6766C145.956 53.5576 151.766 50.821 155.355 56.6313C156.704 58.8127 156.962 63.3738 156.307 68.2521C156.565 67.9943 158.112 66.5863 158.647 67.9348C159.222 69.4221 157.656 75.4705 156.03 73.3882Z" fill="#E9AA8E"/>
<path opacity="0.15" d="M136.517 60.6558C138.44 61.3103 140.503 61.4292 142.506 61.3896C144.33 61.3697 146.075 61.0723 147.82 60.5369C149.843 59.9221 151.826 59.0496 153.571 57.8597C154.146 57.4631 154.741 57.007 155.257 56.4914C151.648 50.8793 145.897 53.5565 140.047 53.6953C136.497 53.7746 134.752 56.2534 133.919 59.1289C134.653 59.8031 135.505 60.3187 136.517 60.6558Z" fill="#33133F"/>
<path opacity="0.05" d="M157.319 68.6455C157.319 68.6455 158.886 68.1696 158.489 69.5379C158.093 70.8864 157.419 72.3539 156.348 72.1952C156.348 72.1952 157.597 71.6796 157.775 70.2716C157.954 68.8637 156.367 69.4586 157.319 68.6455Z" fill="#33133F"/>
<path opacity="0.05" d="M134.752 72.7385C134.713 73.5119 135.625 74.1663 136.795 74.2258C137.945 74.2853 138.917 73.6904 138.956 72.9368C138.996 72.1634 138.084 71.509 136.914 71.4495C135.764 71.39 134.792 71.9651 134.752 72.7385Z" fill="#33133F"/>
<path opacity="0.05" d="M150.042 72.5764C150.003 73.3498 150.915 74.0042 152.085 74.0637C153.235 74.1232 154.207 73.5283 154.246 72.7747C154.286 72.0013 153.374 71.3469 152.204 71.2874C151.054 71.2279 150.082 71.803 150.042 72.5764Z" fill="#33133F"/>
<path d="M147.623 64.6641C147.603 64.6641 147.563 64.664 147.544 64.6442C147.444 64.6046 147.385 64.4856 147.425 64.3666C147.444 64.3468 148.614 61.6498 152.263 62.7603C152.382 62.8 152.442 62.919 152.402 63.0181C152.362 63.1371 152.263 63.1966 152.144 63.1569C148.872 62.1654 147.861 64.4261 147.821 64.5252C147.781 64.6046 147.702 64.6641 147.623 64.6641Z" fill="#241D51"/>
<path d="M145.401 68.0322C145.381 68.0322 145.381 68.0322 145.361 68.0521C145.322 68.0719 145.341 68.1314 145.381 68.2107C145.441 68.29 146.848 70.1343 144.945 70.63C144.885 70.6499 144.885 70.7292 144.965 70.8085C145.044 70.8878 145.143 70.9473 145.222 70.9275C147.344 70.3921 145.678 68.2107 145.659 68.1909C145.579 68.0917 145.46 68.0322 145.401 68.0322Z" fill="#241D51"/>
<path d="M142.804 64.465C142.724 64.465 142.665 64.4253 142.625 64.3658C142.566 64.2667 141.316 62.1052 137.687 63.3743C137.588 63.414 137.469 63.3545 137.429 63.2553C137.39 63.1562 137.449 63.0372 137.548 62.9975C141.515 61.6094 142.962 64.1675 142.982 64.1874C143.041 64.2865 143.002 64.4055 142.903 64.465C142.883 64.465 142.843 64.465 142.804 64.465Z" fill="#241D51"/>
<path d="M148.912 77.1768C148.912 77.1768 145.502 79.259 141.218 77.8708C140.504 79.6754 145.859 83.4631 148.912 77.1768Z" fill="#FCFAF7"/>
<path d="M148.95 67.2784C149.069 68.2699 149.723 69.0036 150.397 68.9243C151.071 68.845 151.528 67.9724 151.409 66.9809C151.29 65.9894 150.635 65.2556 149.961 65.335C149.287 65.4143 148.831 66.2868 148.95 67.2784Z" fill="#241D51"/>
<path d="M139.016 67.503C139.135 68.4945 139.789 69.2283 140.464 69.1489C141.138 69.0696 141.594 68.1971 141.475 67.2055C141.356 66.214 140.702 65.4803 140.027 65.5596C139.353 65.6587 138.897 66.5313 139.016 67.503Z" fill="#241D51"/>
<path opacity="0.05" d="M144.786 82.2535C145.123 82.2139 145.341 82.1346 145.361 82.1346C145.44 82.0949 145.48 82.0156 145.46 81.9362C145.42 81.8569 145.341 81.8173 145.262 81.8371C145.242 81.8371 143.894 82.313 142.505 81.381C142.426 81.3413 142.327 81.3612 142.287 81.4207C142.248 81.5 142.267 81.5991 142.327 81.6388C143.279 82.2932 144.211 82.3329 144.786 82.2535Z" fill="#33133F"/>
<path opacity="0.05" d="M132.551 69.081C132.551 69.081 131.024 68.5059 131.322 69.894C131.639 71.2822 132.214 72.7695 133.285 72.6703C133.285 72.6703 132.055 72.0754 131.976 70.6674C131.897 69.2594 133.444 69.9535 132.551 69.081Z" fill="#33133F"/>
<path d="M153.71 57.2652C153.71 57.2652 125.868 67.2796 128.446 56.0555C131.044 44.8313 137.33 48.6586 137.33 48.6586C137.33 48.6586 132.65 46.6756 135.109 44.5934C137.568 42.4913 140.285 47.5481 150.656 47.1912C161.008 46.8144 161.166 63.5713 156.546 68.0134C156.546 67.9737 150.498 65.8915 153.71 57.2652Z" fill="#241D51"/>
<path d="M135.505 57.504C135.505 57.504 135.306 65.2578 133.403 68.1332C133.403 68.1332 130.845 63.0764 131.658 58.2377C132.471 53.4189 135.505 57.504 135.505 57.504Z" fill="#241D51"/>
<path opacity="0.25" d="M130.547 57.4054C130.547 57.4054 142.644 60.261 153.412 55.0059C153.392 55.0059 140.68 62.9381 130.547 57.4054Z" fill="white"/>
<path opacity="0.25" d="M139.411 55.3818C139.411 55.3818 147.205 57.226 154.145 53.835C154.145 53.8548 145.935 58.9513 139.411 55.3818Z" fill="white"/>
<path opacity="0.25" d="M155.89 53.6338C155.89 53.6338 156.326 57.5206 154.264 60.6737C154.284 60.6737 157.238 57.005 155.89 53.6338Z" fill="white"/>
<path opacity="0.25" d="M156.822 53.8164C156.822 53.8164 158.607 59.6863 156.366 65.1595C156.366 65.1595 159.856 58.6353 156.822 53.8164Z" fill="white"/>
<path opacity="0.25" d="M131.657 51.2955C131.657 51.2955 132.669 48.6581 138.102 48.7176C138.102 48.7176 134.87 46.437 136.833 45.8223C138.796 45.2075 142.941 48.1028 145.598 47.7855C148.236 47.4881 151.567 47.607 152.638 48.1226C152.638 48.1226 148.057 47.3889 145.915 48.5192C143.774 49.6298 139.55 47.6467 139.55 47.6467C139.55 47.6467 141.454 49.8876 139.094 50.1454C136.714 50.3635 134.652 48.9555 131.657 51.2955Z" fill="white"/>
<path d="M144.766 92.3037C144.766 92.3037 146.134 102.754 137.766 99.3039C129.397 95.8534 133.641 90.7767 139.114 89.3291C139.114 89.3291 140.344 91.6295 137.766 92.6805C138.48 94.7627 144.766 92.3037 144.766 92.3037Z" fill="#241D51"/>
<path d="M144.925 92.3037C144.925 92.3037 143.557 102.754 151.925 99.3039C160.294 95.8534 156.07 90.7767 150.596 89.3291C150.596 89.3291 149.347 91.6295 151.925 92.6805C151.191 94.7627 144.925 92.3037 144.925 92.3037Z" fill="#241D51"/>
<path d="M227.202 147.826C227.956 148.738 229.185 150.027 230.99 151.098C233.528 152.625 234.777 152.288 235.848 153.696C237.236 155.52 237.455 159.209 235.67 160.042C234.242 160.716 233.508 161.39 231.386 161.688L227.5 161.926C227.42 157.226 227.301 152.526 227.202 147.826Z" fill="#DDAE9F"/>
<path d="M222.9 162.951C223.237 163.011 223.534 163.011 223.792 163.011C223.851 163.011 223.891 163.011 223.931 163.011C224.962 162.912 225.993 162.773 226.945 162.594C229.503 162.138 231.466 161.563 231.466 161.563C231.466 161.563 234.163 152.362 231.367 151.33C228.571 150.299 225.041 142.367 223.276 144.35C223.415 146.313 225.041 150.339 225.041 150.339C225.041 150.339 219.687 147.404 218.735 150.755C218.319 152.243 219.072 152.659 219.509 152.798C219.528 152.798 219.548 152.818 219.568 152.818C219.568 152.818 218.259 154.246 218.557 155.455C218.695 156.05 219.013 156.308 219.013 156.308C219.013 156.308 218.517 156.962 218.517 157.537C218.517 158.113 218.834 159.005 219.112 159.064C219.112 159.084 218.656 159.62 218.894 160.314C219.152 160.988 222.087 162.812 222.9 162.951Z" fill="#DDAE9F"/>
<path opacity="0.2" d="M219.905 153.135C219.905 153.413 219.846 153.691 219.846 153.968C219.846 154.464 219.985 154.88 220.282 155.277C220.5 155.575 220.778 155.852 220.897 156.229C221.036 156.665 220.877 157.22 220.798 157.677C220.719 158.192 220.639 158.708 220.718 159.223C220.778 159.699 220.897 160.175 221.056 160.631C221.194 161.068 221.393 161.484 221.69 161.841C222.027 162.238 222.483 162.535 222.86 162.892C222.88 162.912 222.88 162.952 222.9 162.971C222.087 162.852 219.152 161.008 218.914 160.334C218.676 159.64 219.132 159.085 219.132 159.085C218.854 159.025 218.537 158.133 218.537 157.558C218.537 156.982 219.033 156.328 219.033 156.328C219.033 156.328 218.716 156.07 218.577 155.475C218.279 154.266 219.568 152.838 219.588 152.838C219.707 152.838 219.806 152.838 219.905 152.858C219.905 152.917 219.905 153.016 219.905 153.135Z" fill="white"/>
<path opacity="0.2" d="M225.517 145.445C225.517 145.445 225.417 145.743 225.021 145.564C224.644 145.386 224.029 144.196 224.029 144.196C224.029 144.196 224.882 144.136 225.517 145.445Z" fill="white"/>
<path d="M234 161C237.6 158.6 234.833 154 233 152C234.667 152 238 153 238 157C238 161 235 162.667 233.5 163L234 161Z" fill="#FFF2DA"/>
<path d="M71.9091 218.015C67.7843 218.709 63.8579 215.933 63.1638 211.808L50.1747 135.064C49.4806 130.939 52.2569 127.012 56.3817 126.318C60.5065 125.624 64.4329 128.4 65.127 132.525L78.1161 209.27C78.83 213.414 76.0339 217.321 71.9091 218.015Z" fill="white"/>
<path opacity="0.2" d="M65.1277 132.546L78.1168 209.271C78.8109 213.395 76.0346 217.322 71.9098 218.016C71.5529 218.075 71.2157 218.115 70.8786 218.115C67.5272 162.946 60.8245 136.631 57.3145 126.22C59.0596 126.141 60.7055 126.656 62.054 127.608C63.6206 128.758 64.7708 130.483 65.1277 132.546Z" fill="#999999"/>
<path d="M54.239 154.222C76.9867 154.222 95.4273 135.782 95.4273 113.034C95.4273 90.2863 76.9867 71.8457 54.239 71.8457C31.4914 71.8457 13.0508 90.2863 13.0508 113.034C13.0508 135.782 31.4914 154.222 54.239 154.222Z" fill="white"/>
<path d="M54.2389 149.362C74.3033 149.362 90.5687 133.096 90.5687 113.032C90.5687 92.9675 74.3033 76.7021 54.2389 76.7021C34.1746 76.7021 17.9092 92.9675 17.9092 113.032C17.9092 133.096 34.1746 149.362 54.2389 149.362Z" fill="#5BC84B"/>
<path opacity="0.2" d="M54.2397 149.025C74.1179 149.025 90.2323 132.911 90.2323 113.033C90.2323 93.1545 74.1179 77.04 54.2397 77.04C34.3615 77.04 18.2471 93.1545 18.2471 113.033C18.2471 132.911 34.3615 149.025 54.2397 149.025Z" fill="#A4B7FC"/>
<path d="M68.8951 93.9424L51.107 120.456L44.7612 110.798L42.1436 110.739L52.8323 130.213C55.3111 132.791 58.7815 130.173 60.011 126.841L69.5892 92.9707L68.8951 93.9424Z" fill="#02A302"/>
<path d="M67.9234 92.2959L50.1353 118.809L42.1435 110.738L36.1943 117.144L48.529 129.974C51.0078 132.552 55.3111 131.64 56.5604 128.289L69.5891 92.9701L67.9234 92.2959Z" fill="white"/>
<path d="M58.3431 151.96C58.3431 151.96 50.5893 156.898 49.5383 157.949C48.4872 159 48.1303 163.581 49.5383 164.295C50.9462 165.009 51.6602 165.703 53.7622 166.06L57.6292 166.417L58.3431 151.96Z" fill="#DDAE9F"/>
<path d="M60.3266 167.328C59.9895 167.368 59.6722 167.367 59.4342 167.348C59.3747 167.348 59.3351 167.348 59.2954 167.328C58.2642 167.189 57.233 166.991 56.301 166.773C53.7825 166.217 51.8193 165.543 51.8193 165.543C51.8193 165.543 49.5387 156.223 52.3745 155.31C55.2103 154.398 59.0971 146.644 60.7629 148.687C60.5447 150.63 58.7203 154.577 58.7203 154.577C58.7203 154.577 64.1936 151.88 65.0066 155.271C65.3636 156.778 64.5704 157.155 64.1341 157.294C64.1143 157.294 64.0944 157.313 64.0548 157.313C64.0548 157.313 65.2843 158.801 64.9472 160.01C64.7885 160.585 64.4514 160.843 64.4514 160.843C64.4514 160.843 64.9075 161.517 64.8877 162.093C64.8678 162.668 64.5109 163.54 64.2332 163.6C64.2332 163.62 64.6695 164.175 64.4117 164.869C64.1539 165.543 61.1397 167.229 60.3266 167.328Z" fill="#DDAE9F"/>
<path opacity="0.2" d="M63.737 157.651C63.737 157.929 63.7766 158.206 63.7568 158.484C63.737 158.98 63.5783 159.396 63.261 159.773C63.0231 160.07 62.7256 160.328 62.6066 160.685C62.448 161.121 62.5868 161.677 62.6265 162.133C62.6859 162.648 62.7256 163.164 62.6265 163.679C62.5273 164.155 62.4083 164.631 62.2298 165.068C62.0712 165.484 61.8531 165.92 61.5358 166.238C61.1788 166.614 60.7227 166.892 60.3063 167.229C60.2864 167.249 60.2864 167.289 60.2666 167.308C61.0797 167.209 64.0939 165.524 64.3715 164.849C64.6492 164.175 64.2129 163.6 64.1931 163.58C64.4707 163.521 64.8276 162.648 64.8475 162.073C64.8673 161.498 64.4112 160.824 64.4112 160.824C64.4112 160.824 64.7483 160.586 64.907 159.991C65.2639 158.801 64.0344 157.314 64.0146 157.294C63.8956 157.274 63.7964 157.294 63.6973 157.294C63.7568 157.453 63.7568 157.552 63.737 157.651Z" fill="white"/>
<path opacity="0.2" d="M58.502 149.719C58.502 149.719 58.5813 150.036 58.9779 149.858C59.3745 149.679 60.0289 148.549 60.0289 148.549C60.0289 148.549 59.1762 148.45 58.502 149.719Z" fill="white"/>
<path d="M22.9778 33.0108C20.8857 35.9227 22.8247 40.1551 25.8352 41.5095C29.1688 43.0162 33.3019 41.8481 35.4789 38.97C37.8261 35.8381 37.2478 32.0289 34.2033 30.0651C31.2439 28.169 27.7911 29.845 27.1788 33.0786C26.7536 35.3979 28.1653 37.1078 29.3729 37.057C30.3254 37.0062 30.8527 35.9227 30.0873 35.2625C29.7811 35.0085 29.3219 35.0085 28.9987 35.1609C28.4034 34.4498 28.4205 32.7061 29.7131 31.4872C31.3629 29.9297 33.8121 31.1147 34.8326 32.7907C36.1253 34.9239 35.1218 37.4972 33.3699 39.0547C31.55 40.6799 28.6926 41.2047 26.4305 40.2059C23.8792 39.0547 22.7226 36.0243 23.8452 33.4849C24.1343 32.8923 23.352 32.486 22.9778 33.0108Z" fill="#66C3FA"/>
<path d="M23.2307 190.536C23.2307 190.536 24.4723 188.369 27.3977 188.047C30 187.759 32.024 189.605 32.2961 192.009C32.6023 194.785 30.5443 198.34 24.5233 201.896C17.856 199.746 15.0496 196.749 14.7435 193.973C14.4713 191.585 16.0361 189.317 18.6384 189.029C21.5298 188.691 23.2307 190.536 23.2307 190.536Z" fill="#FCAC66"/>
<path d="M1.851 194.022C4.41927 194.141 6.4943 194.124 8.5353 193.988C9.19863 193.954 10.3892 194.073 10.8144 193.48C11.0355 193.176 11.0526 192.803 10.7634 192.515C10.2362 191.991 9.23266 192.278 8.55232 192.312C6.4943 192.431 4.14714 192.481 1.78298 192.38C1.34076 192.363 0.983575 192.82 1.00058 193.226C1.01759 193.717 1.40879 194.005 1.851 194.022Z" fill="#FCAC66"/>
<path d="M36.6161 197.222C37.6026 197.171 38.5891 197.121 39.5755 197.053C40.528 197.002 41.6506 197.104 42.518 196.714C43.1643 196.443 43.1643 195.563 42.467 195.36C41.5485 195.089 40.46 195.326 39.5075 195.377C38.521 195.445 37.5346 195.495 36.5481 195.58C35.4935 195.682 35.5446 197.273 36.6161 197.222Z" fill="#FCAC66"/>
<path d="M11.7157 206.364C12.8382 204.231 14.301 203.503 15.4065 202.64C16.0018 202.183 15.6106 201.285 14.8622 201.455C12.8042 201.895 11.1714 203.842 10.253 205.619C9.79375 206.55 11.2395 207.295 11.7157 206.364Z" fill="#FCAC66"/>
<path d="M23.4007 210.884C23.2987 209.869 23.4007 208.87 23.7239 207.905C23.928 207.312 24.9995 205.636 23.8259 205.399C22.7204 205.179 22.2271 206.991 22.023 207.769C21.7339 208.802 21.6488 209.903 21.7679 210.952C21.853 212.002 23.5028 211.951 23.4007 210.884Z" fill="#FCAC66"/>
<path d="M31.4114 204.231C31.9897 204.604 32.551 204.959 33.1293 205.332C33.7075 205.704 34.2518 206.246 34.9662 206.06C35.3744 205.958 35.5104 205.535 35.4424 205.179C35.3234 204.519 34.4219 204.181 33.8946 203.842C33.3163 203.486 32.7551 203.114 32.1768 202.758C31.8026 202.521 31.2413 202.742 31.0542 203.114C30.8331 203.537 31.0372 203.977 31.4114 204.231Z" fill="#FCAC66"/>
<path d="M16.0879 184.897C13.7067 180.004 13.7407 179.971 13.2985 179.581C12.8393 179.175 12.0569 179.513 12.0909 180.14C12.1249 180.766 12.1249 180.648 14.6592 185.811C14.8633 186.218 15.4756 186.285 15.8328 186.065C16.258 185.794 16.292 185.303 16.0879 184.897Z" fill="#FCAC66"/>
<path d="M25.1023 184.322C25.3914 183.475 25.5615 182.595 25.6635 181.698C25.7486 180.868 25.9867 179.615 25.1873 179.074C25.0172 178.955 24.7111 178.989 24.541 179.108C23.8606 179.615 24.0817 180.733 23.9967 181.495C23.9117 182.324 23.7246 183.154 23.5035 183.966C23.3844 184.39 23.7076 184.847 24.1328 184.931C24.592 185.05 24.9492 184.745 25.1023 184.322Z" fill="#FCAC66"/>
<path d="M37.8586 184.423C37.9777 184.034 37.6545 183.695 37.3144 183.577C36.617 183.34 35.7666 184.051 35.2053 184.423C34.559 184.846 33.9637 185.337 33.4024 185.862C33.0793 186.167 33.1473 186.742 33.4704 187.03C33.8276 187.352 34.3039 187.267 34.644 186.963C36.8381 185.066 37.5355 185.388 37.8586 184.423Z" fill="#FCAC66"/>
<path d="M90.0435 68.5405L88.972 66.0519L86.3016 65.5271C85.9955 65.4594 85.8934 65.0869 86.1316 64.8837L88.1726 63.1061L87.8494 60.4143C87.8154 60.1096 88.1386 59.8895 88.4107 60.0588L90.7408 61.447L93.2071 60.3128C93.4962 60.1773 93.8024 60.4313 93.7343 60.736L93.139 63.377L94.9759 65.3578C95.18 65.5779 95.044 65.9503 94.7378 65.9842L92.0335 66.2381L90.7068 68.5913C90.5708 68.8453 90.1626 68.8114 90.0435 68.5405Z" fill="#FCAC66"/>
<path d="M41 58.878L41.8334 57.8115L44.4357 59.843L46.6298 56L47.8204 56.6603L44.8439 61.8576L41 58.878Z" fill="#50BFA5"/>
<path d="M221.168 184L219.705 185.659L217.171 184.762L214.789 187.047L212.629 186.726L212 187.843L214.874 188.283L217.137 186.116L219.773 187.047L221.967 184.542L221.168 184Z" fill="#79C3ED"/>
<path d="M79.2307 47.261C78.8565 50.8839 75.6079 53.5249 71.9681 53.1694C68.3283 52.797 65.675 49.5634 66.0322 45.9405C66.4064 42.3176 69.655 39.6765 73.2948 40.0321C76.9516 40.4045 79.6049 43.6381 79.2307 47.261Z" fill="#79C3ED"/>
<path d="M69.0087 47.2773C68.8046 49.2242 70.2333 50.9511 72.1722 51.1373C74.1282 51.3404 75.8631 49.9184 76.0501 47.9884L69.0087 47.2773Z" fill="#EFEFEF"/>
<path d="M266.061 254H-7V260.018H266.061V254Z" fill="#D3DFFF"/>
<path d="M-7 254.012H266.061" stroke="#102048" stroke-width="6" stroke-miterlimit="10"/>
</g>
<defs>
<clipPath id="clip0_6594_40726">
<rect width="260" height="260" fill="white"/>
</clipPath>
</defs>
</svg>
