<svg width="453" height="204" viewBox="0 0 453 204" fill="none" xmlns="http://www.w3.org/2000/svg">
<path d="M239.144 168.352C239.144 187.405 227.047 201.999 213.058 201.999C199.07 201.999 186.973 187.405 186.973 168.352C186.973 149.299 199.07 134.705 213.058 134.705C227.047 134.705 239.144 149.299 239.144 168.352Z" stroke="#F7941D" stroke-width="4"/>
<path d="M396.535 154.31C396.535 162.272 398.958 169.402 402.779 174.498C406.6 179.592 411.726 182.556 417.22 182.556C422.713 182.556 427.839 179.592 431.66 174.498C435.482 169.402 437.904 162.272 437.904 154.31C437.904 146.349 435.482 139.219 431.66 134.123C427.839 129.029 422.713 126.064 417.22 126.064C411.726 126.064 406.6 129.029 402.779 134.123C398.958 139.219 396.535 146.349 396.535 154.31Z" stroke="#F7941D" stroke-width="4"/>
<path d="M201.895 13.1859C204.056 13.1859 287.956 1.25311 320.363 20.6971C352.769 40.1412 374.374 56.3452 375.454 58.5056C376.534 60.6661 383.015 71.4683 352.769 69.3079C322.523 67.1474 209.101 53.1045 204.78 52.0243C200.459 50.9441 188.214 44.1294 182.813 36.5678C177.412 29.0063 170.213 13.1356 204.78 13.1356C200.459 13.2032 210.897 13.1859 201.895 13.1859Z" stroke="#F7941D" stroke-width="4" stroke-linecap="round"/>
<path d="M16.4609 166.192L176.333 174.834C174.892 158.27 179.141 123.848 207.659 118.663C243.306 112.181 254.108 157.55 251.948 176.994L385.894 170.513C385.894 150.349 390.431 107.861 421.541 107.861C447.466 107.861 452.867 147.468 447.466 166.192C452.507 145.668 453.948 98.8593 433.424 85.1765C410.739 70.0536 385.894 63.5723 385.894 63.5723" stroke="#F7941D" stroke-width="4" stroke-linecap="round"/>
<path d="M68.3125 18.2051C97.1182 18.2051 153.433 18.2051 156.89 18.2051C161.211 18.2051 176.334 9.5634 190.377 8.48319C204.419 7.40297 285.435 -1.23874 311.361 8.48319C337.286 18.2051 371.853 49.53 385.895 63.5728" stroke="#F7941D" stroke-width="4" stroke-linecap="round"/>
<path d="M68.3125 18.2032C79.4747 13.1622 117.354 2 183.895 2C267.072 2 286.516 2 299.478 5.24064" stroke="#F7941D" stroke-width="4" stroke-linecap="round"/>
<path d="M69.391 18.2031C49.9472 29.7254 10.6274 59.6833 8.89907 87.3368C7.17073 114.99 8.17893 114.702 8.89907 111.102C7.09884 115.782 3.28234 126.873 2.41817 133.786C1.33795 142.428 1.33795 165.112 15.3807 166.192" stroke="#F7941D" stroke-width="4" stroke-linecap="round"/>
<path d="M97.0578 125.145H50.5161L40.8867 146.749H87.4285L97.0578 125.145Z" stroke="#F7941D" stroke-width="4" stroke-linecap="round"/>
<path d="M19.7012 62.4919H137.275C138.04 62.4919 138.737 62.056 139.073 61.3687L160.129 18.2031" stroke="#F7941D" stroke-width="4" stroke-linecap="round"/>
</svg>
