<svg width="453" height="204" viewBox="0 0 453 204" fill="none" xmlns="http://www.w3.org/2000/svg">
<path d="M213.509 168.352C213.509 187.405 225.606 201.999 239.594 201.999C253.583 201.999 265.68 187.405 265.68 168.352C265.68 149.299 253.583 134.705 239.594 134.705C225.606 134.705 213.509 149.299 213.509 168.352Z" stroke="#F7941D" stroke-width="4"/>
<path d="M56.1151 154.31C56.1151 162.272 53.6924 169.402 49.8709 174.498C46.05 179.592 40.9241 182.556 35.4306 182.556C29.9371 182.556 24.8112 179.592 20.9902 174.498C17.1688 169.402 14.7461 162.272 14.7461 154.31C14.7461 146.349 17.1688 139.219 20.9902 134.123C24.8112 129.029 29.9371 126.064 35.4306 126.064C40.9241 126.064 46.05 129.029 49.8709 134.123C53.6924 139.219 56.1151 146.349 56.1151 154.31Z" stroke="#F7941D" stroke-width="4"/>
<path d="M250.757 13.1859C248.597 13.1859 164.696 1.25311 132.289 20.6971C99.883 40.1412 78.2787 56.3452 77.1985 58.5056C76.1183 60.6661 69.637 71.4683 99.883 69.3079C130.129 67.1474 243.551 53.1045 247.872 52.0243C252.193 50.9441 264.438 44.1294 269.839 36.5678C275.24 29.0063 282.439 13.1356 247.872 13.1356C252.193 13.2032 241.755 13.1859 250.757 13.1859Z" stroke="#F7941D" stroke-width="4" stroke-linecap="round"/>
<path d="M436.191 166.192L276.32 174.834C277.76 158.27 273.511 123.848 244.994 118.663C209.346 112.181 198.544 157.55 200.705 176.994L66.7583 170.513C66.7583 150.349 62.2214 107.861 31.1112 107.861C5.18606 107.861 -0.215011 147.468 5.18606 166.192C0.14506 145.668 -1.29523 98.8593 19.2288 85.1765C41.9133 70.0536 66.7583 63.5723 66.7583 63.5723" stroke="#F7941D" stroke-width="4" stroke-linecap="round"/>
<path d="M384.34 18.2051C355.534 18.2051 299.219 18.2051 295.762 18.2051C291.441 18.2051 276.318 9.5634 262.276 8.48319C248.233 7.40297 167.217 -1.23874 141.292 8.48319C115.367 18.2051 80.7997 49.53 66.757 63.5728" stroke="#F7941D" stroke-width="4" stroke-linecap="round"/>
<path d="M384.34 18.2032C373.178 13.1622 335.298 2 268.757 2C185.58 2 166.137 2 153.174 5.24064" stroke="#F7941D" stroke-width="4" stroke-linecap="round"/>
<path d="M383.261 18.2031C402.705 29.7254 442.025 59.6833 443.753 87.3368C445.482 114.99 444.473 114.702 443.753 111.102C445.554 115.782 449.37 126.873 450.234 133.786C451.314 142.428 451.314 165.112 437.272 166.192" stroke="#F7941D" stroke-width="4" stroke-linecap="round"/>
<path d="M355.595 125.145H402.136L411.766 146.749H365.224L355.595 125.145Z" stroke="#F7941D" stroke-width="4" stroke-linecap="round"/>
<path d="M432.951 62.4919H315.377C314.613 62.4919 313.915 62.056 313.58 61.3687L292.523 18.2031" stroke="#F7941D" stroke-width="4" stroke-linecap="round"/>
</svg>
