<svg width="261" height="260" viewBox="0 0 261 260" fill="none" xmlns="http://www.w3.org/2000/svg">
<g clip-path="url(#clip0_3293_52715)">
<g opacity="0.6">
<path d="M221.5 74.4278C221.5 75.2192 222.146 75.8656 222.938 75.8656C223.729 75.8656 224.376 75.2192 224.376 74.4278C224.376 73.6364 223.729 73.0011 222.938 73.0011C222.146 72.9899 221.5 73.6364 221.5 74.4278Z" fill="#F54A5E"/>
<path d="M232.205 130.781C232.205 131.572 232.852 132.218 233.643 132.218C234.434 132.218 235.081 131.572 235.081 130.781C235.081 129.989 234.434 129.343 233.643 129.343C232.852 129.343 232.205 129.989 232.205 130.781Z" fill="#F54A5E"/>
<path d="M152.71 43.0475C151.852 43.8835 152.242 45.6669 153.58 47.0267C154.906 48.3865 156.69 48.799 157.537 47.963C158.395 47.127 158.005 45.3436 156.678 43.9949C155.341 42.6239 153.569 42.2004 152.71 43.0475Z" fill="#F54A5E"/>
<path d="M111.982 38.1316C111.458 37.7638 110.555 38.1316 109.976 38.9676C109.385 39.7924 109.34 40.7621 109.864 41.13C110.388 41.4978 111.28 41.13 111.871 40.294C112.45 39.4803 112.495 38.4995 111.982 38.1316Z" fill="#F54A5E"/>
<path d="M168.747 73.5547C169.416 74.5467 171.233 74.491 172.804 73.4321C174.387 72.3732 175.123 70.7013 174.454 69.7092C173.785 68.7172 171.968 68.773 170.386 69.8318C168.814 70.9019 168.078 72.5627 168.747 73.5547Z" fill="#45B8D3"/>
<path d="M138.075 59.0215C136.782 61.5294 134.698 63.5357 132.146 64.7283C132.77 66.077 133.405 67.4146 134.029 68.7633C137.485 67.1582 140.305 64.4385 142.043 61.0501C140.717 60.3702 139.402 59.7014 138.075 59.0215Z" fill="#45B8D3"/>
<path d="M172.249 110.425C170.956 112.933 168.872 114.939 166.319 116.132C166.955 117.481 167.568 118.818 168.203 120.167C171.658 118.562 174.478 115.842 176.217 112.454C174.891 111.785 173.564 111.105 172.249 110.425Z" fill="#FFA256"/>
<path d="M185.5 91.363C186.704 93.3136 187.618 95.4091 188.22 97.6272C189.847 97.0364 191.474 96.4457 193.102 95.8549C192.444 93.4362 191.452 91.1401 190.137 89C188.587 89.7914 187.038 90.5828 185.5 91.363Z" fill="#45B8D3"/>
<path d="M110.801 94.4202C109.72 92.3916 108.939 90.2404 108.482 88C106.822 88.4904 105.161 88.9697 103.5 89.4602C104.002 91.9235 104.849 94.2642 106.03 96.4823C107.624 95.7912 109.218 95.1001 110.801 94.4202Z" fill="#F54267"/>
<path d="M235.287 91C234.662 93.207 233.726 95.2913 232.5 97.2307C234.027 98.0333 235.565 98.8358 237.103 99.6383C238.441 97.5205 239.466 95.2356 240.146 92.828C238.53 92.2149 236.914 91.6019 235.287 91Z" fill="#FFA256"/>
<path d="M197.395 135.361C196.771 137.568 195.834 139.653 194.608 141.592C196.147 142.395 197.674 143.197 199.212 144C200.56 141.882 201.575 139.597 202.266 137.189C200.639 136.587 199.022 135.974 197.395 135.361Z" fill="#45B8D3"/>
<path d="M128.597 74.9996L125.5 75.5977L126.487 80.7087L129.584 80.1107L128.597 74.9996Z" fill="#FFC263"/>
<path d="M208.587 50.7277C207.494 51.5637 205.789 52.4554 204.496 53.269C205.109 52.9124 203.95 53.8598 203.827 54.0047C203.448 54.4505 203.147 54.9633 202.936 55.5094C202.467 56.7244 202.367 58.0954 202.066 59.3549C201.91 59.9902 201.721 60.6144 201.464 61.2274C200.907 61.1717 200.361 61.038 199.837 60.8373C198.733 60.4249 197.741 59.7784 196.794 59.0762C196.415 58.7976 195.1 57.3931 194.654 57.4712C194.175 57.5603 193.706 58.0062 193.328 58.2848C193.027 58.5189 190.976 60.4249 190.597 60.1128C192.681 61.8182 195.769 64.4821 198.678 63.7131C199.926 63.3898 201.041 62.5873 202.133 61.9074C203.37 61.1383 204.574 60.3023 205.377 59.0539C206.257 57.6718 206.458 56.1225 206.725 54.5509C206.848 53.7929 207.004 53.035 207.327 52.3328C208.074 52.2325 208.832 52.199 209.579 52.1767C210.894 52.1321 212.388 52.2213 213.513 51.4299C214.472 50.75 215.33 49.5462 216.556 49.3456C213.747 49.8249 211.195 49.2787 208.587 50.7277Z" fill="#F54267"/>
<path d="M207.282 52.4426C206.313 52.5318 205.443 52.8104 204.552 53.2229C204.529 53.234 204.507 53.2451 204.496 53.2563C205.109 52.8996 203.95 53.847 203.827 53.992C203.448 54.4378 203.147 54.9505 202.935 55.4967C202.467 56.7116 202.367 58.0826 202.066 59.3421C201.91 59.9775 201.72 60.6017 201.464 61.2147C201.386 61.2035 201.308 61.1924 201.219 61.1813C201.286 61.2036 201.364 61.2258 201.442 61.2258C201.798 61.2481 202.166 61.2258 202.512 61.159C203.013 61.0475 203.47 60.8692 203.927 60.6462C204.485 60.1892 204.975 59.6765 205.376 59.0523C206.257 57.6702 206.458 56.1209 206.725 54.5493C206.837 53.847 206.993 53.1225 207.282 52.4426Z" fill="#D3344D"/>
<path d="M210.406 107.027C210.172 108.264 209.848 109.568 210.172 109.724C210.528 109.903 211.977 108.833 213.304 107.774C214.864 108.086 216.67 108.509 217.06 108.153C217.439 107.796 216.815 106.314 216.38 104.987C217.651 103.683 218.799 102.223 218.554 101.855C218.331 101.543 216.826 101.944 215.243 102.268C214.474 100.752 213.605 99.8266 213.181 100.027C212.702 100.25 212.033 101.521 211.431 103.282C209.157 103.995 207.608 104.943 207.508 105.389C207.396 105.834 208.511 106.436 210.406 107.027Z" fill="#FFC263"/>
<path d="M235.939 48.8544C235.883 50.192 235.738 51.563 236.073 51.8305C236.441 52.1203 237.7 51.2732 238.837 50.4149C240.398 51.1506 242.203 52.0757 242.527 51.7748C242.85 51.4738 242.047 49.657 241.445 48.0519C242.504 46.9039 243.429 45.544 243.128 45.0759C242.872 44.6746 241.468 44.7415 239.974 44.7192C239.038 42.8243 238.057 41.5648 237.678 41.6874C237.243 41.8212 236.775 43.0807 236.418 44.9087C234.301 45.1428 232.93 45.8227 232.896 46.302C232.863 46.759 234.033 47.7175 235.939 48.8544Z" fill="#45B8D3"/>
</g>
<path d="M134.141 95.7159C123.988 87.2283 82.4825 122.448 78.2586 126.136C74.4908 129.408 71.0006 133.473 64.0004 141.604C61.9181 144.023 60.1136 146.185 58.8642 149.536C56.9406 154.653 57.4364 159.471 58.0115 162.386C59.3203 163.041 61.3629 163.913 63.9805 164.35C70.0884 165.401 75.1254 163.438 77.743 162.386C100.449 153.225 111.812 148.644 114.489 146.443C132.813 131.252 141.479 101.863 134.141 95.7159Z" fill="#E5A25E"/>
<path d="M157.303 94.6699C174.12 97.5652 204.183 114.461 225.402 137.286C227.464 139.487 231.173 143.632 233.136 150.077C234.782 155.471 234.564 160.23 234.187 163.125C232.719 163.205 230.538 163.264 227.9 163.205C222.665 163.086 196.667 162.431 176.956 145.417C157.125 128.263 149.034 99.112 157.303 94.6699Z" fill="#E5A25E"/>
<path d="M94.2608 212.38C94.2608 212.38 88.1331 226.024 91.6233 335.588C93.2494 386.632 107.646 458.796 107.646 458.796L121.032 457.586L155.101 215.434L94.2608 212.38Z" fill="#241D51"/>
<path opacity="0.15" d="M94.2616 212.38C94.2616 212.38 92.1992 216.961 91.1482 242.107C92.1199 242.959 93.0916 243.812 94.0633 244.645C99.3977 249.246 104.97 253.826 109.075 259.617C111.078 262.453 112.684 265.527 113.676 268.878C115.262 274.173 114.985 279.844 114.548 285.298C113.973 292.655 112.565 300.409 114.33 307.706C115.857 313.973 118.455 319.882 120.458 326.01C122.381 331.92 123.571 338.027 122.818 344.254C122.362 348.082 121.668 351.869 121.291 355.697C120.914 359.405 120.676 363.113 120.498 366.841C119.843 382.309 120.874 397.777 121.846 413.225C122.243 419.452 122.798 425.699 122.976 431.945C123.135 437.617 122.857 443.427 121.092 448.861C119.942 452.391 118.118 455.524 115.599 458.082L120.993 457.586L155.062 215.434L94.2616 212.38Z" fill="#202234"/>
<path d="M184.073 211.17C184.073 211.17 193.631 247.936 187.821 333.922C185.283 371.64 184.727 457.486 184.727 457.486H173.226L119.266 211.785L184.073 211.17Z" fill="#241D51"/>
<path opacity="0.15" d="M173.583 448.445C174.297 446.204 174.118 443.507 173.861 441.187C173.285 435.991 171.659 430.994 170.39 425.957C169.022 420.563 168.605 415.07 168.011 409.537C166.642 397.024 165.175 384.511 163.529 372.017C160.296 347.507 156.35 323.095 151.293 298.902C150.183 293.547 148.874 288.193 148.16 282.779C147.625 278.694 148.101 274.788 150.619 271.397C150.738 271.218 150.877 271.059 151.016 270.881C151.135 270.583 151.234 270.544 151.293 270.742C151.353 270.663 151.373 270.425 151.452 270.306C151.591 270.088 151.789 269.949 152.007 269.85C152.483 269.632 153.058 269.612 153.554 269.572C155.319 269.413 157.223 269.374 158.869 268.64C160.792 267.787 160.832 265.903 160.931 264.039C161.03 262.175 161.109 260.113 162.359 258.626C165.75 254.58 171.263 254.818 175.883 255.929C178.481 256.563 181.019 257.416 183.677 257.694C185.501 257.892 187.345 257.951 189.209 257.931C187.841 225.687 184.073 211.111 184.073 211.111L119.287 211.726L171.937 451.399C172.572 450.527 173.226 449.535 173.583 448.445Z" fill="#202234"/>
<path d="M148.36 91.4334C132.912 90.6401 106.239 98.5327 101.103 135.953C95.9672 173.374 72.0118 203.338 82.8195 222.534C89.7602 234.849 106.18 235.007 139.238 225.965C172.295 216.922 180.704 228.027 190.282 219.44C200.772 210.04 189.032 177.379 187.684 163.141C184.333 128.1 186.772 93.4164 148.36 91.4334Z" fill="#F7C06B"/>
<path opacity="0.15" d="M155.201 97.5014C152.881 95.2804 148.855 92.7619 145.643 92.742C144.056 92.742 146.238 91.6712 144.631 91.9885C144.869 92.9403 143.065 93.4361 141.816 93.6939C139.515 94.2095 136.322 103.232 139.277 104.383C142.331 105.592 148.558 99.2068 149.391 123.757C154.13 124.967 164.244 106.148 155.201 97.5014Z" fill="#202234"/>
<path d="M149.766 98.4954C148.577 98.1186 146.534 93.7162 145.344 93.3394C144.769 93.6964 140.03 97.2262 139.435 97.5634C139.633 98.4954 143.302 104.663 143.5 105.575C132.553 134.21 138.542 198.224 133.981 225.154C132.236 235.466 142.171 237.826 145.186 247.88C150.203 238.5 161.129 237.469 161.982 226.839C165.909 178.274 145.285 131.434 149.39 104.683C150.084 104.147 149.945 99.0705 149.766 98.4954Z" fill="#F15A29"/>
<path d="M151.293 90.4987L154.903 92.1446C154.903 92.1446 153.534 94.6433 145.324 94.1277C137.253 95.3572 134.16 92.3429 134.16 92.3429L139.157 91.3316L141.239 81.3369C144.333 81.3766 147.228 81.3567 150.322 81.3369L151.293 90.4987Z" fill="#E9AA8E"/>
<path opacity="0.15" d="M151.295 90.4987L150.343 81.3369C147.229 81.3567 144.354 81.3766 141.26 81.3369L140.884 83.7563C141.419 84.6486 142.014 85.4815 142.748 86.2153C143.283 86.7507 143.938 87.2861 144.671 87.5439C145.346 87.762 146.04 87.8414 146.734 87.9802C147.15 88.0595 147.586 88.1785 148.003 88.3371C147.785 88.4759 147.586 88.6346 147.448 88.8527C146.992 89.5666 148.162 90.1021 148.618 90.3797C149.332 90.816 150.422 91.6092 149.867 92.6007C149.411 93.4138 148.241 93.156 147.487 93.4336C146.873 93.6716 147.15 94.1475 147.348 94.6036C147.527 95.0399 147.666 95.4365 147.646 95.8728C153.555 94.564 154.904 92.1843 154.904 92.1843L151.295 90.4987Z" fill="#33133F"/>
<path d="M156.53 73.3878C156.292 73.0705 156.133 72.7532 156.034 72.4161C156.034 72.4161 156.014 72.4954 155.974 72.6144C155.974 72.6739 155.935 72.773 155.915 72.8722C155.895 72.9911 155.855 73.0903 155.836 73.2093C155.796 73.3481 155.756 73.5266 155.697 73.7051C155.657 73.824 155.637 73.9628 155.578 74.1017C155.558 74.1612 155.538 74.2008 155.538 74.2405C155.498 74.3595 155.479 74.4586 155.439 74.5578C154.289 78.0678 151.354 84.6119 145.543 84.4731C138.008 84.2946 134.875 73.7645 134.557 72.7135C134.557 72.654 134.537 72.6342 134.537 72.6342C134.537 72.6342 134.537 72.6342 134.518 72.654C134.359 72.8523 133.09 74.3396 131.444 70.9089C129.699 67.2601 133.962 68.1525 133.962 68.1525C133.962 68.1525 131.9 53.8744 140.546 53.6761C146.456 53.5571 152.266 50.8205 155.855 56.6309C157.204 58.8122 157.462 63.3733 156.807 68.2516C157.065 67.9938 158.612 66.5858 159.147 67.9343C159.722 69.4216 158.156 75.47 156.53 73.3878Z" fill="#E9AA8E"/>
<path opacity="0.15" d="M137.017 60.6557C138.94 61.3101 141.003 61.4291 143.006 61.3894C144.83 61.3696 146.575 61.0721 148.32 60.5367C150.343 59.9219 152.326 59.0494 154.071 57.8595C154.646 57.4629 155.241 57.0068 155.757 56.4912C152.148 50.8791 146.397 53.5563 140.547 53.6951C136.997 53.7744 135.252 56.2533 134.419 59.1287C135.153 59.8029 136.005 60.3185 137.017 60.6557Z" fill="#33133F"/>
<path opacity="0.05" d="M157.819 68.6455C157.819 68.6455 159.386 68.1696 158.989 69.5379C158.593 70.8864 157.918 72.3539 156.848 72.1952C156.848 72.1952 158.097 71.6796 158.275 70.2716C158.454 68.8637 156.867 69.4586 157.819 68.6455Z" fill="#33133F"/>
<path opacity="0.05" d="M135.252 72.7383C135.213 73.5117 136.125 74.1661 137.295 74.2256C138.445 74.2851 139.417 73.6902 139.456 72.9366C139.496 72.1632 138.584 71.5088 137.414 71.4493C136.264 71.3898 135.292 71.9649 135.252 72.7383Z" fill="#33133F"/>
<path opacity="0.05" d="M150.542 72.5767C150.503 73.3501 151.415 74.0045 152.585 74.064C153.735 74.1235 154.707 73.5285 154.746 72.775C154.786 72.0016 153.874 71.3472 152.704 71.2877C151.554 71.2282 150.582 71.8033 150.542 72.5767Z" fill="#33133F"/>
<path d="M148.123 64.6643C148.103 64.6643 148.063 64.6643 148.044 64.6445C147.944 64.6048 147.885 64.4858 147.925 64.3668C147.944 64.347 149.114 61.65 152.763 62.7605C152.882 62.8002 152.942 62.9192 152.902 63.0183C152.862 63.1373 152.763 63.1968 152.644 63.1572C149.372 62.1656 148.361 64.4263 148.321 64.5255C148.282 64.6048 148.202 64.6643 148.123 64.6643Z" fill="#241D51"/>
<path d="M145.901 68.0328C145.881 68.0328 145.881 68.0328 145.861 68.0526C145.822 68.0724 145.841 68.1319 145.881 68.2113C145.941 68.2906 147.349 70.1348 145.445 70.6306C145.385 70.6504 145.385 70.7297 145.465 70.8091C145.544 70.8884 145.643 70.9479 145.723 70.9281C147.844 70.3926 146.179 68.2113 146.159 68.1914C146.079 68.0923 145.96 68.0328 145.901 68.0328Z" fill="#241D51"/>
<path d="M143.304 64.4652C143.224 64.4652 143.165 64.4256 143.125 64.3661C143.066 64.2669 141.816 62.1054 138.187 63.3746C138.088 63.4142 137.969 63.3547 137.93 63.2556C137.89 63.1564 137.949 63.0374 138.049 62.9978C142.015 61.6096 143.462 64.1678 143.482 64.1876C143.542 64.2868 143.502 64.4057 143.403 64.4652C143.383 64.4652 143.343 64.4652 143.304 64.4652Z" fill="#241D51"/>
<path d="M149.413 77.1765C149.413 77.1765 146.002 79.2587 141.718 77.8706C141.004 79.6752 146.359 83.4628 149.413 77.1765Z" fill="#FCFAF7"/>
<path d="M149.45 67.2791C149.569 68.2706 150.223 69.0044 150.897 68.925C151.572 68.8457 152.028 67.9732 151.909 66.9816C151.79 65.9901 151.135 65.2564 150.461 65.3357C149.787 65.415 149.331 66.2876 149.45 67.2791Z" fill="#241D51"/>
<path d="M139.516 67.5027C139.635 68.4943 140.289 69.228 140.964 69.1487C141.638 69.0694 142.094 68.1968 141.975 67.2053C141.856 66.2138 141.202 65.48 140.527 65.5593C139.853 65.6585 139.397 66.531 139.516 67.5027Z" fill="#241D51"/>
<path opacity="0.05" d="M145.286 82.2534C145.623 82.2137 145.841 82.1344 145.861 82.1344C145.94 82.0947 145.98 82.0154 145.96 81.9361C145.92 81.8567 145.841 81.8171 145.762 81.8369C145.742 81.8369 144.394 82.3128 143.005 81.3808C142.926 81.3411 142.827 81.361 142.787 81.4205C142.748 81.4998 142.767 81.5989 142.827 81.6386C143.779 82.293 144.711 82.3327 145.286 82.2534Z" fill="#33133F"/>
<path opacity="0.05" d="M133.051 69.0815C133.051 69.0815 131.524 68.5064 131.822 69.8945C132.139 71.2827 132.714 72.77 133.785 72.6708C133.785 72.6708 132.555 72.0759 132.476 70.6679C132.397 69.2599 133.943 69.954 133.051 69.0815Z" fill="#33133F"/>
<path d="M154.21 57.2652C154.21 57.2652 126.368 67.2796 128.946 56.0555C131.544 44.8313 137.83 48.6586 137.83 48.6586C137.83 48.6586 133.15 46.6756 135.609 44.5934C138.068 42.4913 140.785 47.5481 151.156 47.1912C161.508 46.8144 161.666 63.5713 157.046 68.0134C157.046 67.9737 150.997 65.8915 154.21 57.2652Z" fill="#241D51"/>
<path d="M136.005 57.5035C136.005 57.5035 135.806 65.2573 133.902 68.1328C133.902 68.1328 131.344 63.076 132.157 58.2373C132.97 53.4184 136.005 57.5035 136.005 57.5035Z" fill="#241D51"/>
<path opacity="0.25" d="M131.047 57.4053C131.047 57.4053 143.143 60.2609 153.911 55.0058C153.892 55.0058 141.18 62.9381 131.047 57.4053Z" fill="white"/>
<path opacity="0.25" d="M139.911 55.3818C139.911 55.3818 147.704 57.226 154.645 53.835C154.645 53.8548 146.435 58.9513 139.911 55.3818Z" fill="white"/>
<path opacity="0.25" d="M156.39 53.6338C156.39 53.6338 156.826 57.5206 154.764 60.6737C154.783 60.6737 157.738 57.005 156.39 53.6338Z" fill="white"/>
<path opacity="0.25" d="M157.322 53.8159C157.322 53.8159 159.107 59.6858 156.866 65.1591C156.866 65.1591 160.356 58.6348 157.322 53.8159Z" fill="white"/>
<path opacity="0.25" d="M132.157 51.2955C132.157 51.2955 133.168 48.6581 138.602 48.7176C138.602 48.7176 135.37 46.437 137.333 45.8223C139.296 45.2075 143.441 48.1028 146.098 47.7855C148.736 47.4881 152.067 47.607 153.138 48.1226C153.138 48.1226 148.557 47.3889 146.415 48.5192C144.274 49.6298 140.05 47.6467 140.05 47.6467C140.05 47.6467 141.953 49.8876 139.594 50.1454C137.214 50.3635 135.152 48.9555 132.157 51.2955Z" fill="white"/>
<path d="M145.266 92.3037C145.266 92.3037 146.634 102.754 138.265 99.3039C129.897 95.8534 134.141 90.7767 139.614 89.3291C139.614 89.3291 140.843 91.6295 138.265 92.6805C138.979 94.7627 145.266 92.3037 145.266 92.3037Z" fill="#241D51"/>
<path d="M145.425 92.3037C145.425 92.3037 144.056 102.754 152.425 99.3039C160.794 95.8534 156.57 90.7767 151.096 89.3291C151.096 89.3291 149.847 91.6295 152.425 92.6805C151.691 94.7627 145.425 92.3037 145.425 92.3037Z" fill="#241D51"/>
<path d="M227.703 147.826C228.456 148.738 229.686 150.027 231.49 151.098C234.029 152.625 235.278 152.288 236.349 153.696C237.737 155.52 237.955 159.209 236.17 160.042C234.742 160.716 234.009 161.39 231.887 161.688L228 161.926C227.921 157.226 227.802 152.526 227.703 147.826Z" fill="#DDAE9F"/>
<path d="M223.4 162.951C223.737 163.011 224.034 163.011 224.292 163.011C224.352 163.011 224.391 163.011 224.431 163.011C225.462 162.912 226.493 162.773 227.445 162.594C230.003 162.138 231.967 161.563 231.967 161.563C231.967 161.563 234.664 152.362 231.867 151.33C229.071 150.299 225.541 142.367 223.777 144.35C223.915 146.313 225.541 150.339 225.541 150.339C225.541 150.339 220.187 147.404 219.235 150.755C218.819 152.243 219.572 152.659 220.009 152.798C220.028 152.798 220.048 152.818 220.068 152.818C220.068 152.818 218.759 154.246 219.057 155.455C219.196 156.05 219.513 156.308 219.513 156.308C219.513 156.308 219.017 156.962 219.017 157.537C219.017 158.113 219.334 159.005 219.612 159.064C219.612 159.084 219.156 159.62 219.394 160.314C219.652 160.988 222.587 162.812 223.4 162.951Z" fill="#DDAE9F"/>
<path opacity="0.2" d="M220.405 153.135C220.405 153.413 220.346 153.691 220.346 153.968C220.346 154.464 220.485 154.88 220.782 155.277C221 155.574 221.278 155.852 221.397 156.229C221.536 156.665 221.377 157.22 221.298 157.677C221.219 158.192 221.139 158.708 221.218 159.223C221.278 159.699 221.397 160.175 221.556 160.631C221.694 161.068 221.893 161.484 222.19 161.841C222.527 162.238 222.983 162.535 223.36 162.892C223.38 162.912 223.38 162.951 223.4 162.971C222.587 162.852 219.652 161.008 219.414 160.334C219.176 159.64 219.632 159.084 219.632 159.084C219.354 159.025 219.037 158.133 219.037 157.558C219.037 156.982 219.533 156.328 219.533 156.328C219.533 156.328 219.216 156.07 219.077 155.475C218.779 154.266 220.068 152.838 220.088 152.838C220.207 152.838 220.306 152.838 220.405 152.858C220.405 152.917 220.405 153.016 220.405 153.135Z" fill="white"/>
<path opacity="0.2" d="M226.017 145.445C226.017 145.445 225.918 145.742 225.521 145.564C225.144 145.385 224.529 144.195 224.529 144.195C224.529 144.195 225.382 144.136 226.017 145.445Z" fill="white"/>
<path d="M234.501 161C238.101 158.6 235.334 154 233.5 152C235.167 152 238.501 153 238.501 157C238.501 161 235.501 162.667 234.001 163L234.501 161Z" fill="#FFF2DA"/>
<path d="M72.4091 218.015C68.2843 218.709 64.3579 215.933 63.6638 211.808L50.6747 135.064C49.9806 130.939 52.7569 127.012 56.8817 126.318C61.0065 125.624 64.9329 128.4 65.627 132.525L78.6161 209.27C79.33 213.414 76.5339 217.321 72.4091 218.015Z" fill="white"/>
<path opacity="0.2" d="M65.6277 132.546L78.6168 209.271C79.3109 213.395 76.5346 217.322 72.4098 218.016C72.0529 218.075 71.7157 218.115 71.3786 218.115C68.0272 162.946 61.3245 136.631 57.8145 126.22C59.5596 126.141 61.2055 126.656 62.554 127.608C64.1206 128.758 65.2708 130.483 65.6277 132.546Z" fill="#999999"/>
<path d="M54.739 154.222C77.4867 154.222 95.9273 135.782 95.9273 113.034C95.9273 90.2863 77.4867 71.8457 54.739 71.8457C31.9914 71.8457 13.5508 90.2863 13.5508 113.034C13.5508 135.782 31.9914 154.222 54.739 154.222Z" fill="white"/>
<path d="M54.7391 149.362C74.8034 149.362 91.0688 133.097 91.0688 113.032C91.0688 92.9679 74.8034 76.7025 54.7391 76.7025C34.6747 76.7025 18.4093 92.9679 18.4093 113.032C18.4093 133.097 34.6747 149.362 54.7391 149.362Z" fill="#5BC84B"/>
<path opacity="0.2" d="M54.7398 149.025C74.618 149.025 90.7325 132.911 90.7325 113.033C90.7325 93.1544 74.618 77.04 54.7398 77.04C34.8616 77.04 18.7472 93.1544 18.7472 113.033C18.7472 132.911 34.8616 149.025 54.7398 149.025Z" fill="#A4B7FC"/>
<path d="M69.3951 93.9424L51.607 120.456L45.2612 110.798L42.6436 110.739L53.3323 130.213C55.8111 132.791 59.2815 130.173 60.511 126.841L70.0892 92.9707L69.3951 93.9424Z" fill="#02A302"/>
<path d="M68.4234 92.2959L50.6353 118.809L42.6435 110.738L36.6943 117.144L49.029 129.974C51.5078 132.552 55.8111 131.64 57.0604 128.289L70.0891 92.9701L68.4234 92.2959Z" fill="white"/>
<path d="M58.8432 151.96C58.8432 151.96 51.0894 156.897 50.0384 157.949C48.9874 159 48.6304 163.58 50.0384 164.294C51.4464 165.008 52.1603 165.702 54.2623 166.059L58.1293 166.416L58.8432 151.96Z" fill="#DDAE9F"/>
<path d="M60.8265 167.328C60.4894 167.368 60.1721 167.368 59.9341 167.348C59.8746 167.348 59.835 167.348 59.7953 167.328C58.7641 167.189 57.7329 166.991 56.8009 166.773C54.2824 166.218 52.3191 165.543 52.3191 165.543C52.3191 165.543 50.0386 156.223 52.8744 155.311C55.7102 154.398 59.597 146.645 61.2628 148.687C61.0446 150.631 59.2202 154.577 59.2202 154.577C59.2202 154.577 64.6935 151.88 65.5065 155.271C65.8635 156.778 65.0702 157.155 64.634 157.294C64.6141 157.294 64.5943 157.314 64.5546 157.314C64.5546 157.314 65.7842 158.801 65.447 160.011C65.2884 160.586 64.9513 160.843 64.9513 160.843C64.9513 160.843 65.4074 161.518 65.3875 162.093C65.3677 162.668 65.0108 163.54 64.7331 163.6C64.7331 163.62 65.1694 164.175 64.9116 164.869C64.6538 165.543 61.6395 167.229 60.8265 167.328Z" fill="#DDAE9F"/>
<path opacity="0.2" d="M64.2368 157.651C64.2368 157.928 64.2765 158.206 64.2567 158.484C64.2368 158.979 64.0782 159.396 63.7609 159.772C63.5229 160.07 63.2255 160.328 63.1065 160.685C62.9479 161.121 63.0867 161.676 63.1263 162.132C63.1858 162.648 63.2255 163.164 63.1263 163.679C63.0272 164.155 62.9082 164.631 62.7297 165.067C62.5711 165.484 62.3529 165.92 62.0356 166.237C61.6787 166.614 61.2226 166.892 60.8061 167.229C60.7863 167.249 60.7863 167.288 60.7665 167.308C61.5795 167.209 64.5938 165.523 64.8714 164.849C65.1491 164.175 64.7128 163.6 64.6929 163.58C64.9706 163.521 65.3275 162.648 65.3474 162.073C65.3672 161.498 64.9111 160.824 64.9111 160.824C64.9111 160.824 65.2482 160.586 65.4068 159.991C65.7638 158.801 64.5343 157.313 64.5145 157.294C64.3955 157.274 64.2963 157.294 64.1972 157.294C64.2567 157.452 64.2567 157.551 64.2368 157.651Z" fill="white"/>
<path opacity="0.2" d="M59.0018 149.719C59.0018 149.719 59.0811 150.037 59.4778 149.858C59.8744 149.68 60.5288 148.549 60.5288 148.549C60.5288 148.549 59.6761 148.45 59.0018 149.719Z" fill="white"/>
<path d="M23.4778 33.0108C21.3857 35.9227 23.3247 40.1551 26.3352 41.5095C29.6688 43.0162 33.8019 41.8481 35.9789 38.97C38.3261 35.8381 37.7478 32.0289 34.7033 30.0651C31.7439 28.169 28.2911 29.845 27.6788 33.0786C27.2536 35.3979 28.6653 37.1078 29.8729 37.057C30.8254 37.0062 31.3527 35.9227 30.5873 35.2625C30.2811 35.0085 29.8219 35.0085 29.4987 35.1609C28.9034 34.4498 28.9205 32.7061 30.2131 31.4872C31.8629 29.9297 34.3121 31.1147 35.3326 32.7907C36.6253 34.9239 35.6218 37.4972 33.8699 39.0547C32.05 40.6799 29.1926 41.2047 26.9305 40.2059C24.3792 39.0547 23.2226 36.0243 24.3452 33.4849C24.6343 32.8923 23.852 32.486 23.4778 33.0108Z" fill="#66C3FA"/>
<path d="M23.7308 190.536C23.7308 190.536 24.9724 188.369 27.8978 188.047C30.5001 187.759 32.5241 189.605 32.7963 192.009C33.1024 194.785 31.0444 198.34 25.0234 201.896C18.3561 199.746 15.5497 196.749 15.2436 193.973C14.9714 191.585 16.5362 189.317 19.1385 189.029C22.0299 188.691 23.7308 190.536 23.7308 190.536Z" fill="#FCAC66"/>
<path d="M2.351 194.022C4.91927 194.141 6.9943 194.124 9.0353 193.988C9.69863 193.954 10.8892 194.073 11.3144 193.48C11.5355 193.176 11.5526 192.803 11.2634 192.515C10.7362 191.991 9.73266 192.278 9.05232 192.312C6.9943 192.431 4.64714 192.481 2.28298 192.38C1.84076 192.363 1.48357 192.82 1.50058 193.226C1.51759 193.717 1.90879 194.005 2.351 194.022Z" fill="#FCAC66"/>
<path d="M37.1161 197.222C38.1026 197.171 39.0891 197.121 40.0755 197.053C41.028 197.002 42.1506 197.104 43.018 196.714C43.6643 196.443 43.6643 195.563 42.967 195.36C42.0485 195.089 40.96 195.326 40.0075 195.377C39.021 195.445 38.0346 195.495 37.0481 195.58C35.9935 195.682 36.0446 197.273 37.1161 197.222Z" fill="#FCAC66"/>
<path d="M12.2157 206.364C13.3382 204.231 14.801 203.503 15.9065 202.64C16.5018 202.183 16.1106 201.285 15.3622 201.455C13.3042 201.895 11.6714 203.842 10.753 205.619C10.2937 206.55 11.7395 207.295 12.2157 206.364Z" fill="#FCAC66"/>
<path d="M23.9008 210.884C23.7988 209.869 23.9008 208.87 24.224 207.905C24.4281 207.312 25.4996 205.636 24.326 205.399C23.2205 205.179 22.7273 206.991 22.5232 207.769C22.234 208.802 22.149 209.903 22.268 210.952C22.3531 212.002 24.0029 211.951 23.9008 210.884Z" fill="#FCAC66"/>
<path d="M31.9116 204.231C32.4899 204.604 33.0512 204.959 33.6295 205.332C34.2078 205.704 34.7521 206.246 35.4664 206.06C35.8746 205.958 36.0107 205.535 35.9427 205.179C35.8236 204.519 34.9221 204.181 34.3949 203.842C33.8166 203.486 33.2553 203.114 32.677 202.758C32.3028 202.521 31.7416 202.742 31.5545 203.114C31.3334 203.537 31.5375 203.977 31.9116 204.231Z" fill="#FCAC66"/>
<path d="M16.5879 184.897C14.2067 180.004 14.2407 179.971 13.7985 179.581C13.3393 179.175 12.5569 179.513 12.5909 180.14C12.6249 180.766 12.6249 180.648 15.1592 185.811C15.3633 186.218 15.9756 186.285 16.3328 186.065C16.758 185.794 16.792 185.303 16.5879 184.897Z" fill="#FCAC66"/>
<path d="M25.6023 184.322C25.8914 183.475 26.0615 182.595 26.1635 181.698C26.2486 180.868 26.4867 179.615 25.6873 179.074C25.5172 178.955 25.2111 178.989 25.041 179.108C24.3606 179.615 24.5817 180.733 24.4967 181.495C24.4117 182.324 24.2246 183.154 24.0035 183.966C23.8844 184.39 24.2076 184.847 24.6328 184.931C25.092 185.05 25.4492 184.745 25.6023 184.322Z" fill="#FCAC66"/>
<path d="M38.3586 184.423C38.4777 184.034 38.1545 183.695 37.8144 183.577C37.117 183.34 36.2666 184.051 35.7053 184.423C35.059 184.846 34.4637 185.337 33.9024 185.862C33.5793 186.167 33.6473 186.742 33.9704 187.03C34.3276 187.352 34.8039 187.267 35.144 186.963C37.3381 185.066 38.0355 185.388 38.3586 184.423Z" fill="#FCAC66"/>
<path d="M90.5435 68.5405L89.472 66.0519L86.8016 65.5271C86.4955 65.4594 86.3934 65.0869 86.6316 64.8837L88.6726 63.1061L88.3494 60.4143C88.3154 60.1096 88.6386 59.8895 88.9107 60.0588L91.2408 61.447L93.7071 60.3128C93.9962 60.1773 94.3024 60.4313 94.2343 60.736L93.639 63.377L95.4759 65.3578C95.68 65.5779 95.544 65.9503 95.2378 65.9842L92.5335 66.2381L91.2068 68.5913C91.0708 68.8453 90.6626 68.8114 90.5435 68.5405Z" fill="#FCAC66"/>
<path d="M41.5 58.878L42.3334 57.8115L44.9357 59.843L47.1298 56L48.3204 56.6603L45.3439 61.8576L41.5 58.878Z" fill="#50BFA5"/>
<path d="M221.668 184L220.205 185.659L217.671 184.762L215.289 187.047L213.129 186.726L212.5 187.843L215.374 188.283L217.637 186.116L220.273 187.047L222.467 184.542L221.668 184Z" fill="#79C3ED"/>
<path d="M79.7307 47.261C79.3565 50.8839 76.1079 53.5249 72.4681 53.1694C68.8283 52.797 66.175 49.5634 66.5322 45.9405C66.9064 42.3176 70.155 39.6765 73.7948 40.0321C77.4516 40.4045 80.1049 43.6381 79.7307 47.261Z" fill="#79C3ED"/>
<path d="M69.5086 47.2773C69.3045 49.2242 70.7332 50.9511 72.6721 51.1373C74.6281 51.3404 76.3629 49.9184 76.55 47.9884L69.5086 47.2773Z" fill="#EFEFEF"/>
<path d="M266.561 254H-6.5V260.018H266.561V254Z" fill="#D3DFFF"/>
<path d="M-6.5 254.012H266.561" stroke="#102048" stroke-width="6" stroke-miterlimit="10"/>
</g>
<defs>
<clipPath id="clip0_3293_52715">
<rect width="260" height="260" fill="white" transform="translate(0.5)"/>
</clipPath>
</defs>
</svg>
