<svg width="41" height="40" viewBox="0 0 41 40" fill="none" xmlns="http://www.w3.org/2000/svg">
<path d="M33.0167 9.75004L23.1167 4.03337C21.5 3.10004 19.5 3.10004 17.8667 4.03337L7.98334 9.75004C6.36667 10.6834 5.36667 12.4167 5.36667 14.3V25.7C5.36667 27.5667 6.36667 29.3 7.98334 30.25L17.8833 35.9667C19.5 36.9 21.5 36.9 23.1333 35.9667L33.0333 30.25C34.65 29.3167 35.65 27.5834 35.65 25.7V14.3C35.6333 12.4167 34.6333 10.7 33.0167 9.75004ZM19.25 12.9167C19.25 12.2334 19.8167 11.6667 20.5 11.6667C21.1833 11.6667 21.75 12.2334 21.75 12.9167V21.6667C21.75 22.35 21.1833 22.9167 20.5 22.9167C19.8167 22.9167 19.25 22.35 19.25 21.6667V12.9167ZM22.0333 27.7167C21.95 27.9167 21.8333 28.1 21.6833 28.2667C21.3667 28.5834 20.95 28.75 20.5 28.75C20.2833 28.75 20.0667 28.7 19.8667 28.6167C19.65 28.5334 19.4833 28.4167 19.3167 28.2667C19.1667 28.1 19.05 27.9167 18.95 27.7167C18.8667 27.5167 18.8333 27.3 18.8333 27.0834C18.8333 26.65 19 26.2167 19.3167 25.9C19.4833 25.75 19.65 25.6334 19.8667 25.55C20.4833 25.2834 21.2167 25.4334 21.6833 25.9C21.8333 26.0667 21.95 26.2334 22.0333 26.45C22.1167 26.65 22.1667 26.8667 22.1667 27.0834C22.1667 27.3 22.1167 27.5167 22.0333 27.7167Z" fill="#F89E5B"/>
</svg>
