<svg width="25" height="24" viewBox="0 0 25 24" fill="none" xmlns="http://www.w3.org/2000/svg">
<path d="M22.9365 11.5453L21.1996 7.61546C21.1387 7.47609 21.0388 7.35735 20.9118 7.27365C20.7849 7.18995 20.6364 7.14487 20.4843 7.14387H16.2794L16.5309 4.87243C16.5433 4.76216 16.5322 4.65052 16.4983 4.54486C16.4644 4.43919 16.4086 4.3419 16.3344 4.25937C16.2609 4.17795 16.1712 4.11281 16.071 4.06814C15.9709 4.02347 15.8625 4.00026 15.7528 4H4.93001C4.72155 4 4.52164 4.08281 4.37424 4.2302C4.22685 4.3776 4.14404 4.57752 4.14404 4.78597C4.14404 4.99442 4.22685 5.19433 4.37424 5.34173C4.52164 5.48913 4.72155 5.57194 4.93001 5.57194H8.85985C9.0683 5.57194 9.26821 5.65474 9.41561 5.80214C9.56301 5.94954 9.64582 6.14945 9.64582 6.35791C9.64582 6.56636 9.56301 6.76627 9.41561 6.91367C9.26821 7.06107 9.0683 7.14387 8.85985 7.14387H3.35807C3.14962 7.14387 2.9497 7.22668 2.80231 7.37408C2.65491 7.52148 2.5721 7.72139 2.5721 7.92984C2.5721 8.13829 2.65491 8.33821 2.80231 8.48561C2.9497 8.633 3.14962 8.71581 3.35807 8.71581H11.2178C11.4262 8.71581 11.6261 8.79862 11.7735 8.94602C11.9209 9.09341 12.0037 9.29333 12.0037 9.50178C12.0037 9.71023 11.9209 9.91015 11.7735 10.0575C11.6261 10.2049 11.4262 10.2877 11.2178 10.2877H5.71597C5.50752 10.2877 5.30761 10.3706 5.16021 10.518C5.01281 10.6654 4.93001 10.8653 4.93001 11.0737C4.93001 11.2822 5.01281 11.4821 5.16021 11.6295C5.30761 11.7769 5.50752 11.8597 5.71597 11.8597H8.85985C9.0683 11.8597 9.26821 11.9425 9.41561 12.0899C9.56301 12.2373 9.64582 12.4372 9.64582 12.6457C9.64582 12.8541 9.56301 13.054 9.41561 13.2014C9.26821 13.3488 9.0683 13.4316 8.85985 13.4316H2.5721C2.36365 13.4316 2.16374 13.5144 2.01634 13.6618C1.86894 13.8092 1.78613 14.0091 1.78613 14.2176C1.78613 14.426 1.86894 14.626 2.01634 14.7734C2.16374 14.9208 2.36365 15.0036 2.5721 15.0036H4.14404C4.35249 15.0036 4.5524 15.0864 4.6998 15.2338C4.8472 15.3812 4.93001 15.5811 4.93001 15.7895C4.93001 15.998 4.8472 16.1979 4.6998 16.3453C4.5524 16.4927 4.35249 16.5755 4.14404 16.5755H3.35807C3.14962 16.5755 2.9497 16.6583 2.80231 16.8057C2.65491 16.9531 2.5721 17.153 2.5721 17.3615C2.5721 17.5699 2.65491 17.7698 2.80231 17.9172C2.9497 18.0646 3.14962 18.1474 3.35807 18.1474H5.59808C5.68295 18.4789 5.84448 18.7858 6.06966 19.0434C6.26048 19.2568 6.4943 19.4273 6.75575 19.5438C7.0172 19.6603 7.30035 19.7201 7.58658 19.7194C8.07093 19.7055 8.54041 19.549 8.93612 19.2693C9.33182 18.9897 9.63613 18.5994 9.81087 18.1474H15.8157C15.9005 18.4789 16.0621 18.7858 16.2873 19.0434C16.4781 19.2568 16.7119 19.4273 16.9733 19.5438C17.2348 19.6603 17.5179 19.7201 17.8042 19.7194C18.2885 19.7055 18.758 19.549 19.1537 19.2693C19.5494 18.9897 19.8537 18.5994 20.0285 18.1474H21.6004C21.7947 18.1486 21.9826 18.0778 22.1277 17.9486C22.2728 17.8194 22.365 17.641 22.3864 17.4479L22.9916 11.9461C23.0131 11.81 22.994 11.6706 22.9365 11.5453ZM7.58658 18.1474C7.5214 18.1502 7.45644 18.1383 7.39655 18.1124C7.33665 18.0866 7.28339 18.0475 7.24075 17.9981C7.17906 17.9218 7.13392 17.8334 7.10821 17.7387C7.0825 17.644 7.07678 17.545 7.09142 17.4479C7.11149 17.2272 7.20677 17.0202 7.3613 16.8613C7.51582 16.7025 7.72022 16.6016 7.94027 16.5755C8.00544 16.5727 8.07041 16.5847 8.1303 16.6105C8.19019 16.6364 8.24345 16.6755 8.28609 16.7248C8.34779 16.8012 8.39293 16.8895 8.41864 16.9842C8.44435 17.0789 8.45006 17.178 8.43543 17.275C8.41535 17.4957 8.32007 17.7028 8.16555 17.8616C8.01102 18.0204 7.80663 18.1213 7.58658 18.1474ZM17.8042 18.1474C17.739 18.1502 17.674 18.1383 17.6141 18.1124C17.5542 18.0866 17.501 18.0475 17.4583 17.9981C17.3966 17.9218 17.3515 17.8334 17.3258 17.7387C17.3001 17.644 17.2944 17.545 17.309 17.4479C17.3291 17.2272 17.4244 17.0202 17.5789 16.8613C17.7334 16.7025 17.9378 16.6016 18.1579 16.5755C18.223 16.5727 18.288 16.5847 18.3479 16.6105C18.4078 16.6364 18.461 16.6755 18.5037 16.7248C18.5654 16.8012 18.6105 16.8895 18.6362 16.9842C18.6619 17.0789 18.6677 17.178 18.653 17.275C18.6329 17.4957 18.5377 17.7028 18.3831 17.8616C18.2286 18.0204 18.0242 18.1213 17.8042 18.1474ZM21.341 12.6457H17.867C17.7574 12.6454 17.649 12.6222 17.5488 12.5775C17.4486 12.5328 17.3589 12.4677 17.2854 12.3863C17.2113 12.3038 17.1554 12.2065 17.1215 12.1008C17.0877 11.9951 17.0766 11.8835 17.0889 11.7732L17.3483 9.41532C17.3715 9.22362 17.4644 9.04715 17.6094 8.91958C17.7543 8.79201 17.9412 8.72228 18.1343 8.72367H19.9656L21.4353 11.9854L21.341 12.6457Z" fill="#64748B"/>
<path d="M2.57194 11.8597C2.78039 11.8597 2.9803 11.7768 3.1277 11.6295C3.2751 11.4821 3.35791 11.2821 3.35791 11.0737C3.35791 10.8652 3.2751 10.6653 3.1277 10.5179C2.9803 10.3705 2.78039 10.2877 2.57194 10.2877H1.78597C1.57752 10.2877 1.3776 10.3705 1.2302 10.5179C1.08281 10.6653 1 10.8652 1 11.0737C1 11.2821 1.08281 11.4821 1.2302 11.6295C1.3776 11.7768 1.57752 11.8597 1.78597 11.8597H2.57194Z" fill="#64748B"/>
</svg>
