<svg width="25" height="25" viewBox="0 0 25 25" fill="none" xmlns="http://www.w3.org/2000/svg">
<path d="M16.7548 4.10843C17.3011 3.05357 18.5992 2.64136 19.6541 3.18774C20.7106 3.73499 21.1221 5.03606 20.5725 6.09137L18.3633 10.333C18.2749 10.5028 18.1654 10.6578 18.0387 10.7951C18.6424 11.689 18.8295 12.8384 18.447 13.9265C18.3598 14.1744 18.2678 14.4329 18.1721 14.6971C18.1314 14.8096 18.0009 14.8601 17.8948 14.8047L10.7664 11.0796C10.651 11.0193 10.6243 10.8658 10.7115 10.7691C10.889 10.5726 11.0617 10.3753 11.2275 10.1812C12.0072 9.26872 13.1627 8.75255 14.3297 8.7908C14.343 8.76361 14.3569 8.73654 14.3715 8.70957L16.7548 4.10843Z" fill="#64748B"/>
<path d="M9.72118 11.9849C9.64626 11.9458 9.55484 11.9586 9.49291 12.0162C9.05413 12.4239 8.61637 12.7797 8.20795 13.0331C6.82884 13.8886 5.68871 14.197 4.98069 14.3064C4.5666 14.3704 4.2305 14.637 4.06678 14.9827C3.89576 15.3438 3.90865 15.8171 4.24099 16.1833C4.60718 16.5868 5.14963 17.1208 5.932 17.7633C5.97788 17.801 6.03835 17.8158 6.09654 17.8041C6.64381 17.6941 7.2136 17.5903 7.71085 17.3303C7.85557 17.2547 8.07223 17.1199 8.34395 16.8869C8.61451 16.6548 9.02632 16.6797 9.26375 16.9425C9.50115 17.2053 9.47428 17.6063 9.20372 17.8384C8.86015 18.133 8.56141 18.3246 8.32453 18.4484C8.13072 18.5497 7.92791 18.6339 7.72084 18.7056C7.56353 18.7602 7.52672 18.9721 7.66332 19.0674C8.05741 19.342 8.48721 19.6287 8.95561 19.9266C9.19516 20.079 9.43138 20.2222 9.66294 20.3567C9.72903 20.3951 9.81144 20.3916 9.87362 20.3471C10.2079 20.108 10.4958 19.8681 10.7304 19.6479C11.2614 19.1498 11.7195 18.6011 12.09 17.9699C12.2702 17.6628 12.6667 17.5547 12.9756 17.7285C13.2844 17.9023 13.3886 18.2923 13.2083 18.5994C12.7747 19.3382 12.2381 19.985 11.616 20.5687C11.5083 20.6697 11.3913 20.7741 11.2653 20.8805C11.1539 20.9746 11.1738 21.1538 11.306 21.2156C12.0938 21.5834 12.7567 21.8317 13.2129 21.9858C13.8746 22.2093 14.5818 21.9537 14.9615 21.385C15.4415 20.6661 16.2846 19.3103 17.0085 17.6605C17.1963 17.2324 17.3874 16.7658 17.5746 16.2875C17.6114 16.1936 17.5714 16.0872 17.482 16.0406L9.72118 11.9849Z" fill="#64748B"/>
<path d="M6.07308 10.2326C6.58777 10.2326 7.00502 9.81531 7.00502 9.30059C7.00502 8.78591 6.58777 8.36865 6.07308 8.36865C5.55837 8.36865 5.14111 8.78591 5.14111 9.30059C5.14111 9.81531 5.55837 10.2326 6.07308 10.2326Z" fill="#64748B"/>
<path d="M3.53597 13.0973C4.05065 13.0973 4.46791 12.6801 4.46791 12.1653C4.46791 11.6507 4.05065 11.2334 3.53597 11.2334C3.02125 11.2334 2.60401 11.6507 2.604 12.1653C2.604 12.6801 3.02125 13.0973 3.53597 13.0973Z" fill="#64748B"/>
</svg>
