<svg width="24" height="25" viewBox="0 0 24 25" fill="none" xmlns="http://www.w3.org/2000/svg">
<path d="M14.6247 21.8264V22.5276C14.6247 23.0856 14.2148 23.5498 13.6814 23.6288L13.5086 24.2659C13.4148 24.6115 13.1037 24.8535 12.7432 24.8535H11.0296C10.6691 24.8535 10.358 24.6115 10.2642 24.2659L10.0963 23.6288C9.55799 23.5449 9.14811 23.0856 9.14811 22.5227V21.8214C9.14811 21.4461 9.44935 21.1449 9.82465 21.1449H13.9481C14.3234 21.1498 14.6247 21.451 14.6247 21.8264ZM17.8 12.3745C17.8 13.9696 17.1679 15.4165 16.1407 16.4782C15.3605 17.2881 14.8568 18.3202 14.6889 19.4214C14.6148 19.8955 14.2049 20.2461 13.721 20.2461H10.0518C9.5728 20.2461 9.15799 19.9004 9.08885 19.4264C8.91601 18.3251 8.40737 17.2782 7.62712 16.4733C6.61972 15.4264 5.99256 14.0041 5.97774 12.4387C5.94317 9.14981 8.56046 6.48808 11.8493 6.46339C15.1333 6.4387 17.8 9.09549 17.8 12.3745ZM12.5555 8.79426C12.5555 8.42882 12.2592 8.12759 11.8889 8.12759C9.53823 8.12759 7.62219 10.0387 7.62219 12.3943C7.62219 12.7597 7.91848 13.0609 8.28885 13.0609C8.65428 13.0609 8.95552 12.7646 8.95552 12.3943C8.95552 10.7745 10.274 9.46092 11.8889 9.46092C12.2592 9.46092 12.5555 9.16463 12.5555 8.79426ZM11.8889 4.52265C12.2543 4.52265 12.5555 4.22636 12.5555 3.85598V1.52018C12.5555 1.15475 12.2592 0.853516 11.8889 0.853516C11.5185 0.853516 11.2222 1.14981 11.2222 1.52018V3.85598C11.2222 4.22636 11.5234 4.52265 11.8889 4.52265ZM4.04194 12.3696C4.04194 12.0041 3.74564 11.7029 3.37527 11.7029H1.03947C0.674037 11.7029 0.372803 11.9992 0.372803 12.3696C0.372803 12.735 0.669099 13.0362 1.03947 13.0362H3.37527C3.74564 13.0362 4.04194 12.7399 4.04194 12.3696ZM22.7382 11.7029H20.4024C20.037 11.7029 19.7358 11.9992 19.7358 12.3696C19.7358 12.735 20.0321 13.0362 20.4024 13.0362H22.7382C23.1037 13.0362 23.4049 12.7399 23.4049 12.3696C23.4049 12.0041 23.1086 11.7029 22.7382 11.7029ZM5.39996 17.9202L3.74564 19.5745C3.48391 19.8362 3.48391 20.256 3.74564 20.5177C3.87404 20.6461 4.04688 20.7103 4.21478 20.7103C4.38268 20.7103 4.55552 20.6461 4.68391 20.5177L6.33823 18.8634C6.59996 18.6017 6.59996 18.1819 6.33823 17.9202C6.08144 17.6585 5.65675 17.6585 5.39996 17.9202ZM17.9086 7.01648C18.0765 7.01648 18.2493 6.95228 18.3777 6.82389L20.0321 5.16957C20.2938 4.90784 20.2938 4.48808 20.0321 4.22636C19.7703 3.96463 19.3506 3.96463 19.0889 4.22636L17.4345 5.88068C17.1728 6.1424 17.1728 6.56216 17.4345 6.82389C17.5679 6.95228 17.7358 7.01648 17.9086 7.01648ZM5.39996 6.81895C5.52836 6.94734 5.7012 7.01154 5.8691 7.01154C6.037 7.01154 6.20984 6.94734 6.33823 6.81895C6.59996 6.55722 6.59996 6.13747 6.33823 5.87574L4.68391 4.22142C4.42219 3.95969 4.00243 3.95969 3.7407 4.22142C3.47898 4.48315 3.47898 4.9029 3.7407 5.16463L5.39996 6.81895ZM18.3777 17.9202C18.116 17.6585 17.6963 17.6585 17.4345 17.9202C17.1728 18.1819 17.1728 18.6017 17.4345 18.8634L19.0889 20.5177C19.2172 20.6461 19.3901 20.7103 19.558 20.7103C19.7259 20.7103 19.8987 20.6461 20.0271 20.5177C20.2889 20.256 20.2889 19.8362 20.0271 19.5745L18.3777 17.9202Z" fill="#64748B"/>
</svg>
