<svg width="24" height="24" viewBox="0 0 24 24" fill="none" xmlns="http://www.w3.org/2000/svg">
<g clip-path="url(#clip0_3293_49925)">
<path d="M16.489 6.851C16.1709 6.80931 16.039 6.97492 15.9973 7.04916C15.9556 7.12226 15.8791 7.32155 16.0778 7.57514L17.1132 8.90636C17.3554 9.14907 17.7438 9.17308 18.0162 8.96232L19.2823 7.98519C19.4536 7.8544 19.4975 7.71447 19.5039 7.62142C19.5175 7.40152 19.3456 7.2171 19.0647 7.18055L18.4433 7.10117C18.3691 7.0903 18.2908 7.00066 18.2862 6.91789C18.1926 5.11605 17.4359 3.41759 16.1548 2.13605C15.1931 1.17428 13.9841 0.503289 12.6586 0.193148C11.7146 -0.0290216 10.7477 -0.0598386 9.78539 0.102309C7.96754 0.410121 6.34678 1.3753 5.22286 2.82018C5.12861 2.94183 5.05611 3.11312 5.28569 3.34275C5.32797 3.38504 5.38393 3.43473 5.44676 3.48382C5.58669 3.59234 5.91051 3.84192 6.11607 3.5786C7.09093 2.32561 8.45303 1.51523 9.97901 1.25765C10.7854 1.12112 11.5975 1.14627 12.3936 1.33188C13.5061 1.59287 14.5215 2.15707 15.3285 2.96465C16.3782 4.01374 17.0121 5.40385 17.1138 6.87781L17.0528 6.9235L16.489 6.851Z" fill="#64748B"/>
<path d="M21.4619 12.3987H12.3608V13.9915H20.3699C20.5493 13.9915 20.6943 14.1371 20.6943 14.3164V20.7802C20.6943 20.9595 20.5493 21.1051 20.3699 21.1051H12.3608V22.699H21.4624C22.1153 22.699 22.6434 22.1696 22.6434 21.5185V13.5786C22.6435 12.9263 22.1147 12.3987 21.4619 12.3987Z" fill="#64748B"/>
<path d="M10.4768 24C11.1284 24 11.6573 23.4711 11.6573 22.8189V7.67333C11.6573 7.02056 11.1278 6.49231 10.4768 6.49231H2.53682C1.88405 6.49231 1.35693 7.02116 1.35693 7.67333V22.8189C1.35693 23.4717 1.88465 24 2.53682 24H10.4768ZM6.48713 23.2787C6.07594 23.2787 5.74358 22.9463 5.74358 22.5357C5.74358 22.1251 6.07594 21.7921 6.48713 21.7921C6.89719 21.7921 7.23014 22.1251 7.23014 22.5357C7.22955 22.9463 6.89659 23.2787 6.48713 23.2787ZM2.94915 8.7653C2.94915 8.58601 3.09475 8.44089 3.2741 8.44089H9.73779C9.91714 8.44089 10.0627 8.58596 10.0627 8.7653V20.426C10.0627 20.6054 9.91714 20.7504 9.73779 20.7504H3.2747C3.09541 20.7504 2.94974 20.6054 2.94974 20.426V8.7653H2.94915Z" fill="#64748B"/>
</g>
<defs>
<clipPath id="clip0_3293_49925">
<rect width="24" height="24" fill="white"/>
</clipPath>
</defs>
</svg>
