<svg width="24" height="24" viewBox="0 0 24 24" fill="none" xmlns="http://www.w3.org/2000/svg">
<path d="M21.75 22C21.75 22.1989 21.671 22.3897 21.5303 22.5303C21.3897 22.671 21.1989 22.75 21 22.75H3C2.80109 22.75 2.61032 22.671 2.46967 22.5303C2.32902 22.3897 2.25 22.1989 2.25 22C2.25 21.8011 2.32902 21.6103 2.46967 21.4697C2.61032 21.329 2.80109 21.25 3 21.25H21C21.1989 21.25 21.3897 21.329 21.5303 21.4697C21.671 21.6103 21.75 21.8011 21.75 22ZM3 2.75H21C21.1989 2.75 21.3897 2.67098 21.5303 2.53033C21.671 2.38968 21.75 2.19891 21.75 2C21.75 1.80109 21.671 1.61032 21.5303 1.46967C21.3897 1.32902 21.1989 1.25 21 1.25H3C2.80109 1.25 2.61032 1.32902 2.46967 1.46967C2.32902 1.61032 2.25 1.80109 2.25 2C2.25 2.19891 2.32902 2.38968 2.46967 2.53033C2.61032 2.67098 2.80109 2.75 3 2.75ZM14.3 8.25C14.4415 8.38655 14.631 8.46206 14.8277 8.46026C15.0243 8.45846 15.2124 8.37949 15.3514 8.24037C15.4904 8.10125 15.5691 7.9131 15.5708 7.71645C15.5724 7.5198 15.4967 7.33039 15.36 7.189L12.53 4.36C12.3867 4.2247 12.1971 4.14932 12 4.14932C11.8029 4.14932 11.6133 4.2247 11.47 4.36L8.642 7.189C8.51196 7.3314 8.44177 7.51842 8.446 7.71122C8.45024 7.90402 8.52857 8.08777 8.66474 8.22433C8.80091 8.36088 8.98444 8.43974 9.17723 8.44452C9.37001 8.4493 9.55723 8.37964 9.7 8.25L11.25 6.7V16.909L9.7 15.36C9.55848 15.2234 9.369 15.1479 9.17235 15.1497C8.9757 15.1515 8.78763 15.2305 8.64864 15.3696C8.50965 15.5087 8.43086 15.6969 8.42924 15.8935C8.42763 16.0902 8.50331 16.2796 8.64 16.421L11.47 19.25C11.5395 19.3198 11.6221 19.3752 11.713 19.4129C11.804 19.4507 11.9015 19.4702 12 19.4702C12.0985 19.4702 12.196 19.4507 12.287 19.4129C12.3779 19.3752 12.4605 19.3198 12.53 19.25L15.358 16.421C15.488 16.2786 15.5582 16.0916 15.554 15.8988C15.5498 15.706 15.4714 15.5222 15.3353 15.3857C15.1991 15.2491 15.0156 15.1703 14.8228 15.1655C14.63 15.1607 14.4428 15.2304 14.3 15.36L12.75 16.909V6.7L14.3 8.25Z" fill="#64748B"/>
</svg>
