<svg width="25" height="24" viewBox="0 0 25 24" fill="none" xmlns="http://www.w3.org/2000/svg">
<path fill-rule="evenodd" clip-rule="evenodd" d="M8.32969 9.08711C8.17344 9.08711 8.02657 9.02617 7.91602 8.91563L7.20352 8.20313L8.42344 7.56836L8.42653 7.56677C8.42844 7.56577 8.43024 7.56483 8.43204 7.56406C9.16954 7.19492 9.99532 7 10.8199 7H12.2566C13.0466 6.99961 13.8358 7.19098 14.5387 7.55117C14.7551 7.66211 14.9711 7.80195 15.1813 7.96641L16.6109 9.08711H8.32969ZM19.791 10.259C20.5137 10.259 21.2313 10.4086 21.8867 10.7137C22.5629 11.0282 23 11.7184 23 12.4731V13.3071C23 14.0774 22.3754 14.702 21.6051 14.702H21.5883C21.5883 13.0305 20.2281 11.6704 18.5566 11.6704C16.8852 11.6704 15.525 13.0305 15.525 14.702H10.4969C10.4969 13.0305 9.13672 11.6704 7.46523 11.6704C5.83398 11.6704 4.49922 12.9661 4.43633 14.5821C4.29297 14.5602 3.79531 14.4618 3.45195 14.1086C3.01914 13.6637 3.00117 13.1235 3 13.0083V11.079C3 10.177 3.675 9.41256 4.56992 9.30045C4.88203 9.26138 5.18555 9.1856 5.47656 9.07349C5.6732 9.00132 5.88857 8.88819 6.07852 8.78842L6.07853 8.78841L6.07853 8.78841L6.11289 8.77037L7.08711 9.74459C7.41914 10.0762 7.86016 10.259 8.32969 10.259H19.791ZM12.4039 13.052H13.5961C13.9176 13.052 14.182 12.7876 14.182 12.4661C14.182 12.1446 13.9176 11.8801 13.5961 11.8801H12.4039C12.0805 11.8801 11.818 12.1422 11.818 12.4661C11.818 12.7895 12.0805 13.052 12.4039 13.052ZM7.46529 12.8422C6.43966 12.8422 5.60556 13.6766 5.60556 14.7019C5.60556 15.7275 6.43966 16.5619 7.46529 16.5619C8.49056 16.5619 9.32502 15.7275 9.32502 14.7019C9.32502 13.6766 8.49056 12.8422 7.46529 12.8422ZM16.697 14.7019C16.697 13.6766 17.5311 12.8422 18.5567 12.8422C19.582 12.8422 20.4164 13.6766 20.4164 14.7019C20.4164 15.7275 19.582 16.5619 18.5567 16.5619C17.5311 16.5619 16.697 15.7275 16.697 14.7019Z" fill="#64748B"/>
<path d="M18 1H22C22.5523 1 23 1.44772 23 2V5" stroke="#64748B" stroke-width="1.5" stroke-linecap="round"/>
<path d="M7 1H3C2.44772 1 2 1.44772 2 2V5" stroke="#64748B" stroke-width="1.5" stroke-linecap="round"/>
<path d="M7 23H3C2.44772 23 2 22.5523 2 22V19" stroke="#64748B" stroke-width="1.5" stroke-linecap="round"/>
<path d="M18 23H22C22.5523 23 23 22.5523 23 22V19" stroke="#64748B" stroke-width="1.5" stroke-linecap="round"/>
</svg>
